/* XPM */
static char *result[] = {
/* columns rows colors chars-per-pixel */
"64 64 134 2 ",
"   c #17150F",
".  c #18160E",
"X  c #1C180F",
"o  c #171612",
"O  c #1A1711",
"+  c #1D1B15",
"@  c #1E1D1A",
"#  c #271B0A",
"$  c #2C1E0B",
"%  c #311F0D",
"&  c #221E15",
"*  c #211F1A",
"=  c #1F2017",
"-  c #1F201A",
";  c #2E210C",
":  c #33230D",
">  c #39260E",
",  c #36280F",
"<  c #3B290F",
"1  c #242016",
"2  c #2A2316",
"3  c #272916",
"4  c #24221C",
"5  c #29251C",
"6  c #27291D",
"7  c #2A2A1E",
"8  c #3C2610",
"9  c #372810",
"0  c #3D2B10",
"q  c #332B1C",
"w  c #1A1C21",
"e  c #252421",
"r  c #292721",
"t  c #272823",
"y  c #2B2A23",
"u  c #2B2B29",
"i  c #312D24",
"p  c #312F29",
"a  c #2F3023",
"s  c #323224",
"d  c #32322A",
"f  c #302F35",
"g  c #2F313A",
"h  c #323237",
"j  c #3A3631",
"k  c #3E3C36",
"l  c #34353C",
"z  c #39373A",
"x  c #3C3A3B",
"c  c #412B0F",
"v  c #422D11",
"b  c #492F15",
"n  c #443112",
"m  c #4D3116",
"M  c #523517",
"N  c #543618",
"B  c #573819",
"V  c #5B3A1A",
"C  c #613F1C",
"Z  c #413F3A",
"A  c #65411D",
"S  c #6A441E",
"D  c #70481F",
"F  c #48443E",
"G  c #6D4720",
"H  c #704820",
"J  c #353740",
"K  c #3A3A41",
"L  c #4C4946",
"P  c #484749",
"I  c #4B4A4C",
"U  c #53504E",
"Y  c #5C574D",
"T  c #5D584E",
"R  c #4D4C53",
"E  c #555354",
"W  c #585656",
"Q  c #5E5A5D",
"!  c #675F49",
"~  c #635F55",
"^  c #69614B",
"/  c #6B6455",
"(  c #66625B",
")  c #6A635D",
"_  c #716756",
"`  c #746A55",
"'  c #595960",
"]  c #636165",
"[  c #6A6562",
"{  c #6B6866",
"}  c #6B6969",
"|  c #726E6B",
" . c #777371",
".. c #787576",
"X. c #8A763C",
"o. c #967E39",
"O. c #AE8708",
"+. c #B9900A",
"@. c #BD9415",
"#. c #BB9519",
"$. c #9E8235",
"%. c #AA8E35",
"&. c #A38A3C",
"*. c #AA8F3C",
"=. c #AD9136",
"-. c #AD923A",
";. c #B39434",
":. c #B49738",
">. c #C19608",
",. c #D7A806",
"<. c #DDAC06",
"1. c #DDAD0A",
"2. c #D9AC14",
"3. c #D6AA1A",
"4. c #E1AD00",
"5. c #E4B102",
"6. c #EBB502",
"7. c #EDB805",
"8. c #E2B009",
"9. c #E3B214",
"0. c #E1B219",
"q. c #D1AF3D",
"w. c #D8B43A",
"e. c #F8C209",
"r. c #9A8140",
"t. c #A48C43",
"y. c #AE9140",
"u. c #A28E59",
"i. c #A1905C",
"p. c #AA955C",
"a. c #B19A59",
"s. c #BAA05A",
"d. c #C9AA45",
"f. c #DDB641",
/* pixels */
"m B b M m v b b m m B B M M M b M V B M B b b m B V C V A D S C C S C C S D S C V V V V V C B B B V B B B B N B V B B C B M M b ",
": : % % $ % % % % > > > : % : % : : : > 8 c 8 > 8 > : 8 < v v 0 c b v v v 8 8 : : $ % : : : : $ % : : % : : $ : : % : : % % : % ",
": : : $ : ; : : > , , : : > : : ; ; : , c > 8 9 0 0 v > 0 v n v 8 v n v 0 : > : : $ $ , : > > : : > : : : : ; ; ; $ : ; : : $ : ",
"; ; ; : : ; ; : : $ : : ; : > : $ : > : : $ $ : : : 9 v < c < , , v c < > > , 0 , > , , > > ; : : : ; : : , > : : : ; : $ $ : 2 ",
"> 9 0 0 c < > , : ; : > : > > : > > , < > ; ; > 0 < 9 n n c > , < < v 0 , < < 0 c c v c , ; : : > < > , > , > > : ; : : ; < > > ",
"< v < c v 0 > : : $ ; : : : : ; : > : : : : : : > : : > : > : ; > > : : : : : > : > , , > $ : : : : > , > > > > > > ; : > 0 c c ",
", 9 v c v , > > : ; ; , , , , : : , : $ : ; $ : : ; ; : : : ; : : ; : ; ; : ; : , > , > > > > > ; ; ; 9 v < , 0 < > , , c v n 0 ",
"> ; , , > : , > ; $ # ; > ; $ ; $ ; $ $ $ # # $ ; $ ; ; ; # # $ $ # ; # # $ # $ $ $ : $ $ % % $ ; $ ; ; > : > > : : : > > , , , ",
"4 + @ @ * 4 & @ + 1 & o + + X + 7 @ * 4 4 4 4 4 e e e 4 4 * @ 4 1 o @ - 4 4 + + + * * + & & O + 7 * * 5 5 * * * 5 e e 4 4 4 @ * ",
"e @ - e r * @ * * - + + @ @ * 1 6 4 4 4 4 5 4 e e e e e 4 * @ e 6 @ e e r 4 * * & * + + * * * * 6 * 4 & * 5 5 r e e e @ * - @ e ",
"y * e e 4 r 4 4 * 4 @ @ & * * * 7 & 5 5 4 4 1 4 e w e 4 - - * * e 4 e e e 5 4 4 * 4 @ + * * - * 7 & 5 5 5 * * * e e e e w 4 @ @ ",
"y r 5 4 5 r 4 5 5 4 @ @ * 4 * 4 7 & & 2 & * 1 4 r e * e - - 4 e y e 5 1 4 r e 4 5 * @ * * * 4 - 7 4 & 5 * * 4 e 4 4 4 4 4 * 4 e ",
"y y y 5 5 * & 5 r * 5 * 4 4 4 4 r * 4 * * w @ 4 5 & * * * * e e y y 5 5 5 4 & 5 e 4 5 * 4 4 4 * 5 1 5 1 * - * - 5 1 4 4 * 1 e e ",
"y r i i 5 4 * * * * * 5 4 4 e 4 r e * 5 r w + + & & r y 4 e e * y e i q 5 4 1 * @ * 4 5 4 5 u - r 4 4 4 e - @ @ * & 4 5 4 4 e @ ",
"e 5 i 5 5 * p L P P p e * 4 * - e - * 5 r 5 Z W W F 5 y t t 4 - e 5 s 7 4 4 u L P L p * * * * - t w 4 4 r 4 p I L L d y e u 4 - ",
"y 2 5 i y * j ) [ | Z * r t - e u - r * * r ~  ...[ * r t t r 4 r 5 5 y r 1 k { ] } Z * r r e - t - e e 4 * Z [ ~ | x 1 r e t e ",
"y 5 y r r @ f $.>.$.z e e r r * t * * * * 4 ) #.@._ @ @ * 4 e e r 4 y r r @ h X.+.o.l 4 e e t - t * * 1 1 @ l X.O.o.l + * * t e ",
"r 4 y e r @ g y.7.:.J * y y y 4 r * * * 5 w ~ 0.9._ w 4 1 e e e r e r r r @ l &.e.:.l 4 y u y 4 e 4 @ 4 4 @ l &.5.%.J @ 4 e e 4 ",
"y 4 y u r @ J t.<.%.K & 4 5 4 4 y 4 * 4 5 w Y 3.2.! w @ @ 1 t e y e r u r * l t.8.%.l * 4 4 4 4 t 1 * 4 5 + l t.,.*.l + & * t e ",
"u e r y u e K t.8.%.K @ 4 & 4 * u * 4 & 4 * Y 3.2.! w @ + * r e y e r t u * l t.,.:.l * 4 1 e * u 1 1 * 5 + J t.<.%.l o + 4 r w ",
"r 4 y r t @ K t.7.;.x + 4 4 * * r 4 4 5 5 - Y 2.1.^ @ @ @ 5 e - e 4 r u t @ J t.4.;.l @ 4 4 1 * t 4 5 4 5 & J &.4.%.g + * 5 e 4 ",
"y * e e - @ K u.w.a.x + * 1 4 4 y 4 4 * & @ ) d.d./ @ @ 4 4 5 4 6 4 4 e * @ K p.f.a.z + @ * 1 e u 4 4 & * + l i.q.p.l + * 4 4 4 ",
"7 & 5 4 e 4 p U ' E i @ e 4 * 4 y * * * @ + Z R P x * @ - e 1 6 5 & 4 4 e 4 d L R I i * e 4 @ 4 t * 4 * & + u P R I u @ 4 5 4 5 ",
"r @ * 5 r r 5 o     * 4 4 e @ e t @ @ + + + + o O + 4 4 1 1 + 1 t & 4 r 5 r 5 + O . * * 4 e 4 4 t @ * + + @ @ O X X @ 1 1 1 + + ",
"7 1 5 5 5 5 5 1 4 4 @ 4 e 4 - 4 u @ @ + + @ @ * 4 5 & & & + + - 7 1 1 5 5 5 5 4 4 4 @ 4 4 e @ 4 u @ @ + + @ @ 4 1 4 1 & & & & & ",
"y 4 4 1 2 2 5 5 4 4 e 4 4 4 e @ u @ * & + @ 4 @ @ 4 & & & & 1 1 y - 4 1 2 3 5 5 e w e 4 e @ e * y @ * & + @ 4 * 1 1 & & & & 1 + ",
"y @ e 5 4 4 5 r e e e 4 5 - @ - t e r 4 4 4 e - 1 5 & & * 1 @ 4 y - t 5 2 4 5 5 e e e 5 4 * * 1 y 4 r e 4 e 4 - e 4 & + & & @ 4 ",
"y 1 - 1 1 1 4 e t t e 5 r e 4 1 y r r e e 5 5 4 4 4 * & 1 1 4 6 7 4 - 1 * & 4 r t t e e r e 4 * u t r e 4 4 e 5 4 4 * * & 4 4 6 ",
"7 5 e w e - + 4 e e e 4 e 4 4 4 y u r 5 5 4 1 5 t e 4 * * 5 4 5 7 1 4 w e * * 4 5 e e 4 e - 5 4 t y r 5 1 4 5 4 e e e 1 1 4 e 4 ",
"7 4 - e e 1 1 5 5 r 5 5 1 @ @ - r r r 5 5 5 5 5 e e e r 5 4 4 6 7 4 e e - * * 4 5 6 7 5 1 @ @ 4 t y r 7 5 5 5 5 e e e e 5 4 4 6 ",
"a e 4 5 e 5 4 y r 5 5 t e 4 t - y r y 7 5 5 1 t - r 5 r * 4 5 1 a 4 4 5 r 5 5 y r 5 6 t e 4 t - y 5 q 5 5 5 4 e e 4 5 e 4 1 e 4 ",
"3 + 1 = - 4 1 + * & 4 6 4 - 4 = 3 - 4 4 5 4 e e - * 4 * 4 5 * + 4 + 1 1 * 4 & & + 1 4 6 4 4 - + 6 @ 4 e 4 t 4 e - 1 4 1 3 4 1 + ",
"7 4 4 4 4 4 4 r e 4 5 1 4 5 y e r r r r e e e y u t e e r r u - 3 e 4 1 4 e - t 5 4 4 4 4 4 y 4 r t t t e t e u u t e r r r u 4 ",
"e * & * 5 e * * * * 1 5 5 5 e @ u * r y r e * 4 + 5 5 t r u t @ e - * 1 e 4 @ 1 * * 4 5 5 5 r * y - r y r 4 * * * e e r r u r + ",
"y 4 & 4 e * 5 * 5 1 4 5 5 3 r e u e e r r 4 4 * 1 e e 5 5 4 5 5 t 4 1 4 4 4 4 4 5 * * * 2 5 y e u e e r r 4 * 5 & 4 r 5 5 4 4 5 ",
"u 4 4 * 5 5 * 5 e 5 5 5 5 i r t y e 4 * 5 r 4 * 5 1 4 5 4 1 e 4 y 4 1 1 5 4 5 e e 5 q 5 7 i 5 r y r * 4 5 5 4 * 5 & * r 4 * e 4 ",
"d 4 5 5 5 5 5 5 4 e 5 e e y y 4 y 5 4 1 & 5 1 4 4 & 1 2 1 4 4 4 p 4 5 5 5 5 4 4 4 4 5 e 5 y y 4 r 5 4 & & 4 * 4 5 1 1 2 2 1 4 4 ",
"r 4 2 & & 5 * 5 5 e t t e r 5 4 3 1 4 @ & 4 4 e 1 & # 1 1 1 1 e y * 2 & 1 4 5 5 e e r u e r e e 3 4 4 * & 4 4 e 1 # & 1 & 4 4 4 ",
"u * * & * * 4 5 e e e - e 5 e 1 6 4 @ 4 4 5 4 e 4 & 1 & 4 4 5 4 y - * & & 4 4 5 e t e - e 5 4 1 3 4 @ 4 4 5 4 e 4 & & 1 4 4 e 4 ",
"y @ * * * 5 * 4 r * @ @ @ 1 + + 6 + 4 e r r 5 e y e 1 4 4 5 - - u @ * * & 4 4 4 4 4 @ @ @ * & X 7 @ * e r y 5 5 r e 4 1 4 5 1 + ",
"u + @ w 4 4 & & & 4 @ + + @ + X 4 - 4 5 4 5 4 e e e e e * 4 1 1 y + w - 4 e * & & * * + @ @ + + 5 1 4 5 e 5 4 4 t e e 4 4 4 1 * ",
"7 @ e e t e @ & * @ @ O @ @ @ * 7 1 4 4 1 e 4 * e t e e 4 * + 1 7 @ e e r * * & & * @ + * @ + 4 6 1 1 4 * e 4 e e e e 4 4 * & 1 ",
"y 4 5 e e t 4 * 1 4 & + & 1 * e 6 1 5 5 * 4 1 4 4 4 4 4 * 4 * 5 y 4 - e e r e * * * + & * * * 4 6 & 5 4 4 4 * 4 e e 4 4 4 1 * 4 ",
"a y 5 4 * r r 4 4 4 * 1 * 4 4 e 3 1 1 1 4 * 4 4 5 5 4 4 * * 4 4 u e 5 5 4 r r 4 r * & & * 4 * e 3 1 1 4 * @ 1 4 4 5 4 4 @ @ 4 5 ",
"d y 5 5 5 * * r e 4 4 4 4 1 e 4 5 5 5 & 4 4 + 1 5 1 4 4 @ - e 6 d y 5 5 5 1 * r e * 4 4 4 2 5 4 7 4 5 & 4 & & 4 5 1 1 4 * @ r e ",
"p r i i r 4 * e e e 4 e 4 5 e - 7 * & 4 4 * * 4 5 5 5 5 4 4 e - i e i i r 4 * t e e 4 r 4 5 e * 7 * 1 4 5 1 * 4 5 5 e 5 4 5 4 - ",
"u 5 i y 5 4 5 r e 1 4 5 1 4 - e 7 4 4 5 5 5 4 r y 5 r y r r 5 4 y 7 i r 4 4 4 r e 4 4 4 & * 4 4 y 4 5 4 5 5 4 r 7 5 r u r r e 1 ",
"s 5 5 y 5 e 4 e 5 5 e r 5 5 4 1 7 4 4 4 4 5 4 5 r 5 4 e t r r 4 a 5 5 y 7 5 4 e 5 4 r r 5 y 4 4 7 * 4 4 4 5 4 5 5 r 4 e r t r 4 ",
"s 5 r r y * * r 5 r 5 r e r r 4 y - - @ 4 e 4 4 e 4 * 4 @ 4 e 5 i r r y 5 4 * e 5 5 e e e e e 4 7 & * 1 @ 4 4 4 4 4 * 4 @ * e 5 ",
"y 5 y r r e * e * 5 4 r y y y 4 4 1 - 1 e e - - * @ * e 4 e e 4 i * y e y e * 5 - 5 5 5 y y y 4 6 1 @ @ e e e @ 4 @ @ e 4 e e 4 ",
"u e y u t e 5 * * 4 4 4 4 4 4 e 4 1 @ e e w e 4 4 4 w 4 + 1 e 5 y 4 y u t e * & 4 5 5 e 5 4 e 4 e 4 4 e e e e 4 4 e @ e @ @ e 5 ",
"s 4 r t r r 5 * e * 4 r 4 * e 4 u * 1 1 e e 4 e e e @ @ @ @ t 1 i e y r u r 5 * e @ 4 e 4 1 e e t * 1 * e w e 5 e 4 @ @ + 1 t - ",
"s 4 r y 5 r 4 4 & * * 5 4 * 4 e t 1 e 4 5 4 e e e 1 & * * 5 5 3 u 5 r r 5 5 e 4 @ + 5 4 4 4 * - t 1 4 4 5 4 4 e e * & * @ 5 5 1 ",
"s 4 4 5 & 5 5 5 5 & * * 4 4 4 * y 1 e @ * 4 4 r e @ * 1 * 5 1 5 s 2 5 5 * 5 4 5 4 + 1 1 @ 4 4 e t 4 e 4 1 4 4 r 4 * * 4 4 5 3 4 ",
"7 & 4 4 4 5 & 2 & * * * - * @ e r - w @ + & * * @ @ @ * & 5 1 1 7 & @ 4 * 5 2 4 & & @ @ 4 4 @ 4 t * @ w @ + * * @ @ * & 1 1 & & ",
"s 5 5 7 y q q 5 2 5 5 r y i 4 4 u 5 5 4 & & 5 5 5 r 4 5 2 2 2 2 s 5 5 y i q q q 2 5 7 r r r 5 5 p 4 4 4 & 4 5 5 5 r 5 2 2 5 1 1 ",
"b B b m b v b b b b N N m M m b M B M M M b b m B V C V C S S V A S A C A S S C V B B B B V B M B B B B M B N N V N B V B M M b ",
": : % : % % % % : : > > : % : : : : : c c c 8 > > > > < > v b c c b v v v 0 8 : : $ % > % : % $ % 8 : ; : : $ : : % : : % % % $ ",
": : : ; : : : : c : > > : , > : : $ : , 8 8 8 , 0 0 < , 0 v n < > c n 0 0 : > : : ; $ > > > > : : : ; : : : ; ; ; $ : ; : ; : : ",
"; $ ; $ : ; ; : : % : % $ , : : ; : : : : $ $ : : > , n < < c < < v c < > > 9 0 , : , , < : : : > : ; , : > > : : : ; : ; : ; $ ",
"> 0 0 0 c < < , : ; : > : : > > > > < < , ; ; , < > 9 n c c , < 0 0 v 0 , < , v 0 0 c v , ; ; : > 0 > 9 , , > > > ; : ; ; 9 > > ",
"> v > v c , , > : $ ; : : : : $ : > : : : : : : > : : > : : : : > > : : : : : > : > < , > ; : > ; : : , > < > > : > ; : > 0 v c ",
", < v 0 v , > > : ; ; , 9 9 : : : , : $ : ; ; ; : ; : : : : ; ; : ; ; ; ; ; ; : , > > > > > > ; : ; : > < c , c , < > , 0 v v 0 ",
"> : , , , ; > > ; $ # ; > : $ ; $ $ $ $ # $ # # $ $ $ : ; # # $ # # ; $ # $ # $ $ $ ; ; $ : : ; $ $ $ : : : > , : : : > > , < , "
};
