/* XPM */
static char *result[] = {
/* columns rows colors chars-per-pixel */
"64 64 124 2 ",
"   c #17170F",
".  c #19170F",
"X  c #1C180F",
"o  c #1D1C15",
"O  c #1E1D1A",
"+  c #271B0A",
"@  c #2C1E0B",
"#  c #311F0D",
"$  c #221E15",
"%  c #211F1A",
"&  c #1F2017",
"*  c #1F211B",
"=  c #2E210C",
"-  c #33230D",
";  c #39260E",
":  c #36280F",
">  c #3B290F",
",  c #242016",
"<  c #2A2316",
"1  c #272916",
"2  c #24221C",
"3  c #29251C",
"4  c #27291D",
"5  c #2A2A1E",
"6  c #3C2610",
"7  c #372810",
"8  c #3D2B10",
"9  c #332B1C",
"0  c #1E2321",
"q  c #252421",
"w  c #292721",
"e  c #272823",
"r  c #2B2A23",
"t  c #2B2B29",
"y  c #312D24",
"u  c #312E29",
"i  c #2F3023",
"p  c #323224",
"a  c #32322B",
"s  c #3A3631",
"d  c #3B3B36",
"f  c #3B3E39",
"g  c #5C0000",
"h  c #570D0E",
"j  c #5B0C0D",
"k  c #5E1415",
"l  c #630303",
"z  c #6F0A0B",
"x  c #740E0F",
"c  c #620F10",
"v  c #651010",
"b  c #691212",
"n  c #6C1919",
"m  c #721313",
"M  c #7A1617",
"N  c #781A1A",
"B  c #412B0F",
"V  c #422D11",
"C  c #492F15",
"Z  c #443112",
"A  c #4D3116",
"S  c #523517",
"D  c #543618",
"F  c #573819",
"G  c #5B3A1A",
"H  c #613F1C",
"J  c #413F3A",
"K  c #642A29",
"L  c #6C2E2D",
"P  c #6F3836",
"I  c #663E3C",
"U  c #6C3B3B",
"Y  c #733232",
"T  c #783535",
"R  c #733D3B",
"E  c #7D3C3C",
"W  c #3D423D",
"Q  c #65411D",
"!  c #6A441E",
"~  c #70481F",
"^  c #42443D",
"/  c #49453E",
"(  c #6D4720",
")  c #704820",
"_  c #6E403F",
"`  c #76403F",
"'  c #434641",
"]  c #424842",
"[  c #4D4C46",
"{  c #4D4D49",
"}  c #5C4744",
"|  c #594846",
" . c #574F4C",
".. c #5D4C4A",
"X. c #4E504B",
"o. c #54544D",
"O. c #58504D",
"+. c #5F5754",
"@. c #565953",
"#. c #595A55",
"$. c #684240",
"%. c #734342",
"&. c #7B4343",
"*. c #7A4847",
"=. c #7B4B4A",
"-. c #645452",
";. c #655D5A",
":. c #7A5351",
">. c #66625D",
",. c #6C635F",
"<. c #626461",
"1. c #6C6562",
"2. c #6D6A66",
"3. c #6E6C69",
"4. c #766E6A",
"5. c #74716E",
"6. c #797372",
"7. c #873D3E",
"8. c #884342",
"9. c #845453",
"0. c #895857",
"q. c #825C5A",
"w. c #82605D",
"e. c #89605E",
/* pixels */
"A F C S A V C C A A F F S S S C S G F D D C C S D G H G H ~ ! H H ! H H ! ) ! H G G G H G G F S F G G F D F D D G D D H F D S C ",
"- - # # @ # # # # ; ; ; - # - # - - - ; 6 B 6 - 6 ; - 6 8 V V V B V V V V 6 6 - - @ @ - - - - @ # ; - # - - - - - # # - # # - # ",
"- - - @ - = - - ; : : - - ; - - = = - : B 6 : 8 8 8 V ; 8 8 Z V B V Z 8 8 - ; - - = = : - ; ; - - ; # - = - = = - @ - - - - = - ",
"= = = - - = = - - @ - - = - ; - = - - - - @ @ - ; - 7 V B > 8 7 6 V V ; ; ; 7 8 : - ; : > - - - - - = - : ; ; - - = - = = # < @ ",
"; 7 8 8 B > ; : - = - ; - ; ; - ; ; 7 > : = = ; : B 7 Z Z B ; > > 8 V 8 : > > 8 B B B V : = - - ; > > : ; ; ; ; - - - - = > > ; ",
"> V > B V 8 ; - - @ = - - - - = - ; - - - - - - ; - - - - ; - @ ; - - - - - - ; - ; : : ; = - - - - ; 7 ; ; ; ; - - - - ; > B B ",
": 7 V B V : ; ; - = = : : : : - - ; ; @ - = @ - - = = : - - = - - - - = = - = - ; ; : : ; ; ; ; - = = 7 8 : : 8 B ; > : > Z Z > ",
"; = : : ; - : ; = @ + = ; = @ = @ @ @ + @ @ + @ @ @ = = = + + @ + + = + + @ + @ @ @ - @ @ @ # @ = + = = ; ; ; : - - - - : : > : ",
"2 o O % 2 % % O o , % . o O X o 4 O , 2 2 2 2 2 0 q q % 2 2 O * , o O O % $ % % % % % X o o X $ 5 % % 2 2 2 2 2 3 2 q % 2 % % 0 ",
"2 O 0 q q 2 o % % * o o o % % % 4 2 2 2 2 3 2 2 q q q q % % % q 4 o 0 q q 3 % % $ % o o % % % % 4 2 2 $ 2 3 2 2 q q q 2 % * % % ",
"r % 2 q 3 q 2 2 % 2 O O $ % % % 5 $ 3 2 2 , , 2 0 q q 2 q O O * q 2 q q 2 q 2 % % q O o % % % % 4 , 3 3 2 2 % 2 q q q q 0 % % % ",
"r q 3 3 3 q 2 2 3 2 O O % 2 % % 5 , , 2 % % 2 2 w % 2 q O % 2 q r 3 3 2 3 w q 3 % % % % % 3 % % 5 % < $ $ % O q w 2 O 2 O % q q ",
"t r y 3 3 % $ 3 3 % 2 3 2 2 2 2 3 , 2 , 0 O o q 3 $ $ 3 O , q q r r 5 5 3 % $ 5 q % 3 % 2 3 % 2 5 , 2 , 2 O O q 5 $ 2 2 % % q q ",
"r q y y 3 3 2 % % % % q 2 3 q % r % 2 2 q 0 o o % $ q q 2 2 q * r q y 9 3 2 $ % % % % w % 3 q % r 2 , 2 2 q O o $ % 3 q 2 q q % ",
"3 3 y 3 2 % u [ { [ u 3 % % % q q q 2 % q % J #.+./ r r q t 2 * w 2 y 5 2 % u [  .[ t 2 % % % 0 q O q 2 3 2 a [ [ [ a w w t 2 % ",
"r < 3 y q % s 1.1.4.J 2 q w % 0 q q q 3 2 q >.6.6.1.$ 3 w w r q r 3 3 r w % d 2.2.3.d % q r q q e 0 q 2 2 % J 1.,.5.d O w w w 2 ",
"r 3 r 3 q o d %.v R d 2 q w w O q 2 O % % w ;.k h -., O O 2 q q r 2 r w e O f $.k _ f 2 q q q O q % O % , O W I j U W o O 2 q q ",
"e , r q r % f &.z R ^ 2 w r r 2 q , O 2 2 w +.b n -.w 2 , q q q w 2 r w r O f U x %.f q r t r 2 r 2 O 2 3 O W U z Y W O 2 q q 2 ",
"t 2 r t e , W *.l R ' % 2 2 2 2 r , % , , q  .n n ..0 O O 2 q q q w r t w % W %.M R f & 2 3 2 2 r , % 2 3 o W %.b E W o O , q q ",
"t q q t t 2 ^ =.l R ' % 2 2 3 % t % 2 2 3 2 o.n b | 0 O o , w * e q q e t , ' %.x R W , 2 , w % r % 2 % q O W =.N E f o o 2 q 0 ",
"q 2 r r e O ] *.g L ^ o 2 2 % % e 2 3 2 2 3  .v l } * O O 4 3 * w 2 r t q 2 W %.l K W o 2 2 , % r 2 2 3 3 % W %.m T d o % 3 w O ",
"r 2 2 q 2 O W e.7.9.^ o % 2 2 2 r 2 2 , % 2 ;.&.7.-.* & q 2 2 2 e , 2 q 0 o ' :.Y :.J o O % , q r 2 2 % % o f w.8.0.f o % 2 2 3 ",
"4 % 2 2 3 2 t o.<.#.y O q 2 % 2 r % % % o O W o.o.f O O 2 3 , 3 3 % , q 2 2 y  .@.o.y % q 2 O % q 2 , % % o r { o.X.t O 2 3 2 2 ",
"5 % 2 3 w q 3 o . . % 2 2 2 % q e O O o o o O   o o , , % % o & 4 O , w w 5 3 o . . % 2 2 q 2 q e O % O o o %   X o O , % , o & ",
"5 , 2 3 < 3 5 2 2 % % 2 q 2 * % t O O o o O O % 2 3 $ $ $ $ o , 5 2 2 3 < 3 3 3 2 % O 2 q 2 % 2 r O O o o O O 2 % 2 , $ $ $ $ % ",
"r 2 2 , < < 3 3 2 2 % q 2 q 0 % t O % % o O % % % 2 $ $ $ $ % , r * 2 , < 3 < 3 w 0 q 2 2 0 q % t O % % o O % O , , $ $ $ $ 2 o ",
"r % w 2 2 2 3 3 q q q 2 2 * O O e 2 w 2 q 2 2 , 2 < $ $ % $ & * 5 O q 2 , 2 3 3 q q q 2 2 % O , q 2 w q q 2 2 2 2 3 $ o % , % , ",
"5 % 2 , , % 2 3 t w q q w 3 2 , t w w q 3 2 w 2 2 2 % % % , q 3 5 4 & 2 , % 2 w q q w e q w 2 % r r w q 3 2 3 2 q % % % , , * 3 ",
"5 3 2 0 q % % 2 q q q 2 q * 3 2 r r r 3 3 2 3 3 q 0 q % % 3 2 3 5 % 2 0 q % % 2 3 w q 2 q 2 3 2 r r r 3 2 3 3 3 q 0 q % , 2 2 2 ",
"5 2 0 0 q % % 2 5 q 3 3 , O O * e r q 3 3 3 2 3 q q q q 3 2 % 4 5 2 0 0 q O % 2 3 w 3 2 , O O * e r r 3 3 2 2 3 q q q q 2 3 3 4 ",
"i 2 2 3 w 3 2 5 5 3 3 w w 2 w * r 3 r 5 3 3 2 r q 3 2 3 % , 3 4 p 2 2 3 3 3 , r 5 3 4 e q 2 e & r q 5 5 3 2 3 q q 2 2 w , 4 q , ",
"4 o , , O 2 , % % $ 2 3 2 * * & 4 & 2 2 2 3 2 0 % 2 3 % 3 2 , o , % , , , 2 , % O , , q 4 & 2 o 3 % 2 2 q 3 3 q % $ 4 2 , 2 & o ",
"4 2 2 2 , q 2 3 3 2 2 < 2 2 r w r w r q q q q t t w w w w e t * 4 2 2 2 2 2 2 w 3 % q 2 2 2 r 3 r r q e w q q t t q q q q q u 2 ",
"q % % $ q q % % % % 2 3 3 3 w O r % w r w 3 % % O 3 q w r t r o 4 O $ % 3 2 O & % % 2 3 3 5 3 % e O q r r q % % % q q w w u q o ",
"r 2 $ 2 q % $ 3 2 < % 3 < 5 r q t q q q q 2 2 % , 3 q 2 2 2 2 3 q 2 , 2 2 2 2 2 3 % % 3 < 3 5 q t q w q 3 % 3 % $ 3 q 3 2 2 3 3 ",
"u 2 2 % 3 3 3 q q 2 5 3 3 r w w r w 3 % 5 q 2 % 2 O 2 3 2 , q 2 t 2 , 2 3 2 2 w w 3 3 3 3 y w q r q 2 2 5 q % 2 3 % % 5 3 % q 2 ",
"t 3 3 2 3 3 3 2 3 q 3 w 3 r r 2 r 2 2 2 $ 3 , 2 2 $ < < 2 , 2 2 u 2 3 < 3 3 2 2 2 q 3 w 2 y r 2 r 3 2 % $ 2 % % < % < < , 2 2 2 ",
"r 2 < $ $ 2 $ 3 3 q q q q w q 2 1 , , % $ 2 2 q , , + $ , 2 2 3 w % < $ , 3 3 3 3 q w q w q q 2 1 2 2 O % < 3 q , + $ , $ 2 2 2 ",
"t % , $ % 3 3 2 q q q q 2 q q % 5 2 O 2 3 3 2 q 2 $ % , 2 , 2 2 t 0 % $ % 3 2 2 q q q 0 q 2 q % 1 , O 2 2 3 3 2 2 % % % 2 , 3 , ",
"r O % % % 2 % 2 2 q O o % $ % X 3 O % q q w 2 w r q , , 2 3 , , q % % % % 2 % 3 2 % % O % 2 $ X 5 O 2 q q 5 3 q r 2 , 2 2 3 , O ",
"t O O 0 0 % $ $ $ % % o o O o o 2 & 2 3 2 w 2 2 q q q w q % , , r O O 0 q % $ $ % % % o o O X % 3 % % 3 3 q 3 q q e q 2 2 3 $ % ",
"5 O 0 q w q % $ % % o o o O % 2 4 4 3 , * q 2 q q q q 0 % % % 2 5 % 0 0 w q % $ $ % O X % % % % 5 $ 3 % % q % % q q q q 2 % % , ",
"r 2 2 2 3 w % % 2 2 % o % % % 2 3 + 3 3 2 2 O 2 3 2 2 3 % 3 % 2 y % % q 3 w q % $ % % $ % % % 2 5 $ 5 3 q % % 3 q q 2 2 2 , $ , ",
"i r 3 3 % r q q 2 % % o % 2 2 2 4 , , , % O , 2 3 3 % % % % % 3 y w 3 3 % r q 3 3 % % % % q % 3 1 $ $ 2 % % % 3 2 3 % 2 O * 2 3 ",
"u r 3 5 q % % q q * 2 2 2 , q 2 3 3 3 , 2 $ o 2 3 $ % 3 % O q w u r 5 3 3 % % q q % 2 % 3 3 q % 5 3 , , 3 % $ 2 3 % % 2 % % w w ",
"u 3 y y 3 3 % w q q 3 w 3 2 q & 5 % $ 2 2 2 % 2 3 3 w 3 2 w 0 & t w y y 3 3 % q q q 3 5 3 $ q % 5 % $ 3 % % % % 3 3 w 3 2 2 2 * ",
"u 3 y q 3 2 q q 2 3 2 w , , O q 5 2 2 2 3 3 2 3 w 5 5 t q r 2 , r 5 y 5 2 $ q q q % 2 q % % % q r 2 2 3 9 3 % 5 5 3 r r w w q , ",
"t 3 3 y q 3 3 q 3 2 w e 3 3 q , 5 2 2 2 3 3 2 3 5 2 3 q q q w 4 r 5 3 r 5 q 3 q 3 3 q q 5 5 % 3 5 % 2 2 % 5 % 5 q 3 2 q q w r 2 ",
"p 3 r 3 w 2 % q q 3 2 q q q w 3 4 , & O 2 q % q 2 q % % O 2 w 3 y q w w 3 q % w 3 3 2 w q w w 2 5 , O & % q % % 3 % % % % % w 3 ",
"r 5 r w w q % 2 % 3 3 5 w y r 2 3 % O 2 q 0 % % % % % q 2 2 q 2 r q r w r w % % , 3 2 w q t r 2 3 , O 2 q 0 q % % % 0 q % q w 2 ",
"r q w t e q 3 % 2 2 2 q 2 2 q 2 w , % 2 q 0 0 q % 0 0 % O % w 3 r 3 r t t q % $ * w 2 w 3 2 q 2 q , O q q 0 0 q q % 0 % % % w 2 ",
"a q w r r 3 3 2 q % 2 q 2 % q 2 r % 2 % w q q % w q % % O & q , y 2 w w r q 3 % q O 2 w 2 , q * e 2 , % q q 2 2 w q % % O % w % ",
"p 2 r r 3 3 2 2 $ % % 3 2 2 % q r 2 2 2 3 3 q q q % $ % % w 3 3 y 2 q r 5 3 q 3 O o , 2 2 2 % q e 2 2 2 3 2 2 w w % % , O 2 3 2 ",
"p , 3 2 2 2 2 3 3 % % $ 2 2 O 2 q 2 q % % % 3 q q % % $ $ 3 < 3 p 3 3 3 % 3 % 3 2 % % 2 % 2 q % e % q % % 2 % w 2 % % , % 3 3 < ",
"r $ , 2 2 3 , < $ % % % q % O q w % 0 % o % % % O % O $ $ $ $ $ 5 $ % , % 3 $ 3 $ $ % % 2 2 O % e O O 0 o o % % O O O % , < $ % ",
"p 3 3 5 w 9 9 3 < 3 3 5 q r 3 2 u $ q % $ $ 3 5 3 w % 3 9 < < 3 p 3 5 r y 9 9 9 < 3 5 3 w w 3 3 u 3 2 2 % 3 3 3 2 w 3 < < < , , ",
"A S A A C V C V C C F S S S A C S F F F S C C A D F G G H ~ ! G H ! H H Q ) ! H G F F F F G F S D F F S S D S S F D D G F D S V ",
"- - # # # # - # # ; ; - - # - # - - # ; B B ; - > 6 ; > 6 V V B B C V V V ; 6 - - # @ ; # - - @ - 6 - - - - - - - # - - # # - # ",
"- - - = - - - - ; ; : ; ; 7 ; - = = - : ; ; 7 8 V 8 V : 8 8 Z > ; V Z V 8 - - - - @ = : ; ; ; - - ; = = - - @ = - = - = : - # - ",
"= = = @ - # = - - # - - = = ; - = - - - - # @ - - ; : 8 B > B > > V B > ; ; 6 8 : ; : : > - - - - - = - 7 6 ; ; - = = - @ @ - @ ",
"6 7 8 8 B > > : - = - ; - - ; ; ; ; : > ; = = : > > : Z B B : > 8 8 V 8 7 > : 8 > > V B : = - - ; 8 ; 7 : : ; ; - = - = = 7 ; ; ",
"; V > V B : : ; - @ = - - - - @ - ; - - - - - - ; - - ; - - - - ; ; - - - - - ; ; ; : : ; = - - - = - > ; : ; ; ; ; - - ; 8 V B ",
": : V > B : ; - - = @ : : : 7 - - ; - @ - = @ = = = - - - - = = - = = = = = = - ; - ; ; ; ; : - - = - 6 > > : > : ; ; : 8 V V 8 ",
"; - > : > - : ; = @ @ = - - @ @ @ = @ @ @ + + @ = @ @ - = + + @ + + = @ + @ @ @ = @ = @ - @ = = @ @ @ - - ; : ; ; - - ; ; : 7 : "
};
