/* XPM */
static char *result[] = {
/* columns rows colors chars-per-pixel */
"64 64 252 2 ",
"   c #050506",
".  c #0C0C0C",
"X  c #090808",
"o  c #110E0E",
"O  c #141414",
"+  c #1B1B1B",
"@  c #1B1715",
"#  c #14110F",
"$  c #221A16",
"%  c #231D1A",
"&  c #2A1E1B",
"*  c #2C1C17",
"=  c #321E17",
"-  c #26201E",
";  c #2B221D",
":  c #35221A",
">  c #37261D",
",  c #1F1F20",
"<  c #1F2020",
"1  c #242423",
"2  c #2B2523",
"3  c #2D2925",
"4  c #2C2B2B",
"5  c #272728",
"6  c #322623",
"7  c #342A25",
"8  c #3B2C25",
"9  c #332D2A",
"0  c #3A2E29",
"q  c #3B2724",
"w  c #34322C",
"e  c #3C322B",
"r  c #3A3428",
"t  c #343333",
"y  c #3C3532",
"u  c #3D3A33",
"i  c #3B3B3B",
"p  c #2F302C",
"a  c #4B241C",
"s  c #51271E",
"d  c #702D1A",
"f  c #422E25",
"g  c #442D2A",
"h  c #4A2B27",
"j  c #542A22",
"k  c #443127",
"l  c #44342B",
"z  c #49352C",
"x  c #4A392E",
"c  c #46382F",
"v  c #54342B",
"b  c #543A2A",
"n  c #433631",
"m  c #4B3633",
"M  c #443B34",
"N  c #4A3B33",
"B  c #443D3A",
"V  c #4C3C39",
"C  c #543B33",
"Z  c #593D35",
"A  c #6A382A",
"S  c #6D392E",
"D  c #46423B",
"F  c #4A433D",
"G  c #494438",
"H  c #53433D",
"J  c #5C443B",
"K  c #584638",
"L  c #59543E",
"P  c #5D422C",
"I  c #634533",
"U  c #63453B",
"Y  c #644A3C",
"T  c #6B4B3B",
"R  c #76563D",
"E  c #704832",
"W  c #3F3F40",
"Q  c #444444",
"!  c #4D4541",
"~  c #4B4B4B",
"^  c #4B4B44",
"/  c #544C44",
"(  c #5A4C45",
")  c #574945",
"_  c #5C534C",
"`  c #595446",
"'  c #535353",
"]  c #5C5C5C",
"[  c #5B5552",
"{  c #4F5050",
"}  c #684C44",
"|  c #6D5343",
" . c #635B4C",
".. c #665548",
"X. c #765A48",
"o. c #655A54",
"O. c #795C54",
"+. c #784C44",
"@. c #69624E",
"#. c #7C634B",
"$. c #6C6755",
"%. c #786858",
"&. c #7A775A",
"*. c #707354",
"=. c #646464",
"-. c #6B6C6C",
";. c #7A7664",
":. c #737373",
">. c #7B7B7B",
",. c #777878",
"<. c #736C67",
"1. c #5F6060",
"2. c #A83F25",
"3. c #973E24",
"4. c #99472D",
"5. c #8A4735",
"6. c #934732",
"7. c #84573B",
"8. c #8D4A30",
"9. c #A9492A",
"0. c #BA462A",
"q. c #AB5637",
"w. c #B65638",
"e. c #B34C31",
"r. c #936438",
"t. c #C9492C",
"y. c #D24B2D",
"u. c #D7492C",
"i. c #C84B34",
"p. c #D54E32",
"a. c #D84E34",
"s. c #C75437",
"d. c #D85536",
"f. c #CC522E",
"g. c #E35B3A",
"h. c #CF603B",
"j. c #885C4A",
"k. c #AA5D48",
"l. c #82664B",
"z. c #976946",
"x. c #836653",
"c. c #856A54",
"v. c #886B58",
"b. c #966958",
"n. c #8B765A",
"m. c #967859",
"M. c #91734E",
"N. c #A56A46",
"B. c #A8744B",
"V. c #B6764D",
"C. c #B87A54",
"Z. c #AD7153",
"A. c #886B61",
"S. c #837B63",
"D. c #8C7A6B",
"F. c #887665",
"G. c #947868",
"H. c #9A736B",
"J. c #A6766A",
"K. c #A57971",
"L. c #AA726B",
"P. c #C97350",
"I. c #D55C41",
"U. c #7D836C",
"Y. c #87845C",
"T. c #95885D",
"R. c #B98259",
"E. c #8A8464",
"W. c #8B866A",
"Q. c #8C8A6B",
"!. c #898667",
"~. c #978769",
"^. c #97956A",
"/. c #8A8A71",
"(. c #988875",
"). c #959374",
"_. c #9A9877",
"`. c #8D9078",
"'. c #A58968",
"]. c #A68976",
"[. c #B48B7C",
"{. c #A59A78",
"}. c #B29670",
"|. c #A3A26D",
" X c #A5A37B",
".X c #AAA47C",
"XX c #AAA879",
"oX c #B2AC7D",
"OX c #CB8759",
"+X c #CD936B",
"@X c #E1A172",
"#X c #7F8080",
"$X c #838484",
"%X c #8B8B8B",
"&X c #9D9B84",
"*X c #949494",
"=X c #9B9B9B",
"-X c #A89A84",
";X c #B29381",
":X c #ADAB84",
">X c #ADAB8A",
",X c #A8A486",
"<X c #B5A988",
"1X c #B5B28A",
"2X c #B9B58E",
"3X c #B7B586",
"4X c #ACAA92",
"5X c #BAB595",
"6X c #BCBA93",
"7X c #B9B698",
"8X c #AFB091",
"9X c #A3A3A3",
"0X c #ADADAE",
"qX c #A7A8A8",
"wX c #B4B4B4",
"eX c #BBBCBC",
"rX c #BBBFA1",
"tX c #C2BD95",
"yX c #C2BD9A",
"uX c #C5B697",
"iX c #CAB08A",
"pX c #C8BFA5",
"aX c #BDC19C",
"sX c #BFC5A1",
"dX c #C4C29B",
"fX c #C9C59C",
"gX c #D6C69C",
"hX c #CCCBA3",
"jX c #C8C8A7",
"kX c #D2CDA6",
"lX c #D3CCA8",
"zX c #CDD4A9",
"xX c #D4D4AC",
"cX c #D3D9AE",
"vX c #D8D5AB",
"bX c #DADCB3",
"nX c #D7D7B5",
"mX c #CCCFB2",
"MX c #DDE4BA",
"NX c #DCE2B6",
"BX c #E2E9BE",
"VX c #E3E5BB",
"CX c #E2DDBF",
"ZX c #C7C7C7",
"AX c #D3D3D3",
"SX c #DEE3C2",
"DX c #E4ECC2",
"FX c #E7ECC8",
"GX c #ECF2C8",
"HX c #EEF4D2",
"JX c #F2F5D0",
"KX c #E6E7E7",
/* pixels */
"4 t t t 1 4 5 + 1 1 9 2 9 3 t 9 9 9 y t 3 9 5 9 9 9 4 y 4 3 3 9 1 9 3 1 3 2 t 2 2 2 9 B 9 5 2 1 2 t 7 2 2 9 w 5 4 t 4 4 5 i 4 O ",
"+ 4 4 5 t t ~ t 5 1 e e e e 0 0 y l e n n e e e e e 0 0 l n e M e e e e 0 0 7 e y e e n 0 e e e e 0 0 e e G % + + t + 5 4 5 4 5 ",
"' ] ] $X=X#X*X#X%X~ q l x m k k z k g g k x z l m l k z l k k k x m k l x k k z k z k k x z k m x l z z l l - 1 1 5 O 5 5 O 4 5 ",
"wXeXwXZXeX=X%X*X0X[ 7 z 0 9 3 9 6 9 2 6 9 4 3 9 w 3 3 6 7 7 7 3 6 6 6 7 7 : & & 6 6 2 2 6 0 6 9 7 6 2 > z ; o.eX9X=X*X%X%X*X9X9X",
"qXwX=X*X%X*X%X,.%XD 8 x 3 * a a 0 h s s j j j j j j a e w t w w p p Q Q ~ { / ` Q y B W w w w w w w 3 - l ; -.KXAXAXAXAXAXAXZXZX",
":.$X$X%X$X*X=X$X:.B 8 k 2 d t.V.x.N.2.t.2.i.i.2.0.i.i.b.*.*.$.$.`.rXmXmXmXmXmXcXrX(.jX-X*.$.$.$.*.&.;.p c > [ 0X9X=X%X*XqX9X%X*X",
">.%X%X$X$X#X%X%X#XB 6 k * z.iXCX%X].y.a.a.g.g.a.t.g.g.C./.).-Xn.aXHXHXHXHXHXHXHXHXSXFX7XW.W.S.;.S./.D.w k 8 / $X#X$X/.$X$X$X$X$X",
">.,.>.$XD.#X#X#X%X^ q f 9 -X<.;.(.H.i.u.a.u.a.a.t.u.g.Z.`.W.>X:X8XDXHXFXHXFXDXSXmXFXFXFX5XW.S.W.W.D.[ ; k 7 / %X#X>.$X$X$X$X>.>.",
":.,.D.#X%X>.,.,.>.! 0 f e $._ { o.A.i.i.a.u.p.a.y.p.s.@XcXcXMXHXnXjXSXHXHXHXFXNXMXGXHXJXGXSX,X!.!./.&.2 g q ! %X%X#X:.,.>.>.#X>.",
">.>.#X,.:.,.-.,.#X! 0 f 4 u  ._ [ x.s.i.i.a.y.d.p.d.d.+XjXGXMXzXaX,X&X&X`.rXHXmX4X&X4X7XmXSX7X`.!.,X4Xw f 0 { #X:.:.-.:.>.#X#X$X",
"#X>.,.,.,.,.,.,.=.M 0 f 2 y _ ) (.%.e.y.i.a.i.a.a.p.g.}.yXFXDXBXVXxXnXsX_.*.U.U.*.,X7XsXsXsXrX8X7XmX4X9 > l B ,.>.$X$X$X$X#X,.,.",
"1.1.[ ] 1.-.-.1.-.Q l g 3 y ! ;.uXv.P.p.i.i.p.y.p.u.g.uXbXMXDXGXGXBXFXHXGXBXhXcXDXGXGXGXDXDXDXSXmX>X%.2 8 k B ,.:.#X,.#X>.] ~ ~ ",
"i i 4 i Q { 1.:.#X! 8 z 3 y / 7X+XOXP.k.0.0.p.y.p.t.a.iXcXbXDXMXBXBXDXVXFXGXGXGXNXhXlXNXDXDXFXjX5X5XS.7 f 0 n 1.] ' ' Q t 1 5 1 ",
"+ O . O < p W { ' y e l 3 y / (.OXOXC.N.i.t.p.t.p.t.d.kXhX6XNXDXBXBXFXlXbXVXDXDXvXuXdXcXMXMXcXnXnXCX`.7 f n 2 4 4 4 5 O X X . . ",
"O + O O . O 5 p 4 3 e k 2 u / Q Z.OXP.z.5.t.t.y.t.y.g.oXdXvXbXbXVXxXxXlXxXVXBXBXVXbXkXhXNXzX8X8X5XpX4X9 f 0 @ . . . . X X X O + ",
"4 , + O , O O O + 2 l z 9 y ' D } Z.j.+.J k.t.f.f.d.d.{.yXBXBXzXkXfXxXDXBXBXMXBXVXVXvXtXjXzXsX8X5X7X).9 f n $ . O O O . O + 1 5 ",
"-.' t + t +   . X @ c k w *.` ! B } Z 7.S.G.0.t.t.y.h..X3XtXcXcXhXcXVXMXMXBXBXVXVXVXcXhXcXnXMXNXjX{.*.2 k k - + + 5 5 + =.*X*X%X",
"0X0X=X] { i 5 , 1 ; e z 9 &X5X/ 9 U +.b.<X-Xz.t.f.f.P..X X2XhXNXbXbXMXVXMXBXMXNXvXbXxXxXzXzXcXzX7X>X$.% k 0 M 4 . t 5 ' =XwX=X=X",
"0XwXeX0X=X%X%X9X0X{ 7 k 5 /.nXo.6 I T v.{.4X_.z.f.d.P._.:XvXhXzXcXcXcXMXMXbXcXbXvXvXxXhXaX6X6XjXlX7XD.3 z 8 B 5 O 1 ~ 9X,.-.-.-.",
"%X$X$X%X9X=X=XwXeX[ > f 2 &X-XB y } Z v.].%.8X`.q.a.P.:XdXdXhXxXbXkXxXvXvXbXlXbXbXkXxXxXhX2X>X5XjXmX).4 l e 2 O O 4 =X0X$X-.-.-.",
"#X$X,.-.,.-.-.$X%X! > l 1 *.S.M t } Z X.}.H @.,XG.s.OX:XXXdXzXcXzXkXkXfXvXlXhXfXvXvXkXvXhXdX.X:X8X7X&X7 f l - O . ' eX=X,.,.-.:.",
",.,.-.-.-.1.] :.#XF 8 k 1 p <.^ e Z Z } }.D.3 %._.b.V._.:XdXhXcXfXfXiXtXyXyX3X5XfXfXaXfXdXdXdX X-X7X/.w k l - . . =.0X$X-.%X:.=.",
"-.-.1.=.:.-.=.=.,.V 0 k 2 3 @.^ u X.C U '.{.e ! {.v.r.oXaXdXkXfXtX6X<X{.{.{.3XfXoX2X6XdXfXdX6X3X<X7X/.7 0 l 1   . ,.9X$X:.$X:.[ ",
":.,.=.1.1.=.=.=.-.B 0 k 2 1 / M ` D.v K m.{./ ` <Xb.E 3X6XfXhX6XyX-Xz C x.C b n.{.XXdX3XdXdX2X5X6X{.;.9 f k %   . -.ZX9XU.,.:.=.",
"=.] =.=.=.] =.-.-.M q g 9 3 M M &X].v N #.'.c.;.2Xx.S oXaXfXtX6X2XX.R I z 6 $ N ^.^.3X3X2XaX3X1X7X>X*.3 f c $   . ,.ZX$X#X,.-.-.",
"-.,.,.,.-.:.:.,.#XQ 7 k 4 %.@./ pX{.J x T m.{.,X:X5.E <XaXaX3X6X&.z.@X+XZ $ 2 r Q.^. X3X X3X2X6X5X7XS.; k c %   o #XwX-.=.>.:.:.",
"-.-.=.1.=.=.=.=.1.B l f 2 S.kXyXuX<XX.k L l.'.6XV.2.r.iX2X1X6X2X#.M.+X+X+Xz.I l Y.Y.!.XX^..XaXdX2X>XW.9 8 N +   + %X=XQ t i Q ' ",
"Q ~ ~ Q Q i i W i 9 l 8 3 n.lXvX<XuX{.k K T D.;Xe.2.~.7X:XoXoX|.n.z.R r.r.7.R L Q.!.Y.^.1X:X6X6X1X1X!.7 8 n % . + { W + @ + < 4 ",
"O @ + , < O . o O & n 8 ; X.kXkX<XlXG.f m Z #.{.C.q.oX.X_.XX^.Y.B.B.B.R.R.z.M.#.Y.T.^.1X6X X X:X.XtX).7 f N % O 5 @ .   . . . . ",
"@ O X O . X + O . 1 N e % 3.I.oXuXlXpX..k C T M.'.}.>X)._.^.&.U.M.V.OXR.R.OXM.M.Y.^.1XXX^. XY.^.2X6X).7 k e 2 1 1 + , + + O O O ",
", i 1 O 1 O @ + . % n k 2 d t.0.w.OXiXZ.v k C X.M.T.oX^.^.Y.&.Y.Y.V.R.b I R.M.~.^.XX^.Y.Y. X_. X6X3X!.p g e 1 , + 1 i i , , 5 5 ",
"5 p 1 t p t t Q W 9 l l 1 d f.0.0.i.u.i.E 7 6 I l.l.T.{.E.n.!.Y.Y.B.V.B.B.B.T.^.^.Y.Y.U.*.^.3X:XXXdXQ.7 g 0 M 1.1.,.-.W + + , t ",
"W 1 ' *X$X$X%X*XqX/ 7 k 1 d 0.9.f.h.h.f.A z = z I T l.'.}.~.Q.Q.^.m.7.B.N.r.^.^.T.Y.&.T.|.|.oX3XXXaX^.w f 7 [ ZXZXeX,.t O + O 5 ",
"Q t %X=X*X:.:.$X*X' 8 k 2 A 0.2.9.4.4.9.E I A & f P T c.M.~.T.m.~.B.R j P m.|.^.|.^.^.|.|.|.|.aXoX3X^.p f 7 o.ZXZXwX=.4 O X + + ",
"4 ~ =X*X-.:.:.,.>.! 8 l 2 j e.5.A 8.9.e.8.j w.z 2 h b l.l.l.R L c.M.X.P R #.^.oX.XoXXXXX|.|.|.oXoXaX^.p k 8 F $X$X>.=.i + . + < ",
"4 Q 9X9X1.1.#X,.#X! q z 2 A 5.S E 4.e.s.q.a w.w.& ; v T #.l.| U M.| b K L R n.{.:X,X|.^.|.^.|.oXaXhX|.3 f 0 B -.=.{ 1.Q + . + 1 ",
"t ~ =X%X~ ] ,.#X$XB 0 x 9 v j S 4.4.9.i.e.q 8.g.A + v b X.X.X.z #.Y T P K R n.&.T.'.XX X{. X2XtXfXkX^.; k 8 B :.-.=.-.Q O o + t ",
"4 ~ *X%X1.:.>.U.$X! q g 9 V j S 4.9.9.i.s.v S d.w.& f v } x.| x T X.#.J R #.l.l.l.c.m.1X6X6XhXlX3X^.L $ k > B ,.:.:.-.Q O . + 4 ",
"1 ~ *X%X,.$X$X$X$XD 7 k 7 $.v.S 6.q.k.q.4.v v w.I.j : m U O.X.l K X.X.U l.c.c.c.v.#.R ~.tX3X X*.L L K $ k 0 D >.>.,.,.i . . + i ",
"O Q %X,.{ ,.$X$X$XF > k 2 ;.7X5X;X<X5XiX6.j h 3.k.S : m Z | O.U z x.X.U x.c.c.c.X.I b X.T.L L @.*.*.L ; k r D $X>.,.-.4 X X 1 Q ",
"+ 4 ~ t 1 4 Q { ~ y l k 3 H (.4XyXjXpX4Xk.5.0 5.S S q Z J U O.+.G #.X.} x.n.v.R | C k U #.E.&.S.Y.!.*.; f 0 ! $X#X,.=.1 X . 1 4 ",
"< 4 + . X X X O + ; n k - G (.8X7X-X;...+.e.g 5.S V g H U Z +.U 8 O.X.} %.c.b.#.} m g C K G.!.!.E.!.@.; f g ^ $X,.>.] 5 X . < + ",
"< i 4 + O O O .   @ n f ; *.jXyXF.O.....} 5.g V ) H q C U U U U ! ..+.Z O.c.c.R R Z 7 0 h x.).E.!.Q.%.; f 0 Q ,.=.,.-.4 . . + 1 ",
"4 t 4 1 W 5 4 1 O % M k 3 @.,X>X<X-XD.D.O.} m H O.} g m U Z Z } ..7 } V O.x.X.N.V.B.I 2 Z '.~.~./.~.c.> f 7 F =.=.>.>.Q O o O 1 ",
"t 4 , O t t W 4 5 9 e x 4  .n.!.(.[.A.A.%.L.+.V H.O.g m Z Z Z T +.M k m X.X.z r.B.N.z.P v ~.U.}.}.'.x.= f 8 ! %X>.#X>.i + . + < ",
"t < 5 4 4 t 4 1 + 9 k l 3 D H  . .b.L.A.A.L.b.V K.A.m g Z I J U U J 2 N Z ) m 7.N.E 7.m.j.O.H.'.+XiXb.= l e w ] -.-.{ 4 O X O 4 ",
"4 Q $X%X#X-.' { W 3 8 z 2 r  . .$.A.;X;XH.L.].m K.L.m n z C Y P } N 7 N V n m m E b E R X.#.x.m.<XuXF.* k e 1 5 5 1 < o X . + 4 ",
"t $X0X0X9X9X%X%X9X/ > k 1 G %.F.F.H.-XD.H.b.&Xn b.J.m m m g J C J } x 0 m H m n 8 8 P K K } } c._._.G.* g l @ . X     . o O 5 4 ",
"4 *XwX=X%X*X*X$X$X[ 8 h 3 / A.S.(.K.]./.;XH.;X) j.K.V n N m N K J ..J M M K G G c ) m N G K J | ;X;Xn.* z n @ . o . . O + 5 4 i ",
"1 %X9X>.:.-.] ] { y 0 g 3 H D.D.G.J.[.-XL.b.;X..} A.0 0 r c n V H K K H F M G D G F.H n M H x X.[.[.%.& g l % X o @ O + + 1 4 Q ",
"p ,.*X,.-.:.=.{ Q 9 n f 2 G F.K.F.(.G.H.H.D.K.o.H ..e y r w e r H G N n N D w u  .D.#.M e c x S.~.{.&.* f n t ~ Q ] -.-.=.Q i W ",
"t =.*X-.=.-.-.-.] y n f 2 H D.].'.A.'.].K.A.D.A.m m m B u y D y ;.E.G u M u u w  .F.F.%.( ` *.].D._.%.$ 8 6 $.ZXeXwXwXZXeX:.1 1 ",
"t >.%X:.1.] =.,.#XB 0 g 3 ) G.F.].G.G.(.H.;.K.O.B B C V ) ) K G /  .u D u w w u _ @.D.D.S.%.%.S.X.;.%.% g 7 o.eX9X=X*X*X=X1.O O ",
"i $X*X:.-.1.' 1.,.B 8 z 5 } H.%.D.].].G.D.K.(.D.V n V Z ) H ( L G F ^ F F G D D ^ ` %.G.F.@.S.G.S.@.@.> f l F ,.:.=.=.-.-.t . O ",
"4 $X=X>.-.=.1.~ ] y 0 g 2 ) K.;XD.A.G.A.D.H.K.D.V n M ) H / / ( ` / ) / / ^ F ^ D / o.D.F.*.v.~.~.;.^ ; k 8 B :.-.-.1.-.-.p . O ",
"i #X%X-.-.[ ] ] ' y 0 m 2 ) K.&XH.o.} ) <.O.O.o.V D V ) ..) / ! / / ) / ` ` F D D `  . .` %.F.G.(.v.G ; k 7 D :.:.>.>.#X-.4 o o ",
"4 >.%X=.-.1.=.=.-.i 8 x 3 0 %.D.o...o._ ) O.[ ! y F V ) ..) / ! ! ! F F / / F ^ D ^ _ ` ` $. .$.S.%.G $ f 0 B >.:.-.>.,.~ 4 O O ",
"t =.%X=.1.-.-.-.:.n 8 f 2 O 2 2 2 2 6 4 4 4 3 2 % & 6 6 2 7 3 2 2 2 - % 1 - 1 1 - - 3 - ; w r ; 3 ; @ # x e 9 i t t i 4 , 5 + . ",
"4 1.%X-.1.1.-.=.-.u 7 x q = = : > : : : = = = = : : > > > = : : = = : : : : > > : : : = ; : : : : : : 8 N l $ o O O . O O O O . ",
", ' -.' ~ ~ Q Q ~ 9 n l z m m m N n l l m n m x x x l N x n m x N z c x l c z x x c N m x c l c l l N M k n @ X O . O O O O . O ",
"1 i Q t 5 1 + + + % n 9 0 7 7 0 7 7 7 0 e e 0 9 7 6 7 7 9 9 7 9 e e 0 w 7 7 7 7 w 7 7 e e 0 w e 7 7 8 7 9 0 - , O 1 t O 5 1 + + ",
"5 < 5 + o . . . . o . o . . X X O O 1 1 O . O O o . . @ . o o @ X o O o # o O % @ . O 3 1 % @ O + + O O + 4 4 + O i p + 5 t t t ",
", O . . . @ O o O @ + , 1 + @ O 1 1 5 , 1 1 + @ O + + O o O , + O 1 < 1 < 1 1 5 + 4 1 5 5 5 4 O + + 5 < + 1 5 5 + i 1 5 4 5 i 4 ",
"+ @ @ + O , < + , 1 4 + 4 i 1 p t 5 5 @ i 4 + + 5 4 4 4 1 + 5 4 1 4 t 4 < t i @ + 5 4 4 1 5 w + + + 5 5 5 + 5 i 5 , , W 4 1 t + "
};
