/* XPM */
static char *result[] = {
/* columns rows colors chars-per-pixel */
"64 64 154 2 ",
"   c #1D180E",
".  c #1D1C16",
"X  c #1E1D1A",
"o  c #221E16",
"O  c #211F1A",
"+  c #1F2212",
"@  c #252116",
"#  c #2B2415",
"$  c #252917",
"%  c #2C2A15",
"&  c #24221C",
"*  c #29251D",
"=  c #262A1C",
"-  c #2B2C1C",
";  c #332716",
":  c #382717",
">  c #332B16",
",  c #3B2C15",
"<  c #342D1A",
"1  c #3A2D1A",
"2  c #25301F",
"3  c #2C321C",
"4  c #353316",
"5  c #3B3317",
"6  c #34331C",
"7  c #3A331C",
"8  c #333A1C",
"9  c #3B3A1C",
"0  c #252421",
"q  c #282721",
"w  c #272923",
"e  c #2A2A23",
"r  c #2B2B28",
"t  c #322D24",
"y  c #2B3321",
"u  c #2F3923",
"i  c #333621",
"p  c #3B3621",
"a  c #343B23",
"s  c #3B3B24",
"d  c #343E29",
"f  c #3C3D29",
"g  c #432B1A",
"h  c #492F1A",
"j  c #453215",
"k  c #413917",
"l  c #4A3B16",
"z  c #44341C",
"x  c #4C351E",
"c  c #433A1D",
"v  c #4B3C1E",
"b  c #51341D",
"n  c #523E1C",
"m  c #423722",
"M  c #4A3620",
"N  c #443B23",
"B  c #4B3B23",
"V  c #423C29",
"C  c #523720",
"Z  c #523C24",
"A  c #5A3C23",
"S  c #533E2A",
"D  c #583E2A",
"F  c #3C411D",
"G  c #3D4224",
"H  c #37402A",
"J  c #3C4329",
"K  c #44441E",
"L  c #4C431D",
"P  c #52411D",
"I  c #52491E",
"U  c #444324",
"Y  c #4B4324",
"T  c #444924",
"R  c #4C4B24",
"E  c #43442A",
"W  c #4B432A",
"Q  c #444A2C",
"!  c #4B4B2B",
"~  c #534325",
"^  c #5B4524",
"/  c #534B25",
"(  c #5B4D26",
")  c #53442A",
"_  c #5A452A",
"`  c #544B2B",
"'  c #594B2D",
"]  c #4B5225",
"[  c #475128",
"{  c #4D512C",
"}  c #535127",
"|  c #595027",
" . c #53532C",
".. c #5B532C",
"X. c #57592F",
"o. c #5B5A2E",
"O. c #4E4630",
"+. c #464D31",
"@. c #4B4D31",
"#. c #574730",
"$. c #5C4730",
"%. c #554C32",
"&. c #5C4B31",
"*. c #475032",
"=. c #4D5234",
"-. c #535432",
";. c #5B5433",
":. c #545C35",
">. c #5C5B34",
",. c #535739",
"<. c #535B3D",
"1. c #5C5A3A",
"2. c #634627",
"3. c #624C2E",
"4. c #63542D",
"5. c #675F2E",
"6. c #6A5B2B",
"7. c #634D33",
"8. c #6A4F34",
"9. c #635334",
"0. c #695532",
"q. c #635B36",
"w. c #6E5C37",
"e. c #63543A",
"r. c #635C3B",
"t. c #6A5B3C",
"y. c #566037",
"u. c #5B6235",
"i. c #57613A",
"p. c #5C613F",
"a. c #626233",
"s. c #606837",
"d. c #6A6837",
"f. c #63643C",
"g. c #6E653C",
"h. c #65693C",
"j. c #6C6C3E",
"k. c #74623F",
"l. c #595840",
"z. c #6A5B41",
"x. c #656341",
"c. c #6B6240",
"v. c #6B6B43",
"b. c #666B49",
"n. c #726542",
"m. c #746E42",
"M. c #7F6C43",
"N. c #677046",
"B. c #6D7141",
"V. c #757845",
"C. c #7B724C",
"Z. c #727B56",
"A. c #857945",
"S. c #83744A",
/* pixels */
"` @.%.;.9.%.Q @.V U @.;.;.q.r.r.>.<.! H ! R ! J ! E E N -.Y E ` / %.-...9.%.Q ! N E ! ;.;.e.f.r.>.:.! J Q ! ! U Q Q N N -.Y U ! ",
"2.;...0.k.c.m =._ e.%.7.7.9.0.3.q.q.Y -.) >.u.q.t.` ) ~ _ 7.e.3.2.,...0.k.c.m -.D e.%.9.3.9.0.3.e.q.Y -.` o.u.q.t._ ) ~ ' 7.r.3.",
"l Y L Y | ..< ,.M S c W v Y ~ _ Z ~ 8 %.R } U N B B _ M S B S v x N K L | ..1 ,.x S c W v Y ^ _ B ~ 9 =.Y { G B B N ` B S Z ~ v ",
"h N v | P _ 7 =.h Z N ! v B Z v v v 6 =.{ X.] R S B Y B ) W ~ z h B v | P _ p =.h S N ! B z ~ v v v 6 =. .X.] R Z S B B S W ) z ",
": < 1 z , 1 = +.W p 6 1 7 - > 4 7 # 3 <.9 6 F 9 5 p 1 < # 6 m # ; < 1 z , < = Q W p 6 6 5 - > < 5 % 3 <.9 6 F 9 7 7 < < # s p # ",
"p < 6 f V s s E Z.b.@.f m V f p p E %.x.Q a f p p J a y 9 J Q N 7 < p V V f s E Z.b.@.f p U f p p E %.x.E a f p s J a 3 p a E N ",
"A ) ;.z.t.f.e.U <.r.r.9._ %.' 3.8.t.9.k.V.B.h.e.%.x. .i S ..S.9.A ) %.z.t.x.e.N <.r.1.9.$.%.&.3.8.t.8.n.V.B.h.9.&.x.=.a S ..S.e.",
"b ) W S _ ) _ M f W -.%.#.! C C C z B ..-.:.[ B C U U a B ) / M b ) W ) _ ) / B f S  .%.%.W Z C M M B ' :.-.{ B x Y U 6 B ) ( x ",
"C ) N S %.) U m J W U R W E #.S M Y ) ~ Y E Q B B 9 9 a v ~ v x b #.N S %.` Y m E W Y R W E #.S x B W ~ U R ! B B 9 9 s v ~ v h ",
"1 7 1 7 p s 5 % l.1.4 9 < 6 6 1 1 7 > 7 U U G 1 1 4 - +.N z 4 4 1 1 < p p 9 6 # <.l.< 9 - < p 1 1 9 < 7 U G G 7 , 3 - +.N k 5 < ",
"f f E E f f f U ,.r.@.H J f Q =.E p 3 s G G J p J U =.x.1.U 9 F H f J E s s f E >.r.Q H J s J =.W p 3 s G G f p U J =.x.1.K 9 J ",
"P / y...( / >.^ A _ -.! ` s J 1.7.e.7.w.m.`  .g.M.r.r.' Y / 5.R n ( :...( / q./ A _ -.{  .6 *.1.&.e.7.w.m.` -.g.M.r.r.%.Y / 5./ ",
"n Z { X.~ R [ 9 Z N T 8 z j J Q S %.! _ ` R B C ;.-.R S ~ l I k B ~ -.X.~ / ! 9 S B T 8 z j J O.B %.` _ ` R M M &.1.W Y ~ l I k ",
"B _  .( B / ! B D B U G Z N a Q S B W _ ) >.Y z S  .z N I I L 5 B ^  .| v / E B D B G J P N a Q S W W _ / 1.Y M ~  .v N I L L 5 ",
"7 1 7 F c k U m 6 ; % 6 5 - a J 6 N 5 1 f Y 9 < 7 U % % 6 4 6 5 7 1 7 9 c 9 K N < ; # p 5 # a J 7 N 5 1 f Y 8 < m c % % 5 4 4 4 ",
"f f p 6 i =.b.@.Q W -.=.V E =.-.Q Q ! Q @.=.*.E a 6 a 6 % % 4 9 f f s 6 8 =.b.@.E Q -.@.E E -.=.E Q Q Q +.=.@.E a 8 8 6 3 % 4 p ",
"D N B / R f ,.B &.@.1.{ %./ ' e.&.q.e...J y.u.d.q.>./ %.Z L d.4.S m L / ! f -.S $.` ;.=.%.) $.q.&.q.e...J y.u.d.a.o.) %.Z L a.0.",
"D ! K R ~ i E M B m s U N M z Y v Y Y 7 8 [ T R 9.;.D $.M P | P A ! K R ~ i E x N s G U B m z Y Z T ~ 4 F [ J ] o.;.D $.x P | P ",
"C ! ~ ~ v a J C C B N U M ) _ M B ;.~ 9 8 F ] 5 / $.z S _ l I P C ! Y ~ B a J C C N U V x ) ) M B ;.~ 9 3 F T 9 / $.M Z 3.l I P ",
": % % ; # 3 *.p ; < i 6 < y p t c W 7 % F G F 4 6 < # ; 7 4 4 4 ; # % ; # - *.9 1 1 6 6 6 3 p 6 c W 7 % F G F 4 6 < # > 4 4 4 4 ",
"J N G Q E @.p.E s +.Q Q N s 5 f <.+.6 Q y.i.J { X.{ W Q R { T U E p U E J @.p.E f ! Q Q N p 7 G <.+.6 Q i.i.H R X.=.Q W Y { T U ",
" .`  .:.x.c.j.;.B ;.q.u.;.q.3.p H R ' v.i.u.:.q.g.g.C.n.^ 6.A... .'  .:.f.k.v.;.B ;.q.r.' q.7.p H Y ' v.h.s.;.q.g.g.C.n.2.6.A...",
"v / { Q 1.1.j.:.v v } } Y Y 3.m 2 U Y T F ! R ) ~ W e./ j l ( 4 c / { Q >.1.j.X.B l } } / Y 3.m 2 U B T G R R W ~ Y 1./ j l ( 4 ",
"j / :. .q.>.} R ~ l X.] ~ v _ z - F ` { [ :.` Y k ` ` ) v L | 7 j } -.-.f.>. .R Z K  .[ ~ v _ z 3 F ` { [ :.` W k / ` ~ x L ( 9 ",
"> 9 E !  .` F k g k F 8 Y Y z % 3 G U ] G K ] / L T R z 1 l T % > c W !  .` K 9 h 9 9 9 L U B % 3 G U R G T ] / B T T v g l U % ",
"- $ - 6 - 6 f 6 6 ! s 3 % 3 3 - a J 3 3 3 $ F 8 - $ $ $ + + % 6 = $ - 3 - 3 a 5 6 @.G - % 3 - - a G 3 - 3 3 8 8 % - $ @ + + 3 3 ",
") Q ! ;.%.@.' 7.N =.{ ! U / 4.r.t.q.q.d.u.N.T 8 u E ) , 7 R o.9.) Q ` %.%.%.' 7.N =.{ Q U / 4.r.f.q.d.d.u.N.T 8 u Q ` , 7 R o.q.",
"^ ` U %.e.W Y ..M 3 U Y / Y _ e.1.>.q.>.u.>.R 3 8 G } ~ L I .. .~ ` U ..e.W U ;.M 3 U W R R ^ e.q.1.>.o.u.>.K 3 a 9 ` ~ L I | | ",
"^ ! c ` -.%.W ` g 3 Q ) Z c z S Y R 1.>.X.X.o.3 2 9 ( 4.^ l } / ~ ! c ` 1.` B ` g 3 E $.n N m S Y O.1.>.X.X.X.8 3 c ( ..^ l } / ",
"Z Y K ;.' 7.W ) g a W ) j N S ~ C V Y :.} } [ $ 3 9 ~ ..4./ } ..Z Y K ;.' 7.) ) g 8 W ) h 9 S ~ M N Y >.}  .[ $ 2 7 ^ ..4./ }  .",
"1 6 5 N g 7 1 : # J Q p - - 7 a 1 - 6 G G 8 8 = 3 3 5 6 5 < 4 7 1 6 4 N g 7 1 < - J Q p - < a 7 6 3 6 G G 3 6 = 3 3 6 4 7 - 6 7 ",
"y y y e a u i y H J Q d d f H a y y 2 = 2 u u u a y w y y 2 2 y y u e y u u i y H J E H a d H u y y y + y u a u a u = y 3 - y y ",
"y q 0 0 = e e r q 0 0 q r w r w w w 0 0 q 0 0 r r w w w w q e 0 e = 0 & w e e e r & 0 0 e w e w w 0 0 w 0 0 0 w w w w e q q r q ",
"q X o O & 0 & O o O O * & q & O r o * t * & O O X 0 & w r r q X - X o O * & 0 + O O & & & q 0 & r X * q e & @ 0 X w & e q r q . ",
"- @ o @ & 0 O & & & O 0 * e * q r O q * # * * o 0 & * 0 & 0 0 O w o @ @ 0 X & & @ & & & 0 q * * r @ * q # # * O 0 0 & 0 0 q & O ",
"r O o 0 0 + & q 0 0 w 0 * r * & t & O & e # * o 0 o & 0 @ @ & q e @ @ & 0 & 0 0 0 0 w 0 e e q * r * & & q # o @ O O & 0 & O O q ",
"i & & * q 0 & 0 & & q * & r r e r & & O O * o & O o * O * o * * r & * * 0 & 0 & 0 # q q * r r q e & & X O & o & * o # * * * * * ",
"r o & o O & & & * * * * 0 w 0 q q & @ X O O 0 & & O o o o * o & e O @ o @ & & 0 & * * * & r 0 0 e & X X O & 0 & o o o o o o o O ",
"r O * o o & * @ * * * # & e & - w X X 0 O 0 & & & O o o @ & 0 O e & & o @ & & @ * * q @ * q & & q X O & 0 & 0 & O O o o & @ & O ",
"r O o o o # & * @ & X . O @ O @ e X & 0 e e & 0 e & o # O 0 0 O e X O o o # & & @ & o X o @ O o y X 0 0 q e & q 0 0 O * & 0 0 o ",
"- . X O O o O O O O O . . O   o = X 0 & 0 q @ 0 0 0 0 0 O 0 O 0 - . X O o o o O o O O o o o o o - O 0 & 0 q & & 0 q 0 0 O 0 O & ",
"$ . 0 0 w & o O o O o o o O O @ = & & @ @ * * O 0 q 0 & O O O 0 $ . X 0 e & O O o O . o O O o o * o & & o * O & 0 0 0 & O O O 0 ",
"q o 0 0 & 0 0 O O O . O o O O O & @ * & @ & o O 0 0 0 0 O & O & e O 0 0 0 q & & O & . . o O O O * @ : & O * O O 0 0 0 & 0 O O O ",
"r & & & & e q O & O O O o O O O - @ @ @ O o & & * 0 O & & O O q e 0 0 O O e q & 0 O X O O O O O q @ o o o O O & 0 & O 0 O O O 0 ",
"r e * & * O o e 0 O & O O & 0 0 # O * O 0 O X 0 * o O & O O w 0 r e * * * @ o * 0 O * O O q 0 & - @ & @ 0 & X O * o o O o O 0 0 ",
"t e t t q o * * 0 0 * * 0 & 0 + r & O & & 0 X O * * * & O 0 0 + e q t e q & o 0 q O O * 0 O 0 O w & & & & & O 0 * * e 0 & 0 w O ",
"q & t * & & O e 0 & 0 & o O X 0 w & & & e * 0 q t * e r w r & & q * t * & & & e 0 0 O * o o & O w X & & e & O t t o e r q r O O ",
"t * * t t 0 O & 0 & q q 0 w X 0 0 0 0 & & & O & * & O q 0 q 0 0 * * * t e & & 0 0 0 q q q e & 0 w 0 0 & & & O * * * O q q q w 0 ",
"e & e e e O O 0 q q e 0 0 q 0 O 0 o O O O & & & * * o o O 0 0 0 t q q q e 0 O & 0 q 0 q 0 e w O w X 0 O O & & * & @ o O O O w 0 ",
"q & q * e & O 0 0 0 O e t e e O e o O O & 0 & O & O @ 0 o 0 0 0 0 O q q * q O 0 0 q O e q r e O 0 o X X * 0 0 O & @ O 0 & 0 0 0 ",
"r & e r w & & O 0 0 0 * * q 0 O e O o & * & & O 0 X X 0 o 0 0 0 e O q r e O o O 0 q * * * & & & q & o & & O 0 & & 0 X 0 o O 0 0 ",
"r 0 0 r r q * @ O o O 0 O o 0 O r O * o * O 0 0 0 0 X O . @ 0 0 r q q r r e * & O O O e O o 0 & r o O & & o 0 0 q O X O X o 0 0 ",
"q @ e r w 0 * & O o o 0 & o * O w O & * * & 0 0 & O O & O & * & q & r w e 0 0 o O o O 0 0 O O & 0 @ & * * @ w 0 0 O X & O & & O ",
"r & & 0 O & 0 & & o o & 0 O o & w & 0 o @ & O q & O O O 0 & & & e O & 0 0 O 0 & O O o O & & o & r & 0 @ O & O q & X O O 0 O & q ",
"- o & 0 0 & & & & o o O 0 0 O 0 w O o o X O 0 & O O O O O * & * * O & 0 & 0 0 & & o o * 0 O O O w @ & o O O O & o & O & & * & * ",
"q . @ q q q * & & o & & O q O O 0 X O X X . O O o & O & o & o o e o o * * e * & o O * O 0 0 O & 0 X X X . . O O @ @ O O o O o o ",
"r O & ; & # e @ & O O & & & & & w X X . . o O & o * o @ o o . @ - O & * * ; * & & O O 0 O 0 O O w X X o . O O & & & o o o o o o ",
"e O & o # * # * 0 0 O 0 0 & 0 O r X X o . X O O O # o o o O + & r O O # # o * * & 0 O 0 0 O 0 0 r X X o X X O O o * o o o o & @ ",
"e @ w @ # O * e 0 0 0 O & O X O q O w & O & & O & * o o o O O & - O w @ o O * e 0 0 0 $ & O X O 0 & 0 & O & & & 0 @ o o o @ X + ",
"e & o & O O & 0 e q q 0 q & O O r q w 0 0 & q & & O O O O @ O = - & O & * o * q 0 q w q 0 & O O r 0 q 0 & 0 & & O 0 o O o o 0 0 ",
"3 @ 0 X 0 X X & q 0 q & 0 0 & O q r q * & & * & 0 0 0 O @ 0 & 0 q O 0 0 & O X O & 0 q & 0 0 & & w r - * * @ * q 0 0 & O @ & & * ",
"- * 0 0 0 @ X @ * * * 0 0 . O O q e - * * & # * 0 0 0 0 @ 0 & - - O 0 0 & 0 O O * q * 0 & X + & q q e * * & # 0 0 0 0 q & 0 & = ",
"e & 0 0 0 * * r - & q - 0 & 0 O r * t - * * & q 0 & 0 0 @ & & & i 0 @ & e & * e - * - w 0 @ & & r q - * * * & q 0 & & q O O q & ",
"= . o o @ @ o o o o & & & & O X $ X & & & 0 & 0 o # o * @ = @ . @ . @ @ o @ o o . . & 0 & & & . & o * & & * & 0 O o * & @ $ @ . "
};
