/* XPM */
static char *result[] = {
/* columns rows colors chars-per-pixel */
"64 64 136 2 ",
"   c #080906",
".  c #0B0B0C",
"X  c #0E0E11",
"o  c #141415",
"O  c #181317",
"+  c #1C1B17",
"@  c #131219",
"#  c #1E1E1D",
"$  c #271A14",
"%  c #2C1A13",
"&  c #221E1B",
"*  c #2B1E19",
"=  c #341E16",
"-  c #292617",
";  c #25211C",
":  c #2A211C",
">  c #34241C",
",  c #302D19",
"<  c #1D2026",
"1  c #262625",
"2  c #282927",
"3  c #2A2629",
"4  c #2C2C2C",
"5  c #352A24",
"6  c #3B2B23",
"7  c #302528",
"8  c #332D2B",
"9  c #3B2D2A",
"0  c #3D3425",
"q  c #30312F",
"w  c #3E3429",
"e  c #292B30",
"r  c #333333",
"t  c #3A3635",
"y  c #343935",
"u  c #36373A",
"i  c #3C3C3C",
"p  c #4B3324",
"a  c #4A3A24",
"s  c #43352B",
"d  c #493529",
"f  c #4B392E",
"g  c #413633",
"h  c #493A35",
"j  c #59353B",
"k  c #673636",
"l  c #3B443D",
"z  c #4B413A",
"x  c #534233",
"c  c #594335",
"v  c #544835",
"b  c #51453C",
"n  c #5E4D3D",
"m  c #604635",
"M  c #694B37",
"N  c #634A3C",
"B  c #6A4F3E",
"V  c #65523E",
"C  c #353346",
"Z  c #3D3F40",
"A  c #343348",
"S  c #493246",
"D  c #42364A",
"F  c #613942",
"G  c #6E3C40",
"H  c #69324C",
"J  c #71324F",
"K  c #3F4241",
"L  c #444444",
"P  c #474847",
"I  c #4F4946",
"U  c #474748",
"Y  c #484749",
"T  c #474848",
"R  c #4B4B4B",
"E  c #534242",
"W  c #534F4C",
"Q  c #4F504F",
"!  c #56514C",
"~  c #5B534D",
"^  c #4F5251",
"/  c #535353",
"(  c #5A5653",
")  c #575D56",
"_  c #5E5A57",
"`  c #565758",
"'  c #575859",
"]  c #5B5B5B",
"[  c #6F4545",
"{  c #734C4E",
"}  c #7A4D4B",
"|  c #6B5140",
" . c #6E574B",
".. c #745241",
"X. c #7A5A42",
"o. c #675351",
"O. c #6E5556",
"+. c #635E5E",
"@. c #705D50",
"#. c #705F5E",
"$. c #61625D",
"%. c #73605F",
"&. c #5E5E60",
"*. c #5F6161",
"=. c #646464",
"-. c #6B6767",
";. c #676768",
":. c #656869",
">. c #6D6D6D",
",. c #70716E",
"<. c #6F6F70",
"1. c #747474",
"2. c #7B7B77",
"3. c #777778",
"4. c #7B7B7B",
"5. c #8C5545",
"6. c #835D48",
"7. c #8A584A",
"8. c #86654E",
"9. c #876350",
"0. c #856955",
"q. c #8D6A53",
"w. c #906E58",
"e. c #94715A",
"r. c #8B7360",
"t. c #7D7E80",
"y. c #7C8080",
"u. c #838383",
"i. c #878788",
"p. c #878888",
"a. c #8B8B8B",
"s. c #949494",
"d. c #979798",
"f. c #9B9B9B",
"g. c #A3A3A3",
"h. c #ABABAB",
/* pixels */
"R T L i L i Z L L i L Y L R R ' / z K L T R U L K L i Z Y Y Y ! ^ L L i L i D z L i Z T L R R ' ( L D L T R Y L L L K K K K U ^ ",
";.a.p.p.p.u.i.i.u.u.p.a.p.a.a.] =.s.a.s.s.s.s.p.a.a.a.a.a.a.p./ =.a.p.p.p.i.u.p.u.i.i.a.a.a.a.] =.a.a.s.s.s.s.p.p.p.a.a.s.s.y.&.",
"r.g.f.f.g.g.g.h.f.f.g.g.g.f.g.,.1.h.f.g.h.h.g.g.f.f.g.f.f.f.s.` 2.g.f.f.g.g.g.h.f.f.g.h.g.f.g.>.2.h.f.g.h.h.g.g.f.g.g.f.f.f.s.&.",
"*.1.1.3.3.4.2.4.1.1.4.i.r.1.,.' ;.1.1.y.p.u.3.4.3.4.u.2.1.1.=.i ` 1.1.1.3.2.3.y.1.1.4.u.4.1.1.' =.2.,.y.i.u.3.2.1.4.r.t.1.1.=.D ",
"^ :.1.1.3.2.3.1.1.1.4.y.t.1.:.R ^ ] >.3.u.2.1.1.<.1.4.1.1.:.' i R >.1.1.3.2.3.3.1.1.4.y.4.,.;.R Q ] >.3.u.4.,.1.<.3.4.1.1.>.' i ",
"C Z L Z D L L K L L R R R K C U T r i L U L Z Z L U T h K Z i u i i l i l L L K K z T R R D u Y Y u Z K U L L i L L U K K i i y ",
"i y i y l z y i i i T U U y q R / z l D i L Z K i i L u u i i K i r u t i i i i i l R L L t q R / l h K i L Z L i i z r u u i L ",
"^ a.d.s.d.d.s.f.d.d.f.g.f.f.p.R =.d.f.d.d.d.d.d.s.s.d.s.s.s.a.R R s.d.d.f.d.d.d.d.f.f.g.f.f.i.Q $.f.f.d.d.d.d.d.d.s.d.s.s.d.i.^ ",
":.f.s.s.s.a.s.d.s.s.f.f.d.s.f.&.1.g.f.d.g.s.a.s.d.d.d.d.d.a.a.Y =.f.s.a.s.s.a.s.s.d.d.f.s.s.f.] 1.g.f.s.f.d.a.d.d.s.f.d.d.s.u.^ ",
"' 4.1.3.t.t.t.y.4.4.y.y.t.t.3.^ ;.i.u.4.p.4.t.t.t.y.u.t.r.3.1.L ! 4.3.2.4.4.4.t.4.t.u.4.4.2.4.^ ;.i.u.t.a.u.4.4.4.y.y.t.t.3.<.R ",
"^ 3.3.3.3.3.y.r.y.4.4.r.t.3.1.R =.u.4.4.u.y.y.t.4.4.y.y.t.t.,.L R 4.3.3.2.2.u.4.4.4.4.4.4.2.1.R =.u.4.4.u.u.4.u.r.t.y.y.2.3.<.U ",
"^ <.1.1.1.3.3.1.3.1.1.1.1.1.<.R =.u.3.3.t.r.t.t.3.1.1.3.<.:.:.L R 1.3.1.1.3.1.3.2.1.1.1.3.1.,.R ;.u.2.2.4.4.1.3.t.1.1.1.<.>.:.U ",
"L :.>.>.1.>.>.>.<.1.1.>.1.>.=.K &.2.1.3.4.1.>.>.>.>.1.1.,.;.=.i L >.>.>.<.>.>.<.1.<.1.>.1.>.;.L ] 4.1.3.4.1.<.>.>.>.>.1.<.;.=.K ",
"R >.>.1.<.>.1.1.1.1.1.1.3.<.>.U =.2.1.3.2.1.>.1.1.>.1.<.1.:.;.L U >.>.>.<.>.<.1.1.1.1.1.1.>.:.Y =.2.1.3.2.1.1.1.1.>.1.1.<.;.;.T ",
"Q 1.>.1.<.<.1.3.3.1.3.1.3.<.>.R ;.4.1.1.3.1.1.1.>.1.1.>.,.-.;.L R 1.<.1.1.1.1.3.2.1.3.1.3.>.>.R ;.t.1.1.1.1.1.1.1.<.1.,.1.-.=.Y ",
"R >.<.1.1.1.1.2.4.3.1.1.3.<.>.T ;.t.1.1.2.3.1.1.1.1.1.1.1.>.:.L R 1.<.1.1.>.1.2.4.3.1.1.3.1.>.T ;.4.1.1.3.1.1.1.1.1.1.>.1.>.;.T ",
"^ 1.1.1.1.1.1.4.u.2.3.3.4.1.,.Y :.u.3.1.3.1.1.3.3.3.1.1.1.<.;.L R 1.1.1.1.1.1.3.t.2.3.3.4.1.,.Y ;.y.t.t.3.3.1.3.3.3.3.1.1.>.;.T ",
"R 1.1.1.3.1.3.2.u.4.3.4.4.1.<.Y <.r.1.1.3.t.1.3.2.4.2.3.1.<.;.i R 1.1.1.3.3.1.t.u.t.2.4.4.1.,.Y ;.r.1.<.1.t.1.3.3.3.2.1.1.<.;.L ",
"R 1.1.2.2.2.3.4.u.t.2.2.2.3.<.Y *.t.<.3.3.2.1.3.4.4.3.1.1.1.:.i R 3.1.3.t.3.t.t.u.t.2.3.2.1.1.Y &.t.1.t.t.t.1.t.u.u.1.1.1.1.:.i ",
"L >.4.4.t.i.t.t.u.u.t.4.4.4.:.L ` t.y.t.t.i.t.y.i.u.4.2.1.3.;.t i 1.t.y.y.y.y.r.i.t.u.4.4.4.:.K ^ 3.t.3.y.y.y.r.i.y.4.4.1.2.=.i ",
"i R =.;.<.>.>.<.<.<.<.-.;.*.T h L ` $.=.:.,.:.-.;.-.;.=.` / T i i R =.;.>.>.,.>.1.>.1.:.:.*.P i U ` =.=.;.,.:.>.:.:.:.*.' / R u ",
"i 2 4 q r r r u u r r r 4 e 4 L L 4 q q r u u t r r u q 4 4 4 Z K 2 4 4 r r r u r r r r q 2 4 L L e 4 r r r u r q u u e 8 2 4 i ",
"=.R L P K z D z L Z Z Z L L R ] =.` Q Q ^ ^ ! ^ R L Q Q T R R ] =.R L L L L L L L L h K D z R ] $./ R R R R R R R R R R L u u ' ",
"u.y.4.y.y.y.y.y.4.2.4.2.2.3.t.p.1.P L D L L U L Y Y Y Y L L L 2.u.u.t.t.4.y.y.4.3.3.t.3.4.4.t.u.p.y.1.<.>.1.1.1.1.<.<.t.r.L 8 1.",
"u.4.u.r.u.i.u.u.i.u.u.u.t.u.u.a.=.R ^ ) R l l l l y y l *.&.L *.p.r.t.t.u.i.u.u.i.u.u.u.t.u.u.i.s.L # 1 1 1 1 1 1 y L 2 >.4 # R ",
"<.,.<.1.,.<.>.>.1.1.<.,.<.1.1.3.=.I ! 2.z - a a p : , 0 ~ ~ ! &.t.1.<.<.<.<.>.<.1.1.,.<.,.<.1.1.4.Z # 1 1 1 1 2 2 / =.2 ;.r 4 / ",
"*.*.*.*.=.=.=.*.=.;.=.=.=.=.=.=.$.( _ >.W I W ~ ~ Q ! ! ) ( $.] *.&.*.*.=.=.=.*.=.;.=.=.=.=.=.=.;.;./ ^ ! ^ ^ / / / / ' 1.;.;.1.",
"^ R ^ ^ Q ^ Q Q Q R / R R Q ^ / / / ` / ' ] ' ' ` ' / / / ' / ! ^ R ^ R ^ / R ^ Q R / R W Q Q / Q W / / / ^ ! ` ` / / R L ' ] ` ",
"K Z Z Z D z L L P L L U T L L R L L P L L Y L Y L L L L L L L R L L K K Z D z K Y L L L Y P L R U i u r u t u r r r r r L L L L ",
"<.g.g.g.g.g.f.g.h.g.f.g.g.h.f.U =.f.g.g.f.g.h.g.g.f.f.g.g.g.f./ ;.g.g.g.g.g.f.g.h.g.g.g.g.g.d.R &.g.g.g.g.g.g.h.g.g.g.g.g.g.f.] ",
"t.f.s.f.g.g.f.d.f.f.f.f.f.s.s.^ 1.f.d.a.s.d.f.f.s.a.s.d.f.s.p.] 1.f.s.f.g.g.f.d.f.f.f.f.f.s.s.Q <.f.s.a.s.f.f.f.s.a.d.d.f.s.i.;.",
"&.<.1.3.p.y.4.3.2.4.2.3.2.1.>.R ' ,.>.,.2.u.t.4.3.1.3.2.1.1.;.R ' 1.1.2.p.u.2.3.2.4.3.3.2.1.>.Q ] ,.,.1.2.u.t.4.1.1.1.3.2.1.;.R ",
"R -.:.1.1.1.2.1.1.>.,.1.>.+.] L W $.:.,.1.1.1.1.1.1.1.2.3.3.:.i T >.>.,.2.1.2.1.1.>.>.1.-.=.] L R $.:.1.1.1.1.1.1.,.1.2.1.1.=.h ",
"r q r r r r r r r r t i u r i i u q u t u r r t u y y r r r r r q r r r r e r r r r u i u u i i u r r t t r u r i i u u r u r q ",
"u 8 4 r r r q q q r r r u u i L i u r r r u r r r 8 r q q r e C u r r 4 8 r r 4 q r r r r i i L z r u r r r r u r i q 8 q 4 r u ",
"^ 4.s.s.d.s.a.s.i.i.a.p.a.a.i.W ( p.a.i.i.i.i.a.p.p.a.a.a.a.t.K R 4.s.s.d.d.s.a.i.i.p.p.a.s.u.W / a.p.i.i.i.i.p.p.p.p.a.a.s.4.T ",
"1.g.f.g.g.g.d.d.d.f.g.f.f.s.d.&.1.g.f.d.d.f.f.d.f.f.g.g.g.g.d.R ,.g.f.f.g.f.d.f.f.f.f.d.s.s.d.+.1.g.f.s.d.f.f.f.d.f.g.h.h.g.s.^ ",
"' 4.y.r.u.i.4.4.4.2.+.+.;.t.2.' ;.4.2.1.4.u.4.4.2.4.p.i.a.t.1.^ / u.t.u.i.i.4.y.t.t.u.4.4.3.2.' ;.y.3.3.4.u.4.4.2.4.p.p.a.4.1./ ",
"R t.y.a.u.a.u.i.i.4.-.} %.t.4.R *.r.3.3.t.u.4.t.2.u.s.i.s.t.1.R T 4.y.u.y.u.4.u.u.u.i.t.4.4.4.W ] 4.2.3.y.u.4.4.4.t.a.p.a.4.1.^ ",
"R t.y.t.1.4.1.1.1.1.i.u.u.2.2.R ' 4.3.1.4.4.2.4.4.4.p.t.a.r.1.P R t.,.` ' / ` ` ^ ] &.^ / >.4.Y ` 4.3.1.4.4.2.4.4.4.a.u.a.4.1.R ",
"R 3.u.L 4 e 4 4 4 4 4 2 L 4.3.L ' t.3.1.3.3.4.t.4.4.u.t.i.4.1.Y I 4.:.8 b z 4 z z 8 t h r =.4.P ^ t.t.3.3.t.4.t.4.4.u.t.u.4.1.R ",
"R 3.4.] i K L i u i t r ] 3.1.Y ` t.1.1.3.3.y.4.4.2.4.t.4.2.1.L L u.>.& [ } + F 6.& s 5.8 =.3.P ' t.1.1.1.t.r.4.4.4.4.t.4.4.<.Y ",
"T 4.3.*.Z e u 2 Z u / ] ` 1.1.Y ' t.1.1.1.1.4.4.4.3.3.4.t.3.<.i L 4.;.> D H : C F % 3 j 9 *.2.L ' 3.1.1.1.1.4.4.4.3.3.2.r.3.>.L ",
"T t.4.*.Z @ . X O r <.t.' >.1.Y ` 1.1.1.1.1.3.3.3.3.1.3.4.2.<.i L u.;.9 x B % h  .6 f @.h *.4.U ' 3.1.1.1.1.1.3.2.3.3.3.y.2.:.L ",
"T 3.1.] Z @ X @ O Z / / ' ,.1.Y / 1.>.>.<.,.1.1.1.3.3.2.4.1.>.Z L 4.;.; M X.* c q.s c q.s *.4.U / 1.>.>.<.<.1.1.3.3.1.3.t.1.>.K ",
"R 3.1.' e @ e Z < i u r / :.1.T ` <.>.>.<.>.1.1.3.3.1.3.4.1.>.L R 4.] : 8.w.6 B w.s c e.x ] 1.T ' <.>.>.>.1.3.1.3.3.1.3.t.1.:.R ",
"/ 4.1.( 3 r t u u r 8 r / -.1.R $.1.>.1.,.>.1.3.4.1.3.3.1.1.>.K R t.=.5 0.r.0 B w.d j q.h ] 1.^ *.1.>.<.<.>.1.2.3.1.3.3.3.1.<.U ",
"/ 4.1.t.1.>.3.1.2.3.3.>.4.,.>.T ` 1.<.1.<.1.1.4.y.2.3.4.2.3.<.K R i.=.8 ..9.5 N q.6 a 6.t ] 1.R / 1.<.1.1.<.1.t.y.2.1.t.3.3.<.K ",
"Q 4.3.s.$.$.g.f.g.f.d.>.p.1.3.R ' 1.<.1.1.1.3.3.t.4.3.y.u.t.1.z R i.=.- S J & A G : 3 k 3 =.4.R R 1.1.1.1.1.1.t.u.3.4.u.u.u.1.P ",
"W 4.u.] X o ] 1.4.4.*.@ / y.2.R Q 1.<.1.3.4.1.t.t.t.t.y.u.4.1.L T u.=.% E { % h O.= 6 o.p :.u.T ' 1.>.1.t.3.1.3.u.4.4.y.4.4.1.Y ",
"/ 4.u.L . X u u.t.y.:.  r u.4.R / 1.1.3.4.r.t.t.u.4.u.4.u.4.1.L R i.=.< x v # f E : w V 8 >.4.T ` 1.1.1.t.t.4.2.y.u.t.4.i.4.1.Y ",
"/ t.u.' o # L i.4.r.t.*.$.1.u./ ( 3.1.3.4.4.y.t.u.u.i.u.i.u.1.L Q u.1.] L i ) T l ) T t Q 3.u./ ` 2.3.1.y.y.r.t.u.u.u.u.i.u.1.L ",
"W 4.2.2.` ` 3.i.4.u.i.t.,.1.2.R / 2.3.4.y.y.y.r.u.u.p.u.p.y.1.L R 4.u.d.4.>.p.4.;.a.t.>.u.u.1.W / 2.1.4.i.u.i.t.u.i.i.i.i.t.1.L ",
"Q 3.2.u.s.f.s.a.u.i.a.p.u.y.>.P R 3.i.i.d.d.d.i.p.p.a.p.i.4.>.i R 3.2.u.i.a.a.s.u.i.s.a.i.4.:.Y R 1.i.a.a.s.a.p.i.a.p.p.u.4.>.L ",
"Y =.;.1.1.u.4.4.2.2.4.4.>.;./ L L ' ;.4.y.u.u.3.1.3.4.3.1.>.] i P $.:.1.1.u.y.y.4.3.4.4.<.;.` L T ` ;.2.u.u.i.1.1.2.4.2.1.>.] i ",
"i e u t i i i L h i L i u r r T L u u Z Z Z L i i i L h i u q u i 4 u u i l i z D i L i u r 8 T L u t i K i L u u i i L i t q r ",
"L 4 4 4 4 4 4 r e e 4 4 2 2 q U L r 4 4 8 q q e 4 4 4 q q 2 2 D T 4 4 4 4 4 4 q e 2 2 2 3 2 r L L q 4 e e q u e 4 4 4 4 4 4 2 u ",
"+.' Q Q R R R R Q Q R R R R / ] *.( ` / ^ / / / / ^ / / Q Q ! ] =.( Q ^ R Q R ^ ^ ^ ^ R R ^ / ] =.` ` / / ^ ^ ^ / ! / / / ^ / ] ",
"i.i.i.i.p.p.i.i.y.u.i.u.u.i.i.p.a.a.u.1.i.i.u.i.p.i.a.p.y.t.u.p.u.1.u.i.i.a.i.u.y.y.i.u.u.u.i.p.a.p.u.u.i.i.i.a.i.p.a.p.t.u.u.p.",
"4.3.3.4.2.2.3.3.2.3.4.4.2.4.4.4.u.4.3.1.2.4.4.t.2.1.2.2.3.3.1.4.2.<.3.4.4.3.3.3.t.t.r.4.t.3.4.t.y.r.4.3.4.4.t.r.3.3.2.3.3.1.3.4.",
",.>.>.>.,.>.>.>.,.>.,.1.1.<.1.1.1.1.,.,.,.,.1.=.>.>.<.>.>.>.<.>.<.<.<.>.,.>.>.>.>.>.,.1.1.<.1.<.t.3.1.<.,.,.,.<.>.>.,.>.>.>.,.,.",
"=.=.=.=.=.=.=.$.;.=.;.>.;.;.;.=.;.;.;.=.;.=.=.;.;.=.;.;.=.=.=.=.=.=.=.=.=.+.=.=.;.;.;.:.;.;.;.;.*.:.:.*.=.;.;.;.=.=.;.;.=.=.+.=.",
"` ( ' ' ` / ` ( ' ' ' ] ] ] ' ' ' ' ] ' ( ' ' ] ` ` ' ' ' ( ` ` ( ` ) ( ` ` / ` ] _ ] ] ' ' ] ] ] ] &.' ' ] ' _ ' ' ] ' ' ( ` ` ",
"L R R R Y L P R R R R R I Y R T I R R R T T R R T I Y R T Y L U Y R R Y P L Y Y R R R R R T U R T T R T P R T R Y R R T Y P P L "
};
