/* XPM */
static char *result[] = {
/* columns rows colors chars-per-pixel */
"64 64 67 1 ",
"  c #2D2D2D",
". c #353535",
"X c #313131",
"o c #343434",
"O c gray21",
"+ c #393939",
"@ c #373737",
"# c gray23",
"$ c #3A3A3A",
"% c gray20",
"& c #323232",
"* c gray19",
"= c gray22",
"- c gray18",
"; c #3C3C3C",
": c #3F3F3F",
"> c gray24",
", c gray27",
"< c gray25",
"1 c #3E3E3E",
"2 c gray33",
"3 c #535353",
"4 c gray31",
"5 c gray30",
"6 c #4C4C4C",
"7 c #515151",
"8 c gray32",
"9 c #4E4E4E",
"0 c #505050",
"q c #565656",
"w c #484848",
"e c #555555",
"r c #494949",
"t c gray29",
"y c gray34",
"u c #5B5B5B",
"i c #5A5A5A",
"p c gray36",
"a c #5F5F5F",
"s c #4B4B4B",
"d c #434343",
"f c gray35",
"g c #585858",
"h c #5D5D5D",
"j c gray37",
"k c #626262",
"l c DimGray",
"z c gray40",
"x c gray26",
"c c gray38",
"v c #6A6A6A",
"b c gray28",
"n c #414141",
"m c #656565",
"M c #646464",
"N c #444444",
"B c #676767",
"V c #686868",
"C c #464646",
"Z c #606060",
"A c gray39",
"S c #2F2F2F",
"D c gray17",
"F c #2A2A2A",
"G c #272727",
"H c gray14",
"J c gray16",
/* pixels */
" .XXXXXoO..+o..@#+@.@@@$O%%.%&oX*.+#=.oXX&XXX&* -XXo@;:>,<=1:;>+",
"@2345667859569088072783q2849663w18eqe7070330004rrt982qeyueiuipa3",
"=q228969090547324s670083287005u6d22q38772qfe379rr583yq2ig2hjjkli",
"+eeeqe35074588739tr560e880877ej9de3873eeegq87956t488eqii3e8fkkzp",
"$eeeq2983q0087495t6r92e37087euk6xie83872yif855t007833ehjgqq3ucvk",
"#y3qyb=0eq377776stn.93873e73eqkwnjg3223483009x=2278e2guahftxamlh",
">hpig8923283774srtbb40047eyeeyjb,kg3eq055704440py83qygfpuiiamzvq",
"dMMaife237g278009940940072gfghcwNjp22e7792q492gy2e2eyfiuifaBBVvy",
"CmZuhgfe82q78083770440708gqe2ehN:ai222823e22eqy28geefgifgpjcBzzq",
"Ckueiqgge30000380307788003ey28hC>gy227222qfuuyqeqy3gififuZZcaZmq",
"1pe782iy8370007870038034032yqqkr<32y8883e2ypg8yaqqyyiuuhAAZjjaAq",
";e7443ff43877887778e2743y332yyksn07e377eeeqfq32u7qyygfphhjahpamq",
":q3238e88q378e33333yy34ye07829b*S.$uf3222eqeyy27qfyyyuifaaappjc7",
">pfijf22e3273yeg3774888gq77834Noo$>yeey888772yefieeequpjcZZhhjh9",
"nhfjZiyg228eyqq343898g7yfqy333r@@xsf2830040478quiq2ggfcchuZMahZ7",
"1gggf39y237822347052qggpjqe3e34:1b9Ziq8894qe2277eqffeffpcAiijumg",
"#ggyqN=8333807ege53fu3iZf337yfe>;r6if220s08882793qy2yuZAmZ6ChpBq",
">hgqe848eye22333q9q3qeiag8848ye@&Csyq27s73440873e203qgjffyqjkhk4",
"npyeeee2qee82e04s83q8pfqe407835SD#dye20946477073093eeugqgujZZhjs",
"djgqq2qyge223087s5s47q30388030bFD.#yq3e3ts0088096432gZaZahpjjak0",
"xiyqyppiqg847739tt96r693ye3092z6xyie8qe0677087090807qjAkiiuahpk7",
"<qeyhmAiquq90e7tstsww60y299450k0Nge007958447274738228fcpfiipfuA7",
"<yqgZAhghcg7820566str4e2459954urx09449s88900998082e33giyfhhuppk7",
":qegjckgZAjfye04t69944079555s5fx>9555s738806t988823708yyfhuihjA3",
";y2eujkafuhhee20tt56044556stt6y<+56ts0032e9t6907e237043fahiipaA3",
"#qqq2yffiuug287496rrt69966ttss3:=5sb6807336rs0002g7080qZBaffpaA7",
".837esr23yfg2795945Cbr956sttss31+6sts947496wr5t472322qfZZue0fcM3",
">808q5527007049945dX,00733stss2:$6ttt665449551&62882qqefiyr>gAZ4",
";4933ee3804994445t5Cs47eig44659;+srrt6sw5965swN08382e82yif393fA8",
"+87773238800048204380yuq8y256ss$O6ss4550559st40338383qiuZpeqgizg",
">phihigffipiufpaappjZchipZjfe49#.w7382gue8q3eqqujaZpjkmBzAkckzAg",
"#ts6stbCCCCbCdNrsdx,,x<xxNNd:1>o%$$$#;;<n<<nnndCCttbwbCt585w644r",
"OddN,x::1$+$;;>NNn:;##>#+====+@&*O.o.o@+$$$$$$;1>:1#;;;:btwCC,N1",
"#iiygye2754955yfpu399324996s6651Ossrrr594555s5007e34444fAcahiif9",
";ffyeqy23959698yge44004956rCrs7<O6ttttt656stC6464824407pchhiqgj4",
"@yfyqeq220t54742q07e498845tr65yn@5sttss6ss666645600493gukcapyik9",
"+hpyy76e28567747009b9080056554h<+4tt6666s65446w95s5543faaci0quZ5",
":mkgpt#yye24903090n&s82884676b0<@5s979680t640xO54s543effgut$7uc6",
"xkjZcyqfq7745900945w47730090s4y<@64796tt79s97064459822fyig27euc4",
";fjkkajg376sr6599940949999595fzN=9496rwwts0307747887788uhgyfyic0",
"$gipZjge725sr69995649trtt5494yAt>8456wrtb58894407833778fq8yqeiM0",
"$ffuie22445465949s507twwCs9593abn36509rww97844747q233yy22e33qgk9",
";gfuq22q70280s50s5990swwbbs953j,#4564465s50045904ee33yq3782fajA4",
"<f2eqe223796tt6ss66945rbb,t447qn.w69st974090069493qeqy380qZcuim7",
"xpe2qe239strbbwt965055rCCb532r#GHD%59560044654907gqgpuy28gZaygA4",
"Nafqe2096strbbs965s666stC63fg7xJJSXr0902747ts7782f2ehjeygqqqqfA0",
"xjiqe27070ttrr556strwrsw,w4e3qr- o.w74004059843e8ghiij3ifeeqefk2",
":iige7s07845555str,NCrrbbbr54erS oOt049440s9044gifpyypcpie752iA8",
"njfyyr@53095946bbbCCrrwrwCCs82wSS=#99484490047eif32ppgagygC=3pM7",
":hfyg8677499095srsstrwrw,,Ct07C -@>000870947833820q3pfq2yg852ize",
"$yfg23e96490795s65strwrwN,b54r>GJ&=3e08q5s5549667q73eci3e2qyquMe",
";ffqyyy044404564495strrtbCbs9d=HG&O3eeq765999642299quppy22qqyjm8",
"<pgghf8800746s94ssststrssssbt8un;30yfyq76456s437558eqgfye2iieuA8",
">yuhf8775775s44swbwrsstw575r6emt>2quhyi34289080930eq273qeqig2iA0",
"$qyq83897845079rttbt66698797gfc,;8eeghg3yf2732072qye09408qq22iA9",
"@eq3330074970596stt696938283uia,1e763q8efie338783y20949004eqeiA6",
"O72383800400559965st990yqgyf2qaC1q952y2pjpgy3287324595023q3giqk5",
"=04967y77e74440876w5777eyeqg82ZC>8642qgckae3y23e2766503eyufpuqk4",
"#79964672307790076tr487732f872jC;743e8qkZZg33992389783eeqqe3pgZ9",
"@4494do58000000944x.58088883eeub>94328qZhfy30dO4233332yegy,$fij9",
"@3369rN94004080402757407954822jw<270072yy84006w330887qguhf062ic7",
"oey5597873777efyefyg378094727ecC<2333eqqeq2832uqfg282iZagyeeeyj9",
"&2auuijjjaphhackcAkkZahhhaaZZkZwbyfpacZcajpipjaaZjpfuckAAkajaZjr",
"&Nbbrtrrr54tw64342889rssbCbbs00,ntw6984wwrrbCw,Ctrr694fug8s4570,"
};
