/* XPM */
static char *result[] = {
/* columns rows colors chars-per-pixel */
"64 64 172 2 ",
"   c #04080C",
".  c #070E15",
"X  c #080E13",
"o  c #1F1D1B",
"O  c #2C1D0F",
"+  c #251B16",
"@  c #211E1B",
"#  c #2F1E19",
"$  c #26211D",
"%  c #2B241D",
"&  c #362413",
"*  c #3B2614",
"=  c #34261A",
"-  c #39221E",
";  c #33281A",
":  c #3B2B1B",
">  c #3F311F",
",  c #191F23",
"<  c #1D2327",
"1  c #242525",
"2  c #2D2421",
"3  c #2F2923",
"4  c #26292A",
"5  c #372422",
"6  c #342C25",
"7  c #3B2C23",
"8  c #362828",
"9  c #3D292B",
"0  c #3D3127",
"q  c #3D342E",
"w  c #2B2E31",
"e  c #2E2D3B",
"r  c #332F3B",
"t  c #2C3033",
"y  c #2D353B",
"u  c #333334",
"i  c #3E3232",
"p  c #33373A",
"a  c #3C3038",
"s  c #35383A",
"d  c #3A3A3B",
"f  c #442C17",
"g  c #442E1B",
"h  c #44311C",
"j  c #4C321A",
"k  c #53361D",
"l  c #472B23",
"z  c #41282B",
"x  c #443223",
"c  c #4B3724",
"v  c #4C3A25",
"b  c #45352B",
"n  c #473B2E",
"m  c #4C3A2D",
"M  c #523721",
"N  c #533E26",
"B  c #5B3E22",
"V  c #54312E",
"C  c #513D2E",
"Z  c #5A3F2A",
"A  c #483630",
"S  c #453B32",
"D  c #4C3E32",
"F  c #523D34",
"G  c #58383F",
"H  c #613F27",
"J  c #773D21",
"K  c #683E3A",
"L  c #554126",
"P  c #5C4225",
"I  c #55412A",
"U  c #5D4329",
"Y  c #5A482B",
"T  c #4F4135",
"R  c #554133",
"E  c #5B4432",
"W  c #504139",
"Q  c #594639",
"!  c #5E493C",
"~  c #644425",
"^  c #694626",
"/  c #6D4827",
"(  c #644629",
")  c #694729",
"_  c #65482A",
"`  c #6C4A2A",
"'  c #744D2C",
"]  c #794E2D",
"[  c #76512E",
"{  c #7B512E",
"}  c #614631",
"|  c #6B4732",
" . c #674B37",
".. c #6A4D36",
"X. c #644B3B",
"o. c #6D4D3A",
"O. c #734D33",
"+. c #775130",
"@. c #7D5331",
"#. c #74553D",
"$. c #7A375B",
"%. c #3F4143",
"&. c #454546",
"*. c #46484A",
"=. c #484848",
"-. c #50454C",
";. c #5D534E",
":. c #5C4B5A",
">. c #545455",
",. c #5F5251",
"<. c #5D5D5E",
"1. c #634F40",
"2. c #68404E",
"3. c #78484A",
"4. c #655243",
"5. c #68504C",
"6. c #6F5D48",
"7. c #735440",
"8. c #7E5C46",
"9. c #745F4E",
"0. c #7B5F49",
"q. c #6F485A",
"w. c #75604C",
"e. c #796251",
"r. c #656667",
"t. c #81532F",
"y. c #865632",
"u. c #885733",
"i. c #865834",
"p. c #8B5A35",
"a. c #845B3B",
"s. c #8C5E3A",
"d. c #915E36",
"f. c #925F38",
"g. c #8D613E",
"h. c #926037",
"j. c #946139",
"k. c #9B653C",
"l. c #9C683F",
"z. c #A0673D",
"x. c #A3693F",
"c. c #835D41",
"v. c #875C4B",
"b. c #864158",
"n. c #8A5C54",
"m. c #866142",
"M. c #8B6544",
"N. c #8F6847",
"B. c #85634C",
"V. c #88654C",
"C. c #916745",
"Z. c #926946",
"A. c #9E6941",
"S. c #95654A",
"D. c #946C4A",
"F. c #9B6F4B",
"G. c #9E714E",
"H. c #8D6451",
"J. c #8B6B54",
"K. c #8F6D58",
"L. c #936E56",
"P. c #9E7350",
"I. c #97735C",
"U. c #A36C42",
"Y. c #AA6E44",
"T. c #A77047",
"R. c #AA7046",
"E. c #A1724D",
"W. c #AA7249",
"Q. c #B1764C",
"!. c #A07451",
"~. c #947561",
/* pixels */
"^ ~ ~ H ~ P ~ P ~ B ~ ~ ~ ~ ~ ^ / B ~ ~ ~ ~ ~ ~ ~ ~ B B ~ ~ ~ ^ ^ ~ P ~ ~ P ~ ~ P B ~ P ~ ~ ~ / ^ ~ B ~ ^ ~ ~ ~ ~ ~ ~ P ~ ~ ~ ^ ",
"' M.m.g.m.g.g.g.g.g.m.m.g.m.g.' ' M.M.M.g.g.N.m.g.g.M.M.M.M.g./ ' g.m.g.g.m.g.g.8.g.g.g.g.g.M.[ ` N.g.g.M.g.g.g.g.g.m.m.g.M.g.' ",
"g.T.U.U.T.R.W.R.F.x.R.W.W.A.T.[ u.Q.T.R.Q.Q.R.R.x.T.R.T.T.U.x.[ p.W.T.T.T.T.T.W.T.T.W.R.T.A.W.@.i.Q.W.R.Q.Q.R.R.A.T.T.T.T.U.l.t.",
"[ u.u.u.i.p.p.h.y.y.h.h.h.y.t.[ [ p.y.p.k.h.p.p.p.u.h.p.y.p.{ _ [ u.t.u.p.p.p.p.u.u.p.h.h.t.t.` [ p.y.h.k.j.u.p.i.h.h.u.t.p.t.( ",
"_ t.u.u.p.p.i.u.u.u.p.h.p.t.[ ^ / [ t.p.j.p.y.y.t.p.h.y.y.y.[ P ` t.y.y.p.u.i.p.u.u.h.h.p.t.' / ^ [ t.p.h.p.y.i.y.p.p.p.p.t.[ ~ ",
"U P U U U _ _ P U ( ` ` _ U P ^ ~ P U _ ( ^ U ( ( ( _ P U P P P U P P P U ^ _ U _ U _ ` _ P P / ~ L U ~ ` _ U ~ _ _ _ P U U P L ",
"U B B k k P B B B B ~ P P P P / ^ B B P P P P P P P B B P B P _ U B B L B P B k L k ~ U ~ P ( ^ / P k P B P P P P B B P B B P U ",
"` N.D.D.D.D.D.D.D.D.D.D.D.D.G.[ / Z.D.Z.Z.Z.Z.Z.D.N.D.D.Z.Z.g.' ` N.D.Z.D.D.D.D.D.D.D.D.F.D.D.[ ` Z.D.D.Z.Z.Z.Z.Z.N.N.D.D.D.g.' ",
"@.U.A.l.A.l.A.A.l.A.x.T.A.T.x.y.i.W.U.U.Y.U.A.U.U.U.U.U.l.l.l.' [ T.l.l.l.l.l.l.A.A.T.U.x.T.x.y.u.R.T.U.R.A.l.l.x.T.x.U.A.l.l.[ ",
"[ p.p.u.p.p.p.p.p.h.h.h.h.p.p.[ [ j.j.p.j.p.p.p.p.h.h.p.p.p.y.` [ p.u.u.p.p.h.p.h.p.p.h.h.h.p.[ [ j.j.p.k.h.p.h.i.h.h.p.p.p.u.` ",
"` i.i.u.p.u.p.h.h.i.p.p.p.p.i.[ ] f.f.p.j.d.p.p.p.p.h.p.p.p.p./ ` p.u.p.i.p.p.h.p.p.p.p.p.p.p.' [ j.p.p.h.p.p.h.p.p.h.h.p.p.t.` ",
"` i.u.u.p.i.i.i.y.y.p.u.p.p.p.[ ] f.p.y.d.d.p.p.p.i.u.u.u.y.t._ ` u.u.y.u.i.u.u.i.u.u.p.p.u.u.' [ d.p.i.j.p.i.i.i.p.y.y.y.t.y.` ",
"( @.t.u.y.y.y.y.y.y.y.y.u.u.u.[ ] p.p.p.p.i.y.y.y.y.y.y.y.t.[ ( _ t.t.y.y.y.y.y.u.u.y.y.i.i.u.[ ] p.p.p.h.i.u.y.y.y.y.u.y.y.[ ( ",
"( y.y.u.y.y.y.y.i.u.u.u.u.u.u.[ ] p.i.p.p.y.y.i.y.y.u.y.y.{ { _ ` t.y.y.y.y.y.y.u.u.u.u.i.u.u.' ] p.y.p.i.u.u.y.y.y.i.u.y.{ [ ` ",
"` y.y.u.y.u.u.p.i.u.u.u.u.u.u.[ [ d.u.u.p.u.u.u.u.i.y.y.y.t.{ ` ` i.y.i.u.u.y.u.i.u.p.u.p.u.p.[ [ d.u.y.p.u.u.i.y.y.i.y.y.t.[ ` ",
"` y.u.y.u.u.u.p.p.i.u.u.p.y.p.' [ p.i.u.p.i.i.y.u.u.u.i.p.y.{ _ ` i.u.u.u.y.p.p.p.i.u.u.p.u.i.[ { p.y.u.i.i.u.y.u.y.y.u.u.u.{ ` ",
"_ i.u.y.u.y.y.p.h.i.y.p.p.p.p.[ [ f.u.p.p.y.y.p.u.u.u.y.y.y.y.~ ` y.y.p.i.u.u.p.s.p.y.p.p.p.p.] { d.p.y.p.u.u.u.i.p.i.u.u.y.{ _ ",
"_ p.y.y.y.p.y.p.h.h.i.i.s.p.p.] [ d.u.u.y.p.y.y.p.p.p.y.y.y.{ ( ` p.y.y.u.u.u.i.j.p.i.p.p.p.p.] [ d.p.u.i.p.u.i.u.p.u.u.u.y.t.( ",
"` p.u.p.p.p.y.p.h.p.p.i.i.p.p.] ] p.p.u.y.p.u.p.d.p.i.i.p.u.y.( _ p.p.i.i.p.y.p.h.p.p.p.p.p.p.[ ] p.y.u.i.p.u.p.p.p.p.u.t.p.y.U ",
"Y y.p.p.p.j.p.p.h.p.h.i.p.p.p.] ` p.p.p.s.j.p.p.f.d.p.m.a.p.{ P U y.p.p.p.j.p.h.j.p.p.p.p.p.p.' ` p.p.p.p.j.p.p.j.h.p.p.p.p.[ ~ ",
"L ^ [ [ y.y.@.y.t.y.y.@.{ { ' ~ ( ' ] [ @.y.@.@.{ y.[ [ ] _ ( P U ~ ] [ t.t.y.@.y.@.y.@.[ { [ ^ ~ ' [ { { u.y.@.{ t.[ [ ] / ( U ",
"U v v v L N N L L L L L L v v ( ~ v v N N N L L v L L L v v v Z ( v v v L L L L L L L L N v N ( ~ v v N v L L L L L L N v v v L ",
"[ ^ ^ ~ ( U U ( ~ U P U U ( ^ ' ] ^ ^ ^ / / _ / ^ ^ ^ ~ ( P ) ' { _ ( ~ ~ U P ( ~ U U U U ( ~ ' ' _ ) ^ ) ~ ~ ~ _ ( ~ ~ ( ~ ( ' ",
"h.p.p.d.p.p.p.u.i.p.p.u.u.p.d.d.j.d.u.' ' / / ' ] [ s.d.p.p.p.j.d.p.p.p.p.p.h.p.i.p.p.u.p.p.p.j.j.f.p.p.p.p.p.h.p.p.h.p.p.p.p.h.",
"p.p.h.p.j.j.d.h.d.p.d.p.d.p.d.j.d.o.Y c E  .o.| C M ..@.@.@.i.p.h.d.p.d.d.j.d.d.d.d.d.p.p.f.p.j.k.i.H ( } _ ( ( _ ) _ _ ( ( ( p.",
"u.u.u.u.p.t.t.p.p.u.u.p.u.u.p.p.y.E x F e.J.L.S.4.D D c.H.1.} @.p.y.y.y.u.y.u.u.u.p.u.u.y.p.u.p.p.@.U ( ( ( } ( ( ( ( ( } ( E y.",
"] ] [ [ [ [ ] ] { [ ] ] ] [ { ] ] / k g g : : * : 7 l X.#.R Z / ] ] ' ] [ [ ] ] ] [ ] ] ] { { ] +.O.O.' +.+.' ' ' ' ` ' ` ' ` +.",
"~ ~ ~ ~ ^ ~ ~ ^ ^ ^ ~ ~ ^ ~ ^ ^ / ^ ~ B j f f j j * * O O * M ^ ^ ~ ~ ~ ^ / ~ ~ ~ ^ ^ ~ ~ ~ ^ ^ ^ ^ / / / / / / _ ^ ^ ^ ^ / / ) ",
"~ ~ ( ( ~ ~ ( ~ ~ ~ ~ ( ~ ~ ~ ~ ^ ~ ) ) ~ ~ ^ ^ ) ~ ~ B M B ~ ~ ~ ~ ~ ~ ~ ( ~ ~ ^ ~ ~ ~ ~ ~ ~ ~ ~ ~ ) ~ ~ ~ ~ ~ ~ ~ ~ ~ ~ ~ ~ ~ ",
"y.G.G.E.P.G.G.G.!.E.E.!.!.E.E.' ] T.T.E.E.E.E.E.E.F.E.E.E.E.G.] @.!.P.!.P.P.G.G.!.!.G.!.!.!.E.' ] T.E.F.U.E.P.!.E.E.F.E.E.E.F.+.",
"h.U.l.x.R.x.x.z.U.Y.x.x.U.k.z.[ y.U.k.j.k.x.U.x.k.j.z.z.U.z.j.[ i.U.z.x.Y.Y.x.k.Y.x.x.x.U.k.k.@.y.x.z.k.z.x.x.x.k.k.z.z.U.k.j.y.",
"` y.y.p.k.g.g.u.p.p.p.u.p.y.y.' ' y.y.y.p.d.p.d.p.u.p.p.B.p.t./ ' u.u.p.j.j.p.p.p.p.p.u.p.u.t.' ' y.y.y.p.d.d.p.u.u.p.p.p.u.y.` ",
"( y.@.i.p.@.a.y.y.y.y.y.y.[ ' ( ( [ { y.y.i.u.t.i.i.u.p.i.i.{ U ) y.y.y.p.y.p.y.y.y.@.y.y.[ ` _ ` [ { y.u.u.y.@.u.i.i.p.i.p.+.( ",
"v I R I L N B N N N N P N L L U I N L N N L L L N N N N N N L v v v N N v N N N v L L U L v L U L L N L N N L L N L L v N N N v ",
"I N L L L L P L L L L L L P P ( ( L B L L L L L L L L N N L L L N N L L L L L N L L L L P P P ( U P L L L P L L L L L L N L L I ",
"' s.D.D.D.D.Z.Z.M.M.Z.M.Z.Z.C.' / N.N.N.N.N.N.N.N.N.N.N.Z.Z.g./ ` f.D.D.D.D.Z.N.N.g.Z.N.Z.Z.Z.' / N.N.N.N.N.Z.N.N.M.M.N.Z.N.g.` ",
"u.U.U.U.x.Y.x.x.D.U.U.x.z.A.U.y.i.R.U.l.A.U.U.U.U.l.Y.R.R.U.x.' y.R.U.U.R.Y.U.U.U.x.U.U.A.A.A.y.i.R.U.l.A.U.U.U.U.x.Y.R.R.U.U.] ",
"' p.d.j.h.h.j.d.m.j.p.J ] p.u.] { p.u.p.p.h.p.p.p.p.k.j.l.p.p.' ` p.h.h.k.j.h.p.h.h.j.p.p.p.u.] { p.u.u.p.h.p.p.p.p.k.j.k.p.u.' ",
"_ p.p.p.d.h.d.d.d.d.j.p.p.p.p.[ [ p.u.u.p.j.p.p.p.p.k.j.j.p.u.' ` p.i.' ` ` ` ` _ ' +.` ' @.p.' [ p.i.y.p.h.p.p.p.h.k.j.k.p.u.` ",
"_ d.{ H B B B B B k H ~ ~ @.p.+.` p.u.u.p.p.p.p.p.p.k.d.j.h.u.` _ h.a.: c c : x x : 0 l = ) d.O.' p.p.y.p.p.i.p.p.p.j.h.j.g.u.` ",
"` p.t.> $ $ $ $ $ $ $ o 7 t.d.` ' p.p.t.p.p.u.p.p.p.h.h.h.p.y.` ` d.p.% F n.2 i n.7 2 v.A ( d.` ' p.p.y.u.i.p.p.p.p.h.p.g.m.i.` ",
"` d.t.6 < %.*.1 1 4 4 < 8 t.p.` ' p.p.p.p.u.p.p.p.p.p.h.p.p.u._ ( d.i.: r $.2 e 2.5 @ G z U d.' ` p.y.u.y.p.p.p.p.p.p.h.h.p.p._ ",
"( p.t.0 4 <.r.t d &.u w q t.p.[ ..p.p.w.a.y.p.p.p.p.p.p.p.p.u.( ( d.@.b S 5.- 7 ,.l 7 ;.F ( d.` O.p.u.y.u.y.p.p.p.u.p.p.p.p.y.) ",
"( p.u.b t =.=.s >.>.d p n t.p.` ' i.y.i.p.u.u.p.i.u.u.i.p.p.u.( ( s.@.3 C V.0 x V.F b J.W Z d.` ` p.a.p.y.u.u.p.u.u.u.i.p.y.y.( ",
"~ p.t.D s d s d d d d p S y.p.` ` p.t.u.y.a.8.t.u.u.u.p.p.p.t._ ( p.y.+ X.I.b C I.! b K.X.U p.' ` a.#.p.y.y.u.y.p.t.p.p.p.p.@.) ",
"_ p.p.W y s s s p p p y S y.p.` ' i.y.t.y.y.u.p.u.p.u.i.p.i.y.^ _ p.[ 3 X.K.m R ~.Q b J.! Z u.' [ u.t.u.y.y.y.u.p.p.u.p.p.p.t.( ",
"` p.p.a...#.#.#.#.#.#.#.a.p.y.' [ a.a.y.y.y.y.p.p.p.p.p.i.p.t.( ` d.@.q X.K.b C L.R 7 B.W E c.' [ y.p.y.y.y.p.p.p.y.p.w.p.u.y.( ",
"` p.p.k.{ j.l.k.A.k.k.U.k.a.i.' ' u.u.y.u.u.y.p.p.p.y.p.h.#.a._ ` d.@.% a b.3 r 3.7 $ K 9 U d.' ' p.y.y.y.y.y.p.p.p.i.p.i.u.y.^ ",
"` p.p.] f ~ y.u.u.u.y./ y.p.p.O.` p.i.y.y.p.y.p.j.s.p.p.p.g.p._ ` d.@.= i q.- 8 :.g # -.V Y p.' ` p.y.y.y.y.p.p.f.p.p.p.m.g.p._ ",
"` s.d.x   o ' p.p.d.B @ H p.p.' ' p.p.y.p.p.y.p.s.p.p.p.h.p.u.( _ f.@.$ n 6.$ 0 9.6 % w.A ( j.' ' p.y.y.p.p.y.p.p.s.p.p.h.p.p._ ",
"` p.p.x X 1 { d.d.p.) i O.d.p.' ` p.u.u.y.p.p.p.g.p.j.p.h.h.i.( ` s.i.v : ; h > = h 0 ; : +.d.' ' p.p.u.p.p.p.p.j.h.h.h.h.d.u._ ",
"' p.p.b . 1 y.h.a.p.p.s.d.p.d.+.` p.u.u.s.p.s.c.h.h.j.j.j.h.p.^ ` p.j.Q.j.` k.j./ k.j.) j.U.p.[ ` u.y.a.s.p.p.p.h.p.g.p.j.d.u.` ",
"` p.p.( S Q p.h.s.f.j.p.u.u.p.O.` p.p.p.h.h.h.h.h.h.j.h.k.h.p.^ ` p.p.k.l.k.k.l.f.k.U.j.k.d.p.] ' p.p.c.j.j.j.f.h.h.j.h.k.p.p.( ",
"` p.p.d.k.U.k.k.f.j.l.j.d.p.y./ ( y.j.k.k.k.l.j.j.j.k.j.h.i.t.( ` p.p.p.h.k.j.k.f.f.k.j.p.p.y._ ) y.j.j.k.k.k.j.j.k.k.j.j.p.y.~ ",
"( [ t.y.p.d.p.g.p.p.p.p.y.y.' ~ ( ^ { p.h.h.p.p.p.p.p.i.u.t.[ P ~ [ @.y.p.d.p.s.p.p.d.p.y.{ ' ~ ( ` { p.j.f.d.p.i.p.p.p.p.t.[ P ",
"P N L P P P P ~ ( L ~ P N N v ~ ~ L P P ( P ( P L P _ ~ P L L L U N N P P U P ~ P P ~ P L N v ( P L P P ~ P ~ N L P ~ ( P N N N ",
"~ v v v v v v N v v v v c c v ( ~ N v N v N L v v v v N v v v P ~ v v v v v v M v v v v c c N ~ ~ N v N N N N N v v N v v v v P ",
"] ' ) ` ) ) ^ _ ) ) ) ) ) ( _ [ ] ` ` ` / / _ / ` ) ` ` ^ ` _ ] ] ' ` _ ^ ) ) _ ) _ ) ) _ ( _ ' ] ' ` _ / _ / ` ` ` _ / / _ ) ' ",
"p.h.f.j.j.j.j.d.p.p.j.h.h.h.h.j.k.j.h.p.h.j.j.j.j.d.j.j.p.d.p.j.d.p.j.h.j.f.j.f.p.f.h.d.f.d.j.j.j.j.p.h.p.j.d.j.h.h.k.h.d.p.p.j.",
"p.p.u.p.u.p.p.i.u.p.p.p.p.p.p.p.j.p.p.p.u.p.i.h.p.u.p.p.y.p.p.p.p.p.p.p.p.p.p.p.u.p.p.p.p.p.p.p.h.d.p.p.p.p.p.d.p.u.p.p.p.p.p.p.",
"y.p.u.u.y.u.y.u.u.u.y.p.u.p.p.y.p.y.u.u.u.u.u.u.u.u.u.u.y.u.y.u.u.u.u.u.u.y.y.y.p.u.u.u.u.p.y.p.u.p.p.y.u.u.p.u.u.u.u.u.y.u.y.u.",
"[ [ [ ] ] ] ' [ t.[ { y.@.{ y.{ t.@.{ { [ { t.{ ] [ { ] ] [ [ ] [ [ { [ ] ] ] ] { { { y.{ { t.t.{ { t.[ { { { { [ ] { [ ] [ [ ] ",
"` ^ / ^ ^ ^ ^ ^ ` ^ / ` / ` / / ` ^ ) ^ / / _ ` ^ ) ` ` ^ ^ ^ / / / _ / ^ / ^ ~ ` ^ _ ` ` / ` / / _ / ^ ^ _ / ) / ^ ` ` ` / ^ ^ ",
"~ ) ~ ^ / ( ~ ^ ^ ^ ( ^ ~ ~ ~ ( ~ ) ~ ) ~ ^ ^ ^ ^ ^ ~ ^ ( ) ) ~ ~ ^ ~ / ~ ( ~ ) ^ ^ ^ ) ~ ^ ( ~ ^ ^ ~ ~ ) ^ ~ ) ^ ^ ~ ^ ~ ~ ( ~ "
};
