/* XPM */
static char *result[] = {
/* columns rows colors chars-per-pixel */
"64 64 167 2 ",
"   c #050706",
".  c #080709",
"X  c #0C080B",
"o  c #0D120C",
"O  c #11180F",
"+  c #110F11",
"@  c #101110",
"#  c #191618",
"$  c #251F1C",
"%  c #311C17",
"&  c #341D19",
"*  c #2C231E",
"=  c #3F2017",
"-  c #34241C",
";  c #3D251A",
":  c #322B1C",
">  c #3B2A1E",
",  c #262424",
"<  c #282625",
"1  c #2D2C27",
"2  c #24242B",
"3  c #2F2529",
"4  c #272829",
"5  c #2B2C2C",
"6  c #332B27",
"7  c #30272D",
"8  c #332E2C",
"9  c #3B2D28",
"0  c #2F3028",
"q  c #2D392A",
"w  c #313227",
"e  c #33322E",
"r  c #3C302C",
"t  c #33392A",
"y  c #222433",
"u  c #2F2E32",
"i  c #302F30",
"p  c #2D3631",
"a  c #343434",
"s  c #373B36",
"d  c #3C3F30",
"f  c #373639",
"g  c #38373B",
"h  c #37393C",
"j  c #3B3C3C",
"k  c #403F1E",
"l  c #54381D",
"z  c #452F26",
"x  c #413025",
"c  c #4B3326",
"v  c #43352C",
"b  c #4A3629",
"n  c #4C382C",
"m  c #503E2A",
"M  c #423934",
"N  c #4A3B32",
"B  c #4E303E",
"V  c #56313E",
"C  c #2B4529",
"Z  c #3A452F",
"A  c #354533",
"S  c #3C4233",
"D  c #3F413E",
"F  c #444636",
"G  c #474937",
"H  c #41423F",
"J  c #4E443A",
"K  c #464A3A",
"L  c #494C3B",
"P  c #534432",
"I  c #534B3D",
"U  c #594A3C",
"Y  c #4D533D",
"T  c #52543E",
"R  c #604D3F",
"E  c #3D3D41",
"W  c #4E3242",
"Q  c #413F40",
"!  c #553240",
"~  c #3F4042",
"^  c #434444",
"/  c #4D4745",
"(  c #474844",
")  c #4A4C46",
"_  c #464649",
"`  c #49474A",
"'  c #474948",
"]  c #4B4B49",
"[  c #524743",
"{  c #504F47",
"}  c #5B4D43",
"|  c #514D4B",
" . c #425347",
".. c #4E5146",
"X. c #4E514A",
"o. c #525445",
"O. c #5A5543",
"+. c #555B45",
"@. c #5A5C46",
"#. c #52544A",
"$. c #5A544C",
"%. c #565A4B",
"&. c #595D4C",
"*. c #565656",
"=. c #5B5751",
"-. c #5C5D52",
";. c #585858",
":. c #614E41",
">. c #7C4E44",
",. c #655342",
"<. c #6F5D46",
"1. c #625C4C",
"2. c #695F49",
"3. c #735641",
"4. c #7A5545",
"5. c #7B5E4B",
"6. c #635C53",
"7. c #6D5F53",
"8. c #5B6146",
"9. c #5C624C",
"0. c #5E6251",
"q. c #61664C",
"w. c #6C654E",
"e. c #64694E",
"r. c #686D4F",
"t. c #7E604D",
"y. c #636551",
"u. c #6B6352",
"i. c #666B51",
"p. c #696D53",
"a. c #6F645A",
"s. c #6B6E5A",
"d. c #726655",
"f. c #726A55",
"g. c #73655A",
"h. c #746A5B",
"j. c #7B6D5F",
"k. c #6D7155",
"l. c #6E715A",
"z. c #717357",
"x. c #72745B",
"c. c #7B745D",
"v. c #74785F",
"b. c #7D785D",
"n. c #636462",
"m. c #6D6F60",
"M. c #726C67",
"N. c #7D6E61",
"B. c #6D7062",
"V. c #747462",
"C. c #7B7563",
"Z. c #777867",
"A. c #7E7962",
"S. c #747569",
"D. c #7A766A",
"F. c #7D786A",
"G. c #806F61",
"H. c #827262",
"J. c #897665",
"K. c #847B64",
"L. c #8C7B65",
"P. c #837C6B",
"I. c #8C7C69",
"U. c #907D66",
"Y. c #917D6A",
"T. c #8B806D",
"R. c #A08872",
/* pixels */
"#.] _ ^ ^ ~ _ ^ ( ~ ^ X.' ) X.%.%.( ( ' X.X.) ( _ ~ ' ~ ( ) ) ] #.] _ ^ ^ ^ ^ _ ( ^ ^ ) ) X.X.%.%.^ ( ) %...' _ ^ _ ^ ^ ' ' ) X.",
"-.c.c.j.c.j.M.j.h.j.j.c.c.C.c.9.1.C.c.c.b.H.C.j.j.j.c.C.c.b.C.$.-.C.c.j.c.j.j.M.h.p.j.c.c.C.c.9.9.C.c.C.c.H.C.c.c.j.j.C.c.C.C.=.",
"d.L.K.K.K.T.T.T.P.K.K.I.L.K.L.u.f.L.K.P.P.P.I.T.T.K.P.L.T.K.L.6.7.U.K.K.K.T.L.I.T.T.K.I.L.K.L.u.f.T.K.J.P.P.L.T.K.K.P.L.L.K.L.7.",
"%.q.q.q.i.p.q.i.e.e.k.s.p.q.q.%.9.q.q.i.s.s.i.p.9.y.k.i.i.q.9.( { e.q.e.i.i.y.p.0.e.p.s.i.y.9.&.q.9.y.i.s.s.i.i.q.i.s.r.r.q.9.( ",
"..q.q.e.p.p.r.r.r.r.p.k.p.i.9.] X.&.q.i.l.p.e.q.e.r.p.e.e.q.-.E ) q.q.e.i.p.r.r.y.i.k.l.k.e.9.] ..&.q.i.z.p.q.e.e.r.s.e.e.9.9.~ ",
"^ H ^ ^ H ( ( ^ ^ H ) ) ' K D ' ] j H ^ ( ^ ^ ^ K ( ^ ^ ^ D M j H ^ ^ ^ ~ ( ( K K ^ ) ) ( ^ H ) ( j H ^ ^ _ ^ ^ H ( ^ ^ H D D j ",
"j j E E ^ ^ Q E ^ ^ ..) ) ~ h ..@.^ ( ( ^ ) ) ) ~ _ ) ^ ~ ^ ^ ^ ~ j E E ^ ^ ~ ~ ^ ^ ..) ( ~ E ) %.( ( ) _ ) ) ) _ _ ] E Q ^ ^ ~ ",
"| G.J.J.K.L.J.J.J.K.T.L.L.J.N.X.&.U.U.U.U.T.U.U.I.I.I.Y.I.Y.J.] / H.J.J.K.L.H.P.H.L.L.L.L.L.N.X.&.L.U.L.L.U.L.Y.L.L.Y.Y.I.I.J.#.",
"-.A.b.b.b.v.x.C.c.C.A.F.C.v.K.%.y.F.S.B.S.V.z.V.V.x.C.V.V.z.b.{ $.K.v.b.c.c.x.v.c.V.A.F.c.c.A.&.y.D.V.V.S.x.x.x.c.V.V.Z.c.z.v.$.",
"#.p.q.e.p.i.k.p.p.p.p.s.p.i.p.X.%.B.s.p.B.s.p.s.p.k.l.s.s.r.e.^ ] k.i.i.k.i.k.p.k.p.s.s.s.i.i.X.;.s.s.p.B.s.s.s.i.s.l.p.p.i.q.) ",
"X.i.p.i.i.p.k.k.s.p.p.s.p.p.i.] %.l.s.p.s.s.p.p.s.p.k.l.r.r.q._ ) p.i.e.i.p.k.k.k.p.p.s.s.r.e.X.&.l.s.p.s.s.k.k.s.p.k.s.k.i.q.) ",
") e.i.e.e.e.r.i.r.q.e.i.i.i.q.) 0.s.i.i.s.s.e.r.r.q.e.e.q.q.q.^ ) e.i.e.e.i.i.i.e.e.r.q.i.i.q.) -.s.i.r.s.p.i.i.r.q.e.r.q.q.9.( ",
"( q.q.q.q.q.q.9.q.q.q.q.i.q.9._ %.p.y.p.k.i.9.q.9.q.y.e.q.9.9.^ H q.9.q.q.q.q.e.q.q.e.q.i.q.9.( &.p.i.i.p.q.9.q.q.9.y.q.q.8.9.^ ",
") q.9.q.q.q.e.r.i.r.i.q.i.9.9.( &.i.y.p.i.q.e.e.q.q.y.i.e.9.9.( ) q.q.q.q.q.q.q.i.i.e.e.i.9.9.) -.i.y.i.k.q.q.i.q.q.i.i.q.9.9.] ",
"o.q.q.e.q.e.q.r.i.i.i.e.i.q.q.) -.k.e.e.i.i.e.e.q.e.e.q.q.9.9._ ..r.q.q.r.r.e.i.i.e.i.e.i.q.q.] -.k.e.i.r.i.q.r.r.q.e.q.q.q.9.) ",
") q.q.e.r.q.i.p.k.i.r.r.i.r.9.] -.k.r.r.i.i.e.e.r.r.q.e.e.q.9.] ) q.q.e.e.q.r.i.k.e.e.p.i.e.9.] -.k.i.e.i.i.e.e.r.i.q.q.i.9.9.) ",
"..e.e.e.r.e.r.i.s.p.r.i.s.e.q.) 0.k.e.i.p.p.e.e.r.i.e.e.r.q.9.( ) e.e.e.e.w.r.p.s.r.e.i.p.e.e.] 0.k.e.i.p.i.e.r.i.i.e.e.r.q.&.] ",
") e.e.r.r.e.i.i.k.p.i.i.p.e.q./ -.k.r.e.e.p.i.i.p.i.i.i.e.q.9.^ ) e.e.r.e.r.i.i.k.s.p.p.p.r.q.( -.k.i.e.e.p.r.i.p.i.i.e.e.q.9.( ",
") r.e.r.s.p.i.p.k.s.i.i.r.r.e.( -.p.r.r.r.p.i.s.s.p.p.i.e.y.q.Q ( r.r.p.s.s.r.i.k.s.r.i.u.e.e.( %.p.i.r.p.p.r.e.s.s.r.r.e.i.q.Q ",
"( e.r.k.k.k.k.f.z.s.k.p.p.r.q._ #.p.i.p.k.z.p.k.z.z.p.i.i.r.0.j H r.r.p.V.z.r.s.k.k.k.p.r.k.q.^ #.k.r.p.p.z.p.s.z.k.p.p.e.p.&.Q ",
"M ) &.9.q.9.q.y.i.y.y.q.9.&.( ^ ^ #.y.9.&.y.q.y.1.0.&.&.%...( j M X.&.9.y.y.q.y.y.y.i.q.&.&./ ^ _ o.&.&.9.y.y.y.9.6.&.&.%.#.) j ",
"_ f f g j j h E j j h j j f f _ ` f Q j j j E h h h E h f s 5 D ' f f f j h h Q j j j h j g f ( _ f f g h E E h h j j g f f f Q ",
"9.X.( ) ( ^ ^ ( ( ^ ^ ^ ^ ^ ) %.9.#.] X.X...] #.) ] X.) ] ) 0 o.9.X.) ) ) ) ) ( ( ) ( _ ^ ( ) &.9.#...X.| X.#.X.] / ) #.) ) X.&.",
"k.k.k.p.k.s.s.p.r.p.p.p.r.p.k.k.o...Y Y o.L o.L e.e.9.i.9.t o K z.+.+.s.i.) +.p.y.o.+.i.e.&.&.z.9.o.T Y Y ..Y Y +.k.&.q.9.S S o.",
"k.k.k.k.k.z.k.k.k.k.k.k.k.k.k.s.s s S A j n.n.] q.o.Z +.8.o   Y O., { r.T A | q.@.j H q.T a ( p.#.p p u q C j  .o.e.S F +.q q Y ",
"q.q.q.q.q.q.q.q.r.e.e.q.q.i.i.p.m l b : - M.n.J e.T d +.+.O o Y i.n ,.p.w.g.7.w.w.n U r.q.c } k.+.* * * : k 9 s @.8.S K T Z Z Y ",
"9.9.8.9.9.9.9.9.8.8.8.9.8.9.9.y.f.u.u.w.q.u.h.u.e.%.@.9.%.o...+.q.x.h.9.q.c.f.9.9.z.f.9.q.c.j.8.w.w.e.w.w.w.u.f.p.&.@.9.8.+.T 8.",
"X.X.] X.X.X.X.X.#.X.#.X.X.X.X.#.%.#.%.%.%.%.#.%.X.#.X...X.%.&.#.X.] ..#.X...X.X.X.X.X.#.{ #...o.%.%.#.%.%.&.%.#.| #.X.X.X.X.%.%.",
"^ _ _ _ ^ _ _ _ X.' ( ] ] _ ] ` _ _ ) _ ^ ' ' ' _ _ _ ^ ^ _ _ ] | | ^ _ _ _ ^ _ ] ] _ ] ] _ ` ` _ _ _ ^ _ ' ( ' _ _ ^ ( ( ^ ' ' ",
"a.Y.Y.I.U.Y.Y.Y.Y.I.I.Y.Y.Y.Y.] -.Y.Y.L.I.Y.Y.I.L.J.L.T.U.L.L.#.a.R.I.L.I.Y.Y.Y.Y.I.I.Y.Y.Y.Y.| 6.Y.I.L.I.I.I.Y.L.L.L.T.I.I.L.=.",
"d.v.V.V.D.D.D.D.V.V.D.F.D.c.b.$.7.K.V.x.C.V.F.F.H.c.C.F.C.C.b.6.7.C.V.S.S.D.D.D.V.V.Z.A.D.c.b.$.u.A.V.c.C.A.C.F.c.x.C.F.D.c.c.6.",
"#.q.q.i.s.s.i.q.i.i.i.r.e.e.9.] %.9.9.q.r.p.p.p.i.q.e.p.p.q.8.] #.q.q.i.s.s.i.e.i.i.i.r.p.9.9.] %.q.9.q.e.s.p.p.e.q.i.i.i.e.9.) ",
"..9.q.e.s.i.p.i.e.q.q.e.q.9.%.^ ..9.9.y.i.i.i.y.r.e.i.s.e.p.9.Q ' q.q.i.s.i.i.i.i.e.e.y.q.9.&._ ..9.9.e.i.u.i.i.i.y.s.p.y.i.9.^ ",
"s j j j s j j j j j H ~ j j D ^ j j j j j j j j j j j j j j j s s j s j j s j j j j M ^ D j j ^ j j j j j j j j D j M j j D j h ",
"j j j j j j h h j j E h E ~ E _ ^ E E E E E j E j h h h j j h j j h j j j j j h h j E h E E ~ _ ^ E E j h E j E h j h h h h h j ",
"| j.H.H.H.H.H.C.j.H.J.H.H.H.j.] $.j.N.j.N.j.j.C.N.N.G.N.H.N.g._ | G.H.G.H.H.H.H.j.N.J.C.H.H.N.] | N.N.N.N.j.N.C.C.j.G.G.H.G.g.) ",
"6.K.A.D.D.F.C.C.A.K.F.K.K.b.K.-.6.P.A.c.C.C.A.A.K.K.P.P.P.F.K.#.6.K.v.D.F.F.v.A.b.A.P.K.b.c.K.-.6.I.A.b.b.A.A.b.A.A.P.P.P.A.K.#.",
"#.s.p.s.l.l.k.p.s.l.l.T P 8.k.%.-.p.i.i.p.s.p.p.i.i.B.B.S.m.k.) X.k.s.s.l.s.s.k.k.p.l.i.s.i.i.%.%.p.i.i.p.s.s.i.p.p.B.m.B.p.i.#.",
"..i.k.l.l.l.z.k.k.l.l.2.<.q.p.) #.k.r.e.s.k.p.p.p.p.V.B.V.l.e.) ) p.k.k.z.V.p.U U q.x.k.k.p.r.) %.k.i.i.k.s.i.p.p.s.S.l.V.s.i.X.",
"] p.+.K L L K L G K L L L 8.k.) +.p.p.e.i.p.p.k.i.l.l.l.x.s.e.) ( p.s.9.i.i.e.T F @.e.9.9.e.k.( #.k.i.e.i.s.p.p.i.p.V.l.l.s.q.) ",
") i.) e e e e e a a e 5 e @.p.( #.p.i.r.i.i.i.s.i.s.s.s.z.s.e.) ..q.w 8 8 3 , 5 5 4 5 e 1 r p.) o.k.i.r.i.i.r.p.p.s.k.s.l.p.q.] ",
") k.#.3 a f 5 5 5 5 5 ] 8 q.r.( +.r.e.r.r.r.p.p.p.p.p.s.s.r.e.^ ) q.M v 9 z v N N n v 6 c M q.) #.p.e.r.i.r.p.s.p.i.s.k.s.i.q.) ",
"( p.+.4 j n.j 5 5 8 j ;.i w.e.) #.p.e.r.r.e.p.p.p.p.i.s.p.r.e.H ( 0.} >.B U R G.t.5.4.V | :.9.) #.r.e.e.r.r.i.p.k.i.i.i.s.i.q.( ",
"L k.&.4 f ;.j 5 5 5 *.E 5 e.r.( #.r.e.e.e.w.r.i.i.e.r.i.s.e.q.H ( p.r 3 < & x v n b 9 y - r y.) +.r.e.w.e.e.r.r.r.q.i.s.s.p.9.K ",
") i.@.5 5 5 0 u u 5 j a e w.q.( #.r.s.q.q.q.e.e.i.r.e.i.s.i.9.^ ) e.8 * & = z b n b z % & 9 9.) #.e.q.q.q.q.e.r.i.i.e.i.p.e.9.( ",
") s.O.5 5 5 5 5 8 5 5 4 a s.r.) #.e.q.8.q.q.e.e.i.i.e.i.i.h.i.) ..9.I >.W [ 3.5.t.5.4.! ` R 9.) #.q.9.9.q.q.e.e.p.i.e.i.i.r.9.) ",
"..k.2.4 , 5 5 5 5 4 5 , i f.q.] #.e.q.q.q.q.e.i.p.e.i.i.i.k.s.( ..k.M 3 2 - > b n n x 2 & v y.] &.e.q.e.q.q.r.r.i.r.i.i.i.r.q.) ",
") s.b.a.I f.f.a.d.f.f.d.c.f.q.( +.p.e.e.e.e.e.s.s.s.s.k.i.q.r.H ) k.#.< $ , , , 4 < , , , } p.) #.e.q.e.q.q.r.s.s.i.e.s.i.i.q.^ ",
") k.k.r.F z.z.k.z.z.z.z.k.e.r.) #.s.q.e.e.e.e.p.k.k.h.k.k.s.e.^ ) k.c.u.1.6.6.1.1.1.1.1.6.c.p.] #.e.e.e.e.e.e.p.z.p.r.s.s.z.e.( ",
") k.i.T w q.p.i.p.p.8.o.r.p.p.) o.r.q.r.p.p.i.i.k.s.p.s.k.p.e.^ ( k.p.p.p.k.p.p.s.p.i.p.s.p.r.) #.e.q.e.p.r.i.p.s.s.s.k.p.p.e.( ",
"#.l.K @   Y l.p.k.r.d 1 +.k.p.) o.p.e.r.r.s.r.p.s.k.k.s.l.s.r.^ ) k.p.r.p.z.l.i.s.w.r.i.z.s.p.) +.r.e.r.e.s.p.p.p.s.k.p.l.k.r./ ",
"X.z.G X   ..V.k.p.s.Y F 8.s.k.X.o.p.e.e.p.p.p.k.k.k.k.s.l.k.i.^ ) k.p.p.p.M.x.k.p.s.i.p.r.s.k.] #.r.e.r.s.p.p.s.z.k.k.s.x.k.e.( ",
") z.L + # #.v.l.s.l.l.i.p.r.i.) ..p.r.s.l.l.m.x.k.l.l.l.x.s.i.^ / k.l.p.s.k.l.l.p.l.l.s.i.p.r.] ..r.i.p.s.l.l.l.l.l.z.s.l.k.q.( ",
"..r.q.q.i.x.V.V.x.l.V.x.k.p.q.) ) p.k.x.S.V.D.V.l.z.x.x.k.p.q.^ ) k.p.p.l.x.x.V.k.z.V.l.k.p.q.) ) i.k.V.S.S.V.l.x.x.x.x.l.p.q._ ",
") &.9.p.s.s.s.s.s.i.s.s.y.9.#._ ) %.0.p.B.l.l.i.i.i.s.i.i.q.%.^ ( &.q.e.i.s.s.s.s.i.s.s.y.9.#._ / %.9.p.B.l.l.i.i.i.s.i.e.q.&.^ ",
"E j j ^ ^ H M ' _ E ( ^ j j g ] _ j E D H ^ ( j ~ ~ _ ^ ^ j Q j ^ j j j ^ H H ^ ^ D ^ ^ j j j ( _ j H H ^ H ( H E Q ^ ^ ^ j j j ",
") h f h f f h s f f f f f f s ` ] h f f j j g j f f h f f j E ^ / f f f f f f f g f f g f f j _ ( j f f f f h h g g j h f f a ^ ",
"&.#...o.) ......#.) ..) ) o.#.%.%.%.#...#.#...#.#.....#.#.....&.&.#.#...............) ....) #.%.%.#.o.#.X.#.X.+.X.X.........#.%.",
"k.z.k.k.z.z.k.k.k.k.z.z.k.k.k.z.v.k.k.k.k.z.k.z.l.k.x.z.k.k.k.z.k.z.k.z.z.z.l.z.k.k.k.k.k.k.z.z.V.z.k.z.k.z.k.x.z.k.v.z.k.k.k.z.",
"p.p.r.p.p.p.k.k.r.r.p.p.p.r.s.k.k.k.p.k.p.r.p.k.p.r.p.r.r.r.r.k.p.p.r.r.p.r.p.r.r.i.k.p.p.r.k.k.k.k.p.r.p.r.i.l.p.r.p.p.r.r.r.s.",
"q.9.q.q.9.9.9.9.q.9.q.e.e.q.e.e.9.e.e.9.e.q.q.q.q.q.q.q.9.q.q.9.e.e.9.9.q.9.9.q.9.q.q.r.e.q.r.9.q.q.r.q.9.q.e.e.q.9.q.q.q.9.q.q.",
"9.9.8.8.9.9.8.9.8.9.9.9.9.9.9.8.9.9.9.9.9.9.8.9.9.8.8.8.&.9.9.9.8.8.8.9.9.9.8.9.9.9.9.9.8.&.9.9.9.9.9.9.9.9.8.8.8.9.9.9.&.9.9.8.",
"%.&.8.&.%.%.&.&.&.8.%.9.9.&.%.&.0.&.&.9.%.8.&.&.&.&.&.&.%.%.%.%.%.&.&.%.%.%.%.%.%.9.&.9.9.9.&.&.9.&.8.&.&.&.&.&.%.%.%.%.%.&.%.%.",
"' ] ] ' _ ` _ ` ] ] ] ] ] ] ] ) ] ' ] ` ' ' ` ] ' ] ] ' ] _ ' ' ' ] ] ] _ _ ] ' ] ] ' ] ] ' ] ] ' ' ] ' ` ] ' ] ] ) ] ] ] ` ( ' "
};
