/* XPM */
static char *_1fa7320c9964855aef03d46b6a06ce2bw9dlDuwA33M5rkp[] = {
/* columns rows colors chars-per-pixel */
"64 64 248 2 ",
"   c #040200",
".  c #0B0300",
"X  c #0C0900",
"o  c #060C04",
"O  c #120300",
"+  c #1A0400",
"@  c #120B00",
"#  c #1B0C00",
"$  c #021803",
"%  c #1C1400",
"&  c #111000",
"*  c #041913",
"=  c #240200",
"-  c #230B00",
";  c #2C0700",
":  c #370600",
">  c #2A1300",
",  c #351900",
"<  c #0F250C",
"1  c #3A2300",
"2  c #2D2613",
"3  c #3A3A2E",
"4  c #4C0B00",
"5  c #4C3602",
"6  c #4F3200",
"7  c #523932",
"8  c #6E3235",
"9  c #71281C",
"0  c #324939",
"q  c #314C28",
"w  c #534400",
"e  c #6D5204",
"r  c #796406",
"t  c #49482E",
"y  c #4D4236",
"u  c #68413B",
"i  c #173C4E",
"p  c #373C4D",
"a  c #313C72",
"s  c #523A47",
"d  c #743452",
"f  c #4D3B6A",
"g  c #59386B",
"h  c #4E3C74",
"j  c #553B75",
"k  c #613969",
"l  c #633572",
"z  c #663975",
"x  c #1B4E55",
"c  c #274A47",
"v  c #264A55",
"b  c #344859",
"n  c #235259",
"m  c #34534D",
"M  c #1B5262",
"N  c #0C497E",
"B  c #164C79",
"V  c #08527B",
"C  c #175377",
"Z  c #1A4D67",
"A  c #24477A",
"S  c #374578",
"D  c #304866",
"F  c #54484C",
"G  c #63424D",
"H  c #676B4F",
"J  c #646268",
"K  c #891E14",
"L  c #882A29",
"P  c #883639",
"I  c #8C2C31",
"U  c #962033",
"Y  c #DC3D38",
"T  c #E53A3C",
"R  c #E53A36",
"E  c #87520A",
"W  c #BA5A06",
"Q  c #B85312",
"!  c #8F6F07",
"~  c #B85132",
"^  c #947123",
"/  c #B07313",
"(  c #C65507",
")  c #CC4B1B",
"_  c #CC4916",
"`  c #D24A19",
"'  c #D34815",
"]  c #C75215",
"[  c #C54C0E",
"{  c #CD4C22",
"}  c #C84C26",
"|  c #D44B22",
" . c #D64528",
".. c #D94136",
"X. c #CD463D",
"o. c #E34139",
"O. c #C66720",
"+. c #9C1C43",
"@. c #9E1E59",
"#. c #A61E4C",
"$. c #9B2648",
"%. c #822B55",
"&. c #892D5B",
"*. c #932953",
"=. c #912A5A",
"-. c #9A2253",
";. c #873456",
":. c #883549",
">. c #A5254D",
",. c #AA2349",
"<. c #A62950",
"1. c #8A2D61",
"2. c #912663",
"3. c #DA3B45",
"4. c #CF3D50",
"5. c #E53844",
"6. c #BC514A",
"7. c #C84547",
"8. c #D94344",
"9. c #C34752",
"0. c #C25F55",
"q. c #E54141",
"w. c #C35662",
"e. c #60815D",
"r. c #B69614",
"t. c #968429",
"y. c #B49A3B",
"u. c #BCAA32",
"i. c #978907",
"p. c #DAAC06",
"a. c #D5B305",
"s. c #DDB404",
"d. c #D5B50C",
"f. c #DCB30C",
"g. c #D5BA0E",
"h. c #D8AB1A",
"j. c #CEB419",
"k. c #DBB314",
"l. c #D5B517",
"z. c #CBB210",
"x. c #E2B303",
"c. c #E2B20B",
"v. c #E7AC16",
"b. c #E3B318",
"n. c #E5AB0D",
"m. c #CF9939",
"M. c #EB9C33",
"N. c #CAAC29",
"B. c #D6AD29",
"V. c #CBB426",
"C. c #D6B627",
"Z. c #C9AC37",
"A. c #D6AC3A",
"S. c #CBB23B",
"D. c #C8B437",
"F. c #D4B23C",
"G. c #D7B436",
"H. c #E3B627",
"J. c #E7A738",
"K. c #EEA82C",
"L. c #CC9D10",
"P. c #FFCD3A",
"I. c #FFCC34",
"U. c #FFD536",
"Y. c #FFD23C",
"T. c #FFDA38",
"R. c #F9D029",
"E. c #F5E139",
"W. c #BCAD49",
"Q. c #BBB749",
"!. c #BAB758",
"~. c #B8AC5D",
"^. c #B8B568",
"/. c #B9AA74",
"(. c #BAB377",
"). c #AEB46F",
"_. c #9F8D61",
"`. c #D39B54",
"'. c #EF9B50",
"]. c #C7AB49",
"[. c #D6A846",
"{. c #C4B344",
"}. c #CBB443",
"|. c #C7B44B",
" X c #D3B448",
".X c #C7AC57",
"XX c #D3AB57",
"oX c #C8B457",
"OX c #D4B156",
"+X c #E7A946",
"@X c #E8A952",
"#X c #CC9D67",
"$X c #C5A966",
"%X c #D6AA66",
"&X c #C8B567",
"*X c #CDB070",
"=X c #FFCD42",
"-X c #FFCC48",
";X c #FFD343",
":X c #FFD249",
">X c #F9DA4A",
",X c #FFCC52",
"<X c #FCD657",
"1X c #EADD40",
"2X c #F3E048",
"3X c #C8C26F",
"4X c #FFC763",
"5X c #CAC147",
"6X c #353C85",
"7X c #2F3A81",
"8X c #094B89",
"9X c #174C8A",
"0X c #0A5588",
"qX c #0C4C97",
"wX c #154B97",
"eX c #095293",
"rX c #04549A",
"tX c #155296",
"yX c #135987",
"uX c #294686",
"iX c #374385",
"pX c #0152A2",
"aX c #0058A3",
"sX c #0D53A2",
"dX c #116495",
"fX c #444488",
"gX c #9EA98B",
"hX c #A9B884",
"jX c #B0B18D",
"kX c #868684",
"lX c #C6B8A6",
"zX c #FFFEAF",
"xX c #FFFFB9",
"cX c #DCCBA7",
"vX c #FFFCC9",
"bX c #FFFEDD",
"nX c #FEF9D7",
"mX c #E5E1CB",
"MX c #FFECE9",
"NX c #FEFEE5",
"BX c #FEFDEC",
"VX c #FDF5E9",
"CX c #FFF4F2",
"ZX c #FDFDF5",
"AX c #F7FDFB",
"SX c #FFFFFE",
"DX c #FAF9F6",
"FX c #E5E5E5",
/* pixels */
"SXSXSXSXSXSXSXSXSXSXSXSXSXSXSXSXSXSXSXSXSXSXSXSXSXSXSXSXSXSXSXSXSXSXSXSXSXSXSXSXSXSXSXSXSXSXSXSXSXSXSXSXSXSXSXSXSXSXSXSXSXSXSXSX",
"SXSXSXSXSXSXSXSXSXSXSXSXSXSXSXSXSXSXSXSXSXSXSXSXSXSXSXSXSXSXSXSXSXSXSXSXSXSXSXSXSXSXSXSXSXSXSXSXSXSXSXSXSXSXSXSXSXSXSXSXSXSXSXSX",
"SXSXSXSXSXSXSXSXSXSXSXSXSXSXSXSXSXSXSXSXSXSXSXSXSXSXSXSXSXSXSXSXSXSXSXSXSXSXSXSXSXSXSXSXSXSXSXSXSXSXSXSXSXSXSXSXSXSXSXSXSXSXSXSX",
"SXSXSXSXSXSXSXSXSXSXSXSXSXSXSXSXSXSXSXSXSXSXSXSXSXSXSXSXSXSXSXSXSXSXSXSXSXSXSXSXSXSXSXSXSXSXSXSXSXSXSXSXSXSXSXSXSXSXSXSXSXSXSXSX",
"SXSXSXSXSXSXSXSXSXSXSXSXSXSXSXSXSXSXSXSXSXSXSXSXSXSXDXSXSXSXSXSXSXSXSXSXSXSXSXSXSXSXSXSXSXSXSXSXSXSXSXSXSXSXSXSXSXSXSXSXSXSXSXSX",
"SXSXSXSXSXSXSXSXSXSXSXSXSXSXSXSXSXSXSXSXDXSXSXSXSXDXSXSXSXSXSXSXSXSXSXSXSXSXSXSXSXSXSXDXSXSXSXSXSXSXSXSXSXSXSXSXSXSXSXSXSXSXSXSX",
"SXSXSXSXSXSXSXSXSXSXSXSXSXSXSXSXSXSXSXSXSXSXSXFXo SXDXSXSXSXSXSXSXSXSXSXSXDXSX  FXSXSXSXSXSXSXSXSXSXSXSXSXSXSXSXSXSXSXSXSXSXSXSX",
"SXSXSXSXSXSXSXSXSXSXZXZXZXZXZXSXSXSXZXZXBXNX  O O . nXZXSXSXSXSXSXSXSXZXZXnX. O . . BXBXZXZXSXSXSXZXZXZXZXZXSXSXSXSXSXSXSXSXSXSX",
"SXSXSXSXSXSXSXSXAXSX@ . O H BXDXSXSXF   @ O y.F.G.Z.O . 2 SXSXSXSXSXSX2   # ].F.F.].+ @ . y SXCXAXZXH o X & SXAXSXSXSXSXSXSXSXSX",
"SXSXSXSXSXSXSXSXSXZXO /./.O . . .   . _.$X[.+XJ.K.A..X*XO O . O O . . @ ~. XA.K.h.G.XX$X/.O O O   X X ^.(.  ZXSXSXSXSXSXSXSXSXSX",
"SXSXSXSXSXSXSXSXSX  &X XoXoXoX.X$X$X*X$X@X'.4 ~ ~ 4 XX&X.X.X XD.N.F.oX.XZ.A.4 Q <X; +X@XXX&X.XoX|.|.|.|.|.&X. SXSXSXSXSXSXSXSXSX",
"SXSXSXSXSXSXSXSXSX. > S.}.# e ^ r , + ; O.} 7.4.7.6.vX*X- ].S.j.a.k.+X: L.,X} ~ <X<XW W : - 4 E / e > S.]., . SXSXSXSXSXSXSXSXSX",
"SXSXSXSXSXSXSXSXZXNX. ~.}.w vXNXNXNXNXnX6.....Y Y 7.VXNXNXbXbXxXE.T.Q ] ;X:X} } ,X-X) ) ;X;XQ Q ;XE.5 S.&XO NXZXSXSXSXSXSXSXSXSX",
"SXSXSXSXSXSXSXSXZXZXt @ |.].bXAXAXAXAXCX6...T R R 7.CXSXSXSXSXnX2XY.) ) Y.;X{ | ;X=X| ) Y.U.] ) :XE.j.S.O t ZXSXSXSXSXSXSXSXSXSX",
"SXSXSXSXSXSXSXSXZXZXZX@ ].].bXAXAXSXZXCX6.8.T R R 7.CXSXSXSXZXvX2X;X) ) U.U._ ) ;XP.` ) Y.Y.) } ,X1XV.}.. CXZXZXSXSXSXSXSXSXSXSX",
"SXSXSXSXSXSXSXSXZXSXSXX r OX+ VXCXCXCXMX9.3.T R T 7.MXCXCXCXCXvX>X:X} ) U.U.) ) Y.P.) _ Y.Y.| } <X# V.r . SXSXZXSXSXSXSXSXSXSXSX",
"SXSXSXSXSXSXSXSXZXZXSXNXO .X%X~ 6.6.6.7.8.5.5.5.3.3.7.7.6.7.8.) ;X;X) { Y.Y.) ` ;XP.` ) Y.Y.| | ,XV.{.O NXSXSXSXSXSXSXSXSXSXSXSX",
"SXSXSXSXSXSXSXSXZXZXSXBXX .X'.] ..3.3.3.5.5.5.5.3.3.5.T Y Y R ' ;X;X{ { =X;X` ` ;XP.` ) Y.Y.| | -Xj.|.X ZXSXSXSXSXSXSXSXSXSXSXSX",
"SXSXSXSXSXSXSXSXZXZXSXBXX .X+X[ ..5.5.T T T T T Y Y R R Y  . ._ ;X;X{ { =X=X_ ` Y.P.` ) Y.Y.| | =Xj.|.X ZXSXSXSXSXSXSXSXSXSXSXSX",
"SXSXSXSXSXSXSXSXZXZXSXBXX .XM.[ ..5.5.5.T T T R Y Y Y Y ..Y ..] ;X:X{ { =X;X_ ` ;XP.` ) Y.Y.| | =Xj.|.X ZXSXSXSXSXSXSXSXSXSXSXSX",
"SXSXSXSXSXSXSXSXZXZXSXNX. XX'.) Y 5.5.5.5.T R R T o.Y ..q.5.5.| ;X:X) { =XP._ ' Y.P.` _ Y.P.| | -XC.|.. ZXSXSXSXSXSXSXSXSXSXSXSX",
"SXSXSXSXSXSXSXSXAXSXAXNX. %X@X~ 7.9.9.7.5.T R o.q.8.7.7.7.7.9.~ :X:X) { =XP._ ' Y.P.` _ Y.P.|  .,XC.W.X NXZXSXCXSXSXSXSXSXSXSXSX",
"SXSXSXSXSXSXSXSXSXSXZXNXO *X#XnXCXCXCXMX7.T T ..3.7.MXMXCXCXCXvX>X:X) { =X=X_ ' Y.P.` _ Y.P.|  .4XN.oX@ nXZXZXSXSXSXSXSXSXSXSXSX",
"SXSXSXSXSXSXSXSXSXSXSX% # &X+ VXZXAXZXVX9.3...8.3.9.MXCXZXSXSXnX>X;X) { P.Y._ _ Y.P.) _ Y.Y.`  .4X> }.% . ZXZXDXSXSXSXSXSXSXSXSX",
"SXSXSXSXSXSXSXSXSXSXSX  ].|.cXSXSXAXDXCXw.4.3.8.3.<.SXSXAXAXSXnX<X:X) ) U.U.[ ) ;X:X_ ) ;X;X) | ,Xl.z.}.@ ZXSXSXSXSXSXSXSXSXSXSX",
"SXSXSXSXSXSXSXSXSXSXZXO S.F.vXBXNXNXNXbX0.7.X.8.X.~ VXNXNXNXNXvX>XI.] [ R.R.( [ Y.P.] Q P.I.] _ :XR.d.D.O BXSXSXSXSXSXSXSXSXSXSX",
"SXSXSXSXSXSXSXSXSXZX. 1  X= zXxXxXxXzXzXO.Q Q ] ] Q xXvXxXxXvXzX>XY.( W T.U.W W T.U.W W Y.Y.( ( I.R.> F.5 O BXSXSXSXSXSXSXSXSXSX",
"SXSXSXSXSXSXSXSXSXBX. ].F.G.F.F.F.F.S.G.J.M.M.M.'.'.[.}.{.{.oXoXG.h.M.K.V.V.@X+Xb.p.K.v.n.n.K.K.n.a.l.N.OX+ BXZXSXSXSXSXSXSXSXSX",
"SXSXSXSXSXSXSXSXSX  t.G.l.k.k.k.b.k.k.k.b.v.b.r.= = = F.V.u.@ . # A.B.B.% . = = H.s.f.b.c.n.v.v.n.s.a.l.B.^ + SXSXSXSXSXSXSXSXSX",
"SXSXSXSXDXSXDXZXt . Z.k.f.s.s.x.x.x.x.s.c.f.k.r.+ *X[.B.C.i.@ (.1 F.H.B.X jXjX- G.f.a.a.f.c.v.n.c.x.s.a.k.F.+ y SXSXSXSXSXSXSXSX",
"SXSXSXSXSXSXSXNXX |.C.f.s.s.s.s.x.x.x.f.k.l.l.r.O . N.C.N.# r OXB.b.p.G.@ % O + B.f.d.a.d.k.k.f.x.x.s.f.p.C.Z.O NXSXAXSXSXSXSXSX",
"SXSXSXSXSXSXSX  ^.S.l.s.s.s.s.f.s.s.f.k.l.l.l.r.+ .XG.C.u.> > [.H.b.p.G.5 jX/.# r.a.k.g.g.g.g.d.s.x.x.s.s.l.D.&X. SXSXSXSXSXSXSX",
"SXSXSXSXSXSXDX. X &XB.p.s.s.s.f.g.g.k.k.k.R.l.C.- S.V.C.V.u.= 4 ; N.C.Z.# @ 1 1 j.a.d.d.a.a.z.z.a.p.s.s.x.h..XX   SXSXDXSXSXSXSX",
"SXSXSXSXSXSXSXSX. O N.k.V.D.S.{.Q.S.A.J.+Xm.@XW.!.^.!.W.W..X%X%X#X%X%X&XjXhXhX^.|.F.+XJ.J.G.{.Q.|.{.D.V.b.B.-   ZXSXSXSXSXSXSXSX",
"SXSXSXSXSXSXSXZXZXX C.D.q c c c 0 7 9 K K L 7 p v x c c 3 s P I I P 8 s D Z i i F 8 I L L 9 7 m v v c q D.G.X ZXSXSXDXSXSXSXSXSX",
"SXSXSXSXSXSXSXDXAXX D.Q.n eXeX9XA f d +.+.=.k iXtX8XeXB S z %.*.$.&.z fXwXsX8X9XfXz 2.-.$.d j uXwXeXeXn Q.G.@ SXSXSXSXSXSXSXSXSX",
"SXSXSXSXSXSXSXSXSX. D.Q.M rXrXqXuXh %.>.>.=.l 6XwXpXaXtXS g d :.:.d j 7XwXpXqX9XfXz =.-.$.d h uXqXrXrXM Q.D.. SXSXSXSXSXSXSXSXSX",
"SXSXSXSXSXSXSXSXSX. D.Q.M pXpXqXuXh %.>.>.=.l 6XwXpXpXtXD G = : 4 ; G D 9XrXqXwX6Xz 2.>.$.%.h uXqXrXpXM !.D.. SXSXSXSXSXSXSXSXSX",
"SXSXSXSXSXSXSXSXSXX D.Q.n rXrX8XA f %.,.,.*.k iXwXpXrXB % %X%Xm.XX&X^.< Z wXqXwX7Xl 2.@.<.1.h uXqXrXrXM Q.D.. SXSXSXSXSXSXSXSXSX",
"SXSXSXSXSXSXSXSXSXX S.!.n eXeX8XA f %.,.,.*.k S tXqXN i 5 ].A.E = ! 5X).c B qXwX7Xg 2.@.<.1.h uXeXeXeXn !.{.. SXSXSXSXSXSXSXSXSX",
"SXSXSXSXSXSXSXSXSX  t.3X* C eX8XA f %.>.>.=.l iXqX8Xn gXO ].G.h.k.l.N.w jXM eXwX6Xg =.,.>.&.h uXtX8XyX* ^.t.  SXSXSXSXSXSXSXSXSX",
"SXSXSXSXSXSXSXSXSXmX# ^.e.M 8XwXuXf %.>.>.=.l iX8XyX0 (.O OXG.H.H.C.B.|.< x 0XwXiXl *.,.>.&.h uXtX8XM J ).# mXSXSXSXSXSXSXSXSXSX",
"SXSXSXSXSXSXSXSXSXVX. ^.).0 N wXuXf %.>.>.=.l iXqXV $ ~.> A.+X6 - > A.].).* 0XwXiXz *.,.>.&.f uX8XN c hX^.. NXSXSXSXSXSXSXSXSXSX",
"SXSXSXSXSXSXSXSXSXZX. /.^.o C wXuXf %.$.>.=.l iXtXV < ^.S.B.G.! u.{.6 W.).* 0XqXiXz *.+.+.%.f A 8XZ $ ^./.. ZXZXSXSXSXSXSXSXSXSX",
"SXSXSXSXSXSXSXSXSXZXCXO  X!.n B a f %.$.>.=.l iXeXyXm ).w l.h.V.D.S.i.Q.$ M 8XqXiXz *.+.+.&.f A B c !.|.O CXZXDXSXSXSXSXSXSXSXSX",
"SXSXSXSXSXSXSXSXSXSXSX. y.oXH v S h %.$.>.=.l iX8X0Xx q Q.V.C.C.V.- u.!.m B eXtXiXz *.,.>.&.f D m H W.y.. SXSXSXSXSXSXSXSXSXSXSX",
"SXSXSXSXSXSXSXSXSXSXSXNX  (.^.O p h &.>.>.=.l iX9X8XV n ).W.}.; h.j.|.hXx 8XdXN iXz *.+.+.%.h b X oX^.. NXZXAXAXSXSXSXSXSXSXSXSX",
"SXSXSXSXSXSXSXSXAXSXSXDXq X $X$X# s :.$.>.=.l iXN 8XrXC 0 O %X@XJ.[.# 0 C rX0X0XS l *.$.U :.s % .XoX. 3 BXDXSXAXSXSXSXSXSXSXSXSX",
"SXSXSXSXSXSXSXSXSXSXSXSXZX  . /.XX`.P I $.=.z a 0XrXrX9Xb G :.U U P G b 8XrX0XV S g =.$.L E `..X*XX   ZXSXSXSXSXSXSXSXSXSXSXSXSX",
"SXSXSXSXSXSXSXSXSXSXSXSXSXSX  . OX@X#X: L 8 k D B yXeX9XS g 1.@.@.2.k a 9X0XyXC p G P I : %Xm.OXO   ZXZXSXSXSXSXSXSXSXSXSXSXSXSX",
"SXSXSXSXSXSXSXSXSXSXSXSXAXZXSX_.O t.$X.XXX^ 1 t m D A A a k &.-.-.&.k a A C x c t , E @XXX$Xt.+ _.ZXSXSXSXSXSXSXSXSXSXSXSXSXSXSX",
"SXSXSXSXSXSXSXSXSXSXSXSXSXSXSXZXNXX @ &XoX.X3X(.jX2   * y u P I I P u y * * < gX/.&X.X.X.X+ . BXZXSXSXSXSXSXSXSXSXSXSXSXSXSXSXSX",
"SXSXSXSXSXSXSXSXSXSXSXSXSXSXSXSXSXZXbX@ . % (././.$XoX{.S.F.J.J.+X+X X|.!.^.(.(././.> O O NXZXZXSXSXSXSXSXZXZXSXSXSXSXSXSXSXSXSX",
"SXSXSXSXSXSXSXSXZXZXSXSXSXSXSXSXSXSXDXZXSX2 . . - = r u.N.C.h.h.H.h.B.F.u.r @ # . . 2 SXZXZXDXAXSXSXSXSXZXZXZXZXSXSXSXSXSXSXSXSX",
"SXSXSXSXSXSXSXSXZXZXZXSXSXSXSXSXSXSXSXZXDXZXZXNXBXlXO . O 5  XG.B.[.6 O . . lXNXNXBXSXSXZXZXSXSXSXSXSXSXSXZXZXZXSXSXSXSXSXSXSXSX",
"SXSXSXSXSXSXSXSXZXZXZXSXSXSXSXSXSXSXSXDXSXSXZXSXSXSXSXZXCX  O oX.X> O ZXZXSXSXSXZXSXSXSXZXZXSXSXSXSXSXSXSXZXZXZXSXSXSXSXSXSXSXSX",
"SXSXSXSXSXSXSXSXSXZXZXSXSXSXSXSXSXSXSXSXSXSXZXSXSXSXSXSXDXBX@ . @ @ BXSXSXSXSXSXZXSXSXSXZXZXSXSXSXSXSXSXSXSXSXSXSXSXSXSXSXSXSXSX",
"SXSXSXSXSXSXSXSXSXSXZXSXSXSXSXSXSXSXSXSXSXSXSXSXSXSXSXSXSXSXSXkXJ DXSXSXSXSXSXSXSXSXSXSXSXSXSXSXSXSXSXSXSXSXSXSXSXSXSXSXSXSXSXSX",
"SXSXSXSXSXSXSXSXSXSXSXSXSXSXSXSXSXSXSXSXSXSXSXSXSXSXSXSXSXSXDXSXSXSXSXSXZXZXSXSXSXSXSXSXSXSXSXSXSXSXSXSXSXSXSXSXSXSXSXSXSXSXSXSX",
"SXSXSXSXSXSXSXSXSXSXSXSXSXSXSXSXSXSXSXSXSXSXSXSXSXSXSXSXSXSXSXSXSXAXSXSXZXZXSXSXSXSXSXSXSXSXSXSXSXSXSXSXSXSXSXSXSXSXSXSXSXSXSXSX",
"SXSXSXSXSXSXSXSXSXSXSXSXSXSXSXSXSXSXSXSXSXSXSXSXSXSXSXSXSXSXSXSXSXSXSXSXSXSXSXSXSXSXSXSXSXSXSXSXSXSXSXSXSXSXSXSXSXSXSXSXSXSXSXSX",
"SXSXSXSXSXSXSXSXSXSXSXSXSXSXSXSXSXSXSXSXSXSXSXSXSXSXSXSXSXSXSXSXSXSXSXSXSXSXSXSXSXSXSXSXSXSXSXSXSXSXSXSXSXSXSXSXSXSXSXSXSXSXSXSX",
"SXSXSXSXSXSXSXSXSXSXSXSXSXSXSXSXSXSXSXSXSXSXSXSXSXSXSXSXSXSXSXSXSXSXSXSXSXSXSXSXSXSXSXSXSXSXSXSXSXSXSXSXSXSXSXSXSXSXSXSXSXSXSXSX",
"SXSXSXSXSXSXSXSXSXSXSXSXSXSXSXSXSXSXSXSXSXSXSXSXSXSXSXSXSXSXSXSXSXSXSXSXSXSXSXSXSXSXSXSXSXSXSXSXSXSXSXSXSXSXSXSXSXSXSXSXSXSXSXSX"
};
