/* XPM */
static char *grass1707159499[] = {
/* columns rows colors chars-per-pixel */
"64 64 78 1 ",
"  c #3E5F1D",
". c #366515",
"X c #3B6516",
"o c #3D6A16",
"O c #37651A",
"+ c #3C641C",
"@ c #3D6A1C",
"# c #3F7015",
"$ c #3D721A",
"% c #3D6521",
"& c #3E6A21",
"* c #406615",
"= c #426916",
"- c #41651D",
"; c #436B1D",
": c #486E1E",
"> c #44721D",
", c #4A741E",
"< c #45781E",
"1 c #4B7A1E",
"2 c #517E1F",
"3 c #405F24",
"4 c #426621",
"5 c #446C22",
"6 c #496D24",
"7 c #426628",
"8 c #466D29",
"9 c #4C6F29",
"0 c #457323",
"q c #4A7424",
"w c #467A22",
"e c #4C7B24",
"r c #467129",
"t c #4C742A",
"y c #4D7A2A",
"u c #517626",
"i c #517D25",
"p c #50762A",
"a c #527C2B",
"s c #5A7F2F",
"d c #4F7731",
"f c #4F7931",
"g c #547731",
"h c #537D31",
"j c #4F821B",
"k c #50841E",
"l c #528A1F",
"z c #5C911F",
"x c #4E8125",
"c c #4E832B",
"v c #538326",
"b c #588527",
"n c #548A26",
"m c #5A8C26",
"M c #54832B",
"N c #59852C",
"B c #558A2C",
"V c #5A8B2C",
"C c #569125",
"Z c #5D9326",
"A c #55922B",
"S c #5C912D",
"D c #558331",
"F c #5A8532",
"G c #568A31",
"H c #5B8C32",
"J c #5C8639",
"K c #5C8C39",
"L c #5D9133",
"P c #5F9138",
"I c #618D2E",
"U c #61932E",
"Y c #618C33",
"T c #61873A",
"R c #618C3B",
"E c #619233",
"W c #629139",
"Q c #669340",
/* pixels */
"bNNN0qq0DDDMeiii1,,p9ptqFVVVX+%%r0<<cBBMnvMB0eqyNVVB$O&@GLYE;66:",
"bNNN000qDcyNeiui11ua9puqHVVGXX%%r000MBBBvcBMwtpyVVVG$&&&LHVY,66;",
"MNNa,,,,MMMFuaauquuuqu6,VBVGoX+%r600DBMBMnMMeepebbNGO&&5HHYY;,0q",
"NGNa1>>>xMMNqggsuuuuupqeHHHN@X--rq0rDBcBBMGNqqqqVVHG@&&@KYYV,:;5",
"<0qevvvvEEYH--  9u6,savve1xMqeauyttwGDGBBBFNqqu,VZLK-&@-qq,iiNDh",
"wwwwavv2VEHHX-  996uNNMMxxeceeauytttGGGBGBBF,u6,UUWK@@X@pu,,iMNh",
"wrw<NMvvVEHYX + 9p6qaNMvxjevuaauuqewGBcGBGFFquq,USEHoXo=qpyqvMaD",
"tttrsaMiHLHH.XX-9996sDMMxeceueapu1,wBGGcGGGNq,u1LSPL>o*=tgr0NNyM",
"qqqq;;;$MMBcBBDD---4 +@.HNHF>60:NbVVvxMcMccDqauuSBHHINYY4 O+eiNe",
"0q6q;5;@DBBcGBGG*-444+@OKHFY,q66IIIVMvMccDsDeaauLLLHVIIY +%Oaeix",
"0qqt5550DDGcBnBM* -4%&%@FTFY=0;0IbbIaMsMyDaMuiiuHGHSmIIH.O+ DMMv",
",qqq&5&&DDccBBBV**-+%++@JRFFqq00INIsMNDhFDDaieeeHHLVmIUYX  +yaau",
"NBDFyfffr$<<xxvM,uuutttt+XX-yhhaX*o=XX+X000eNGVGBBBvxjeiRTRT4-=;",
"BMDDtwrww00wMBMNu:6q0qrt4 X DNDM-X-@++++tt0qFVVnBBmnxxxeEYYR+---",
"BGGDyywer00wahDsqu,,qqq9  - havc@++%++3 9tq0VVmBnnBBcyevUVIY;564",
"GDGDttttw000DNDM,,,,>,,qX+ *MDxM@@@4++-Xrqq0DBBBBBmvMyyeIUIH;+44",
"@@;40r6r660>NGVVVVVMmnvmMBMH0000KKRHNibvEEPPww$0BHVV>;0>EULWette",
";6:48886q6:,HVnnBVmvnvnnBBvB<tqrPLLVbvivYLPP&&r0HHVV>>5>ESLPrtey",
"5:;;898866:,FHVVVbVBVBBBcGMG000wHHVYbiavYLLLw$00GHHV,>5>HLLLrtqq",
":=;:6656666qFIVVnVVVMMMNDKGGww<<LSEYasMNWELHww>>HHVBq@>>ELLLxyey",
"iiaaqqtt---X,>>>MmVBeeqtO..@ccMvnlbb;@;@NMBBvBHG<<<1MNDMx<xx0wrw",
"iiie0666----5>>>BBVD0rwt@OOXcMBxmnVF-@@@FMnBnVVB1<,wMaDcjx<xwyye",
"i2ie>0qq+---60q0bVVHryty.@@.DcccvnNJ&44&GcxnVVGG0,wwahDDeeeyttqq",
"v2xe,<r5-+@-5000FGBG0eqtXXo.MccMVbFJ%5&@DMvBVGHHerqqDDDayyyyyyty",
"ILLLwc&ffydt-5&@tyqesMiiYNVHMBcc>,08&5%@axvx>#$;;5;;tq0qo@@@--5@",
"VLLL$$wwrwtd&&&$eyteiiivIVVHxBMG008r4&+@aMvx##;5;;5&q0qe@&&4-;44",
"GLLL$cwywttt@@@@ttteivknmmmVMMMD0rrr455;yMcc>@055;5@qr00+%4---44",
"LLLGcw$0wytr05@5gpyeNvkjzUVVvMND0rr5@oXXMMMy0;@;;5;@qwwr&4444-44",
"w$wyxccDrw00qyty%+@=VYVSZUUUVVNF&85qMFND>>0wysNsuqyyGGGK47566665",
"ww0wwcyc0006aaaa44-=HHmVUUUEnVbH005;aaaar000DsssqewtGGGG0586:;65",
"q00wcDcc00,,uuuu----YYLSSSUUmVbF&0;>avMa0080hNibeetwABBB&565:;44",
"ttqefcff>,,;aiei=-oXKHHSUUUEbNNF;0>;MvaN0rr6NabvewwwGLBG;04:;:;0",
"%-*XycycSBSGMMnvSmBHMbvvIUVS1uqq0rt$cwwy&+%@YEEENMBMo.ooINNFaivi",
"33+XyyyeLBBBBBBnBBmLvMbbSUUEeqtytrw$ywxr%+&@YHSLBBcDX@@XININisMv",
"3%+XyfycGBLGMMnnAmVVvvvvVUVE1eypr00>eexw@@&OQEEUMVBDX+X+sINIveaa",
" 3++yyetGKKGHvvnABVVnnmnEEEV1eqqqw01eewr@@@&KKYIMGDh;+XXFFFNviMs",
"8r9qFFNFO..@GHVBBcBcVVVVvMBBNGFHqeeq5655hDfw5@===o@;sMFNqq00,,,q",
"qrq6NNNs@%O@GLBAccnxHZZVVmBBGNNNeeqq4777hcDD++-+-X@XNMNN6r80q2q2",
"qq00NbNFO%&OGBBLDccMSVVmMBMBGVVV<weq5878hycy&&44-@-oFMbD0r6qq,,,",
";>,,NbNF+%%OHVBHDDGxHZVVBBGcGbVVe1qy@54&hDDy4X+-=o@@DFDN0r0>uuqu",
"VNFNv2iitddtGnnBO$@oBbbnxxxxGBVVVVVVnnvB>0;;GHNNNhaDO%OOeeq2;;66",
"VNGNi2iiahyyBbnB$&;obVbb1xexLHIVVIVVlljn;050FBVGaMMDO%%@e122q666",
"NBFDiibiyqyeNBnB%%$oNNFVvxecBHVVVIVHnCnn>5;>NBBcMNBD%%OOi1k16768",
"NNNNiisiaeuvMnMM&&@&sFNNeexxBHHYVHHHcccM00;qNGKGyMccOOO@e12eq696",
">>>0=@;oGHVBvvvvXX-+6q,:YFVNi1qqueyy&O@@qaaq-X%&GDGGxyxyeuaauuqu",
";@o$5;5$HLVVxceM+---46::NNNb1eeyiqty%%%+yyay@@&5DDccexxeayyauquu",
"o;&>&&&&HmVVaaaaX- -666:YNVN1etyqeyp+%7+aqee+-4@DGccyxeieypuqqtt",
"0@0&&&&&HVSViMaa+* 46qq=FVNVeuyyyqqa+%- yqaaX@-occGDMeiaapau2eqy",
"eqttrt88--oovccDyauiNaMMMaNh@OOO0&<;r8qq@&&@FGMNcvaa;o45++ Xevxx",
"wqttr8rt-5@XvxccyeexvMvvaNsD+@@O&&;;t6q5+&55GMBGcyMy-@44+-++ccxk",
"1<ttq6qr4&4@BxcceeeexxvMaFaD++X@r$;;rrq6-@@@DBNMeiMy;@55   +ycxx",
"1<ew05q6&&&@ccccex1xvvvMsFhh&+X+r$>06r06;--=MGGGMMae>@++++--hMyc",
"CnFGNMNh%%%ODccBcMvvBBGG;o05FDFDeeie556-NNFai1wy0weeMGJK-44-apyq",
"VVVVbvMs%%%ODMcMMMMvHBDG,;>;FFHNxeua44-:NNYNi1eyew0wDGGD;0--gyyy",
"VGHHNbbs%%%%hMMBNMMMBGMG$;0;FvMN1eie-:::Tsssi,erqwwwGGGGo$;@pypa",
"HHFFvvibOO%%FNDDhMNNFGGG>$>#VBnnveii--:=ssFFewMyqtewGGBG$oo-eeeq",
"%XXXIIII-545506;-=;oeeycPGGLLLZSMMNMq6u6-- +aiec;00$GGBBBBBDGHGG",
"%+-XIIII;4466;6::;;=yywyKHHHAZAZMyvM6qu:-+-+aaMa00$$GABBBBBBGBHA",
"%%+ TIII=;;4:666-=X@eeewLGHLVAAAccMM:u6: -%%NvMv@;&$GGLABBBBAGLA",
"+O+*TIII=6;::4985=;;wewxKKHHLSSAxcxM;qup4%%+aexx00$$GABBcBBGGGBB",
"RRRKie1eqq06-644THHHGGGGxxwwee11LLLGXXX g9dtHSSHwtwwxxwe11q00<<<",
"HYRW1111qqq6:-46KPLLGABB$cyyeqexGAmHX+X+ttd0HBmAewwwww<wqqqq00<0",
"UZSHeeeeqqq6:-46KLGAAAAGxycyayaeAAALO% %tteqLVmGwwwweeuaqqp9qr0r",
"zZSHxwwttrq6::6-PAAAnABBwyyyttpeSCnG %O tyqqZCSAxwwweeeqtu9pur0q"
};
