/* XPM */
static char *result[] = {
/* columns rows colors chars-per-pixel */
"64 64 76 1 ",
"  c #ACA36D",
". c #ADA373",
"X c #AFA872",
"o c #B3AB75",
"O c #B6AC79",
"+ c #BBB47D",
"@ c #BEB683",
"# c #BFB488",
"$ c #C0B782",
"% c #C2BA83",
"& c #C1B58B",
"* c #C6BD89",
"= c #C8BE8B",
"- c #CABE94",
"; c #C7C087",
": c #C8C287",
"> c #C7C089",
", c #CAC28C",
"< c #CDC690",
"1 c #CFC891",
"2 c #CFC49A",
"3 c #CFCB9C",
"4 c #D1C794",
"5 c #D2CB95",
"6 c #D9CF97",
"7 c #D2C59A",
"8 c #D6CE99",
"9 c #D9CE9C",
"0 c #D6D197",
"q c #D8D297",
"w c #D6D099",
"e c #DBD39D",
"r c #DFD99E",
"t c #D7CBA0",
"y c #DBCDA4",
"u c #DDD5A2",
"i c #DFD8A1",
"p c #DED4A9",
"a c #DCD8A8",
"s c #E0D5A3",
"d c #E3DCA5",
"f c #E1D5AA",
"g c #E5DAAD",
"h c #E9DEAD",
"j c #E6DAB1",
"k c #E9DBB2",
"l c #E3DEBD",
"z c #E7E0AA",
"x c #EBE2AE",
"c c #EEE3B5",
"v c #EFE8B3",
"b c #EEE3B9",
"n c #F0E4B3",
"m c #F2EAB4",
"M c #F2E6BC",
"N c #F8E7BF",
"B c #F4E9BD",
"V c #F8EDBF",
"C c #FBF4BE",
"Z c #EEEAC9",
"A c #F2EAC5",
"S c #F9EDC2",
"D c #F0EAC9",
"F c #FFF6C7",
"G c #FFFAC3",
"H c #F7F4CF",
"J c #FDF6CC",
"K c #FEFACC",
"L c #F6F4D4",
"P c #F9F5D2",
"I c #FFFED2",
"U c #F6F4D8",
"Y c #FFFEDD",
"T c #FEFBE5",
"R c #FCFCEC",
"E c #FEFFF1",
/* pixels */
"=-=fgfffgffeuueddhhgreer5161r6r6xxhhsrsse8855iuiuueuuAHPPH<,<<ww",
"-==ffgdggdgeeuehgghh6er65616r66rhhgjdee9q3555iiiitueuAHHHH,<,,et",
"ssiee99fspfgggh&#&&$656511116:64hbllkghkjYYYTewtwuuuut9eeeuuuuxx",
"sss999effffjkkh&####551561414646kklllkkkjYYYTwe9wueuuewwweuuuixx",
"isiu999pfffkkkk&###$1661:6446646lllllkkkjYTYTwu9tiuuuwweewuuuuxx",
"ssie9eeppfpjkkj&&$#@61156:446466lblllkkkkTYYYw96wiuuuewewwuuuuxz",
"ffscckbSSSS99999999666866rrr6r6rueeesdfdhjjgjkkhgtut951<345858SV",
"gfgcbccSSSS68899e66q66866r6s66rreereudhdskjkjklkxywuu<115,3553SS",
"fgaccccSSSSw98666e666668rereeereeeeerddddkkkkkkkhyey955<115585SS",
"gagccccSFSSw68896qee8988eeeuueeeueeredzddkkkkkkkku9995<4115555SS",
"ppabcccAABBweqwwq8886q6q9rueeeeew6eerddddgggghhxkeey985555988wMM",
"<<<003000wwiuuu55111esss44,<6688XoXoo8q88ew9eddddhxkhhxkhzweeq$$",
"<<<0www0wwqsuur11155rrss,1,18880XoXoo6808wewedzddhhhhkxhxheeee%@",
"<<13ww30wwwrrru15111idrr,1<16688oXXXO6080eewwgdddchxxhhxhheeew@%",
"<<<0wwwwwwwsser55155irrs1,116666XoooO9888weeezdddhhhkhhkhdeuee%+",
"azz0wwwkkkkww66hkkhkkkkkggggkkkk4444441155558fhjktttt=%%%*bbbv,,",
"ddz0000zkkk98wwjkkkkhkkkgkjjkkkk7455115115555gjjktttt=&%%*bbnM=,",
"zza0000lkkkew8wjkxkkkkkkggjghkkk7447511115558gkjktttt=%%$*bnbn,=",
"daz0000zkkk8886xkkklkkkkhgghkkkk5544111115835ggjkttt9=%%%%nnMn,=",
"<<1rraa<144EREE78587cvxbssuusysy96wwwmmmvreee***=444445446ysee%%",
"<<<irrr<111EEEE78838xxcxuruupppy9888evmmmeeri****411115553weee%%",
"<<<iara<111EEEE73553xxxxruruyppp6888emmmmreee;*;*<11115515eeee%%",
"<<<iiar111<EEET85888xxcxsruuppuu8888emmvvrrer**>*5<5155555eeee%%",
"@++aaaa<---uuir+%+%+zdddwww84253w080wwwwwkkxkJFFFeeeedggggiiis9y",
"+++appp----urr6$+%@+dddz0www5551w99808066kkkkJKFFuruskjjkgeiiiyy",
"++@appp---2u6er$%%%%ddddwwww5558q0ww80889kkkkKFJFuee6gjjkguueity",
"@++appp22--were$@%@+ddddq9ww85568w0w89089kkkkFKJFuurehkkkgueuiyt",
"0033tutaaagwe6e6wwwqeqqwsdddmmmmeeeew5557uueuyu9eeusssjffjbAbbgg",
"wwr030wgjjgwww6rreee8115zdzdCCCCieirp777288888568srsssffffZZZZkk",
"waew0wwgjjjwqe6eerie1855zzdzCCCCeirsi777288685688ssrusfffpZZZZkk",
"ewaw0wwajjgwqqeeeere1511dzzdCCCCiiueytt-286886550srdpsfffpZZZZjk",
"eeqw0wwjfjjwe99eueue3555dddhCCCCueuuy222158685858iirppffffADDZjj",
"dssffyfcbkngkggfpsfp8555kkhkfyysy888pYIII%@%@reru0806ypypyyfsfs9",
"idspfpplbbbkgkgffffs5588kkkksfff98t8aIIII@*@@rier888wyyyyysssyre",
"iifpffpbbbkkkgjffspf8549kkkkffpp9998pIIII*%%@erie80889ypsyssssee",
"idspppabkbMgkhhfffpi8586hkkkfypp9779pIIII%@%%rier0808tpypysssser",
"%%;wewwgjjj86ee6966eyfsf74745557euetweuereiermmmvwewuupfff9699hn",
"%%%ewwqkjjjw6s6s9699syyy67445555eeeeeeirureiexvxveeeeeppfsty99xh",
"%%%wwewfjjjw666s66e9fsfs67445555eweeeuerieieivvvveeeeuupfyy999xh",
"%%%ewetggjjws9969e6yyyfs-7748557eeeeereueierevvmvweewaaaff96s6xh",
"adifffp....gggg-=,==nknM6669pyyfMMMMmvmmvzzzdq80wwuw9LRRRT8996ee",
"iddfsff    kkgj=,*==nnMk666wyyyyMMMMMmmmmdzzz0w88ueuwLRRRT8986ee",
"idaasfs    kgjj=====nkck6666yyyyMMMMMvvvmzzzz8wwweewwUTRRT9886ee",
"iaaifff    kggg-:===MMnb6666fyfpMMbMMmmvmzzzz8wwweeeeLRRRT7968ee",
"<1-kkkfgzdd=---srrue6999ss9re999auuiueereqwweFGGG1151133355555++",
"<,4kkgjhzzh==--9srrs8888reer96eeeruririeeeweqGGGG8183855551545++",
"<<,kjkkdddg----srses8886rruu6e69uuruuieiiewwwGGGG1815553555<54+O",
"<<-jkgkhhgd&---ssrss6686erus966eirurreieeqeweGGGG3185555555555++",
"444sfggddzd,7<-ssrur5666uesuq696seiieerre9ww0GGCC8835585685555++",
"nnnuirr8688xnnndrsrd5554sddd$%$%,>>>,iesrwwww8555iaipggkgg15,588",
"nnnurie8555vvvnriise5558sdds@+@@>>>>,iieewwww1515apppgggjg4<5108",
"nnnusei5588xxvvsrdrr5556srdd@$+@,>>>,reesww808315ppppgkjgg441108",
"ccbrurs5050mvvvruire8546ddii@@@@>,;>,uuus0qww8185iippggjgg111588",
"spajkkg4<11oooo0555355555801VBNMfpfpfBMBBhkghsiisfdddw08w9kjhg99",
"pffkjkg<111oooo0411555555588BMSNfpfpfABBBkgkkiisdddddqwww9hjkkt7",
"fadkkkk<1<1Oooo5535555558555BSNNffffaBBBBkjkzsdrizdddwww89gkgj7t",
"fffkjjk<<1,ooOo0145355575838BBMBfffpfBBBBggggssdsddsde6689gggg97",
"gfftyty60661111ruupp97t7reqrddsd,=::,rrrr++++880qgkkh7---<<445pf",
"sffytyy66661111epppp7t9teeeesddd=,>>,iiii++++0886gkkk----,4<4<ff",
"gffttyy66661115rppppt9t7erreidds,>,>,siir++++8086gkhk4----<4<4fp",
"fffyy9y6666515,iippit9ttereedsds,,,,,iiir++++8888dkgk-----<<44sf",
"886gdgg5886%%%*FIKKIuuui>>>>kMccewiwuvMvv3815iiuusssssssee6668*=",
"989ggdd886q%%%@KKIIIipia>>>>bkbcwuweibMMM8435upussssssrere8868=,",
"889ddgd6880%;%%HIIIKusii>>>>bbbbtwuwiMbvb1551uipsssssre9sr6886,="
};
