/* XPM */
static char *result[] = {
/* columns rows colors chars-per-pixel */
"64 64 34 1 ",
"  c #2F2F2F",
". c #343434",
"X c #393635",
"o c #3C3837",
"O c #3D3C3C",
"+ c #433E3D",
"@ c #444343",
"# c #4A4544",
"$ c #4E4947",
"% c #484748",
"& c #4D4C4C",
"* c #524E4C",
"= c #56514F",
"- c #504F50",
"; c #565555",
": c #5A5553",
"> c #5E5957",
", c #585758",
"< c #5E5C5D",
"1 c #625E5D",
"2 c #66605E",
"3 c #605F60",
"4 c #656464",
"5 c #6B6664",
"6 c #6D6967",
"7 c #686768",
"8 c #6C6B6C",
"9 c #716D6C",
"0 c #767575",
"q c #7B7A7B",
"w c #8A7F7F",
"e c #838383",
"r c #8C8080",
"t c #8E8E8E",
/* pixels */
"et88%8tte88@&7,8q44:276:2>$46650&et88@qtte78O&8<8q48788808747748",
"e8e;-8e88e,&@&8;27;$6:62q2260;50&e8e<%0e00q<&%;4<q87877777777347",
"&8,&&&8;8,&8e7&@726227:097829278&788;&88488;,3<<&q73777434488344",
";&8tee&8&&tee0;@262992:0428;4857&=4<3<4333;30e8&@q4<4884348734<<",
",;0ttq&8&-teee7-:22w9::274>&2q72%;;8te;<4&&teee8&q<;3<4844334<;4",
";et888;&@88te8;8*2>0$:55q4tq022>t;et88,;&@88te8;883;443333483;4<",
"8&88e88;&&,e8;&t6:$054t0:q02&;22e8&8e883;&&,e8;&t;;;;;;;;;;;;;;;",
"8;;,88;&7te&,8&8005505q427::27q688;;88,;;8te&;8&8&&%@&&%%@&&&&&&",
"&tte,;&8t888&&@;0604:4455:$40t>4;&te,;;<0t888&&@;qqqqqq8%8qqqqqq",
"te08,8;;88&,&8e&45::tq4:05644;64&te8;8,;<88&;&8e&3888844%q848888",
";44,8&&@&,,&@eet:56005:$404:620&8,8,8&&@@&;;&@eet874844<@q438384",
",;;&&;8te&&@8tt8440550t2::64407;8;,&&;4ete&&@8tt878844<;%q343444",
"8etq,&te8e,&88;84:5444406w0:0q40;8te,&tte7e;&88;84444333%8334843",
"etq88&e8;88,&&8;56:$405640524;04&te88&e07;88;&&8;33;3;;3%8443343",
"e04;8;&,88;&e8&&605566::2055;&70ee8,8;&,<88;&e8&&;;;;;;;%;;;;;;;",
"7,&&,8;&;&&8te8;:2w0:4426255;4;4&8&&,8;&&;&&8te8;&&&&&&%%@%-&&&&",
"&8ee@&&ete8&8te8;&ee@&&ete8&8te8;&ee@&-ette8&8te88qqqqqqqqqqq888",
"eet88Otte88@&8;8&et88@tte88@&8;8&et88@ttee88@&8;8q48488888474448",
"&e8e,&e88e,&O&8;&e8e,&e88e;&@&8;-e8e;&e88ee;&@&8;q87874474488344",
"&&8;&&8,8,&8e8&@&&8;&&8;8;&8e8&@&&8;&&8;8;&&8e8&Oq43488434843433",
"@;&8te&8&&teee8&@;-8te&8&&teee8&@;&8te&8&&qteee8&q3;3338443333;4",
"t,et88,&@88te8,8t;et88,&@88te8,8t;et88;&@88qte8;883;433333483;4<",
"e8&8e88,&&,e8,&te8&8e88;-&,e8;&te8-8e88;&&-8e8;&t;;;;;;;;;;;;;;;",
"88,;88;&8te&;8&888;;88,&8te&;8&888;;88;&8te8-;8&8-&%%&&%@@&&&&&&",
";&te;;-8t888&&@;;-te;,&8t888&&@;;-te;;&8t8884&&@;qqqqqq8%8qqqqqq",
"&te8;8;;88-;&8e&&te8;8;;88&,&8e&&te8,8;,88;;;&8e&3888843%q878888",
"8;8,8&&@&;;&@eet8;8;8&&@&;;-@eet8,8,8&&@&;;;&@eet8748733%q738,87",
"8,;&-;8te&&@8tt88,;&&;8te&&@8tt88;;&&;8te&&%%8tt8788443;@q333773",
",8te;&te8e,&88,8;8te,&te8e;&88;8,8te,&te8e4;;88;84443343%8337873",
"&te88&e8;88;&&8;-te88-e8;88,&&8,&te88&e8;883;&&8;33;3;;3%8373,73",
"ee8;8;-;88,&e8&&ee8;8;&;88;&e8-&ee8;8,&,88,;;e8&&;;;;;;;%;;;;;;;",
"&8&&;8;&;&&8te8,&8&&;8;-;&&8te8;&8&&;8,&,&&,0te8;&&&&&&%%%%&&&&&",
"8qqqqqqqqqqq888%;&ee@&&ete8&8te8&70;;040:4>14404>;&ee@&&ete8&8te",
"q48488888444748@&et88@tte88@&8;8074;447;4>$455550&et88@tte88@&8;",
"q84844444488344%&e8e;&e88e;&@&8;74;&7;7704450>290q00e;&e88e;&@&8",
"q43788434843433@&&8;&&8;8;&8e8&@447477;0450:46523&<4,&&8;8;&8e8&",
"q3;3348443<4<;4%@;&8te&8&&teee8&:65e0;;444:$40943;;;8te&8&&teee8",
"83;34333348<;7<%t;et88;;@88te8;8$4:9&;6405t0q441>10et88;&@88te8;",
";;;;;;;;;;;;;;;%e8&8e88;&&;e8;&t6=&044t0:006$:14781;8e88;&&,e8;&",
"&&%%&&@%%&&&&&&&88;;88;&8te&;8&80064060446::4409883;;88;&8te&;8&",
"qqqqqq8%8qqqqqqq;;te;;;8t888&&@;0604:4455:$40t6>;-0te;;&8t888&&@",
"3888844%q8488884&te8;8;;88&;&8e&66::t04:05544:15&eeq8;3;;88&;&8e",
"8448443%q43838748;8;8&&@&;;&@eet:46005:$405:64048<348;&&@&;;&@ee",
"488443;%034374488;;&&;8te&&@8tt8440650t5::5440628<;&&;30te&&@8tt",
"4443333%833384<3;8te;&te8e;;88;84:6255406e0=0090;8te;&0te8e;&88;",
"33;3;;<%84433443&te88&e8;88;&&8;66:$404520446>04&te88;7q8;88;&&8",
";;;;;;;%;;;;;;;;ee8;8<&;88;&e8&&506265::5965=$60ee8;8<;&;84;&e8&",
"&&&&&&%%%%&&&&&;&8&&;8;&;&&8te6;:2r0:4545555:4=6&8&&;73;;-&;8te8",
"%70;;040:4:4405:$69::050:4:4405;;&ee@&&ete8&8te8;&ee@%&ete07&8te",
"033;145:2:$44250042;444=2;$24550&qt77Oete77O&7-7&et47%tee873O&7;",
"33&%2=2283328=2921=$1=2401120&20%q4q&&e44q;%O%4-&q4q-%q4407&%@;4",
"<<3<2>=8118&1111>1>11>=6>18*>1>1%%4&%%4&4&@404@O@@4&%@4-4;&&07;@",
"&<;06*&>;>$@<81>*>>06**;;<*@>6>>O&@3e0@,@@e0003@O&@3e0@3@@30008<",
"@;$4+$>>7>q44;;&+;$5+$>>7;066;;$q&0q33&@.33q03%3q&0e3;&@O;,e04;&",
";%O4;;04$44>+#;;;$+1;;04&44:@$;;83O,0,,%O@%8<%@q83@,83,%O@&8<&%%",
"43;;4:2;;;##=;4;44==4;4;;;@#;&4;;;@&,;%@,08O%;O;;;@@;;%@;08O@;@;",
"1=3*@&===@o=39@*1;1&@;&=;@O;48@;@O07@@O;8;;;OO.@%O87@@O;0;;;OO.@",
"&*@@81*+1*=&&@*&&=@+6>&@;&&&&@&&O07&@&@%;;O@O;4OO87;@;@@;-O@O;4O",
"+&$>,&+X$>&+&&>oO&$;;=Oo&;&O&&;.&@&@&OO..@@. 337&@&@&O. .@O. 337",
"%$;&&;4$OO&%%;$O$$;$&;4$@O&%%;%O&OOO.O&43O. &77&&OOO.O&73.O &77&",
"@O$@@#%;$>=O;;@;$o$$@@@;%>&O;;@;O&4;O.4<&;O.%&O%O&3,O.4<&;O.&%O%",
"@#o.@*@@@&@@@o*@@#o @=@@@&@@@O&@.3;%&.;%.%&O..%O.3;%%.;%O%%O..%O",
"@&@+@@XX+$@+o @&+&@+@@oo@$@@O @&;;@O%...%%..;@ .;;%.%...@@..;@  ",
"X+=#XO+++O++XO.OoO=$.+OO+++O.O.O @ ..@... .@;&@. @  .@. .  @;;@."
};
