/* XPM */
static char *result[] = {
/* columns rows colors chars-per-pixel */
"64 64 245 2 ",
"   c #39352B",
".  c #3C3B34",
"X  c #3B3C3A",
"o  c #353935",
"O  c #342E27",
"+  c #32230E",
"@  c #5E351F",
"#  c #473A2B",
"$  c #433D32",
"%  c #433D3A",
"&  c #483C35",
"*  c #563D2A",
"=  c #3C4138",
"-  c #57432D",
";  c #4C4334",
":  c #44433C",
">  c #4B433B",
",  c #484639",
"<  c #544535",
"1  c #52453A",
"2  c #534A3C",
"3  c #5A4838",
"4  c #59523E",
"5  c #4A422D",
"6  c #654A38",
"7  c #67523C",
"8  c #734E37",
"9  c #3C4442",
"0  c #4B4B43",
"q  c #4B4D4A",
"w  c #464744",
"e  c #534C44",
"r  c #564C46",
"t  c #4A524B",
"y  c #555245",
"u  c #5C5445",
"i  c #54534B",
"p  c #5C544B",
"a  c #5A5A4C",
"s  c #565A54",
"d  c #5C5B54",
"f  c #575854",
"g  c #4C5051",
"h  c #634D42",
"j  c #625344",
"k  c #635A4C",
"l  c #68594A",
"z  c #755B48",
"x  c #635C53",
"c  c #6B5D53",
"v  c #625E59",
"b  c #665A57",
"n  c #755C55",
"m  c #5E635C",
"M  c #5D6155",
"N  c #78634C",
"B  c #646255",
"V  c #6B6454",
"C  c #65635C",
"Z  c #6C645B",
"A  c #6C695E",
"S  c #6C6A56",
"D  c #726354",
"F  c #746A5C",
"G  c #7B6C5C",
"H  c #776658",
"J  c #7A725C",
"K  c #6B6955",
"L  c #5F6863",
"P  c #636461",
"I  c #6B6562",
"U  c #6C6C64",
"Y  c #6C6E6A",
"T  c #666C64",
"R  c #736C63",
"E  c #7A6E63",
"W  c #756C68",
"Q  c #6E726B",
"!  c #6A7067",
"~  c #737365",
"^  c #7B7364",
"/  c #73736C",
"(  c #7C756B",
")  c #7B7A6C",
"_  c #797869",
"`  c #6B7977",
"'  c #757B73",
"]  c #7C7B73",
"[  c #777874",
"{  c #545E60",
"}  c #805437",
"|  c #846B54",
" . c #866A57",
".. c #986E59",
"X. c #85715D",
"o. c #8B735D",
"O. c #86785C",
"+. c #96765A",
"@. c #826849",
"#. c #A6785E",
"$. c #876D63",
"%. c #837463",
"&. c #8C7563",
"*. c #847B65",
"=. c #8C7B64",
"-. c #83756B",
";. c #837B6B",
":. c #8C7C6C",
">. c #8B7669",
",. c #927563",
"<. c #947B65",
"1. c #9B7B66",
"2. c #947C6C",
"3. c #9A7D6B",
"4. c #9A7564",
"5. c #837D73",
"6. c #8B7D72",
"7. c #867A77",
"8. c #947D72",
"9. c #997D74",
"0. c #A57C67",
"q. c #B07B65",
"w. c #7B8279",
"e. c #7C806F",
"r. c #9C815E",
"t. c #A4845E",
"y. c #8B826C",
"u. c #88826A",
"i. c #9D8466",
"p. c #94826C",
"a. c #9B846D",
"s. c #9B8B6D",
"d. c #94876A",
"f. c #848275",
"g. c #8D8373",
"h. c #8C8973",
"j. c #84837B",
"k. c #8C857B",
"l. c #8C8A7C",
"z. c #87897A",
"x. c #938473",
"c. c #9B8573",
"v. c #948A74",
"b. c #9C8A74",
"n. c #93867A",
"m. c #9A867A",
"M. c #948C7B",
"N. c #9C8C7C",
"B. c #9B927C",
"V. c #989279",
"C. c #A2836C",
"Z. c #A38A6C",
"A. c #AB8C6B",
"S. c #A88666",
"D. c #B38A69",
"F. c #B6926B",
"G. c #A28573",
"H. c #A48B74",
"J. c #AB8C74",
"K. c #A38C7B",
"L. c #AA8D7B",
"P. c #A88675",
"I. c #B58C75",
"U. c #A39173",
"Y. c #AB9274",
"T. c #A4927B",
"R. c #AB937C",
"E. c #AD9A7B",
"W. c #B39374",
"Q. c #B2947B",
"!. c #B79979",
"~. c #BCA17C",
"^. c #C7976C",
"/. c #C59B74",
"(. c #D1A275",
"). c #7B8784",
"_. c #8B8B82",
"`. c #868983",
"'. c #948D83",
"]. c #9B8D82",
"[. c #948985",
"{. c #8B9388",
"}. c #949284",
"|. c #9B9383",
" X c #94928B",
".X c #9C948A",
"XX c #9A9A8A",
"oX c #999993",
"OX c #A38E82",
"+X c #AB8E82",
"@X c #A39383",
"#X c #AB9482",
"$X c #A4968C",
"%X c #A49A8B",
"&X c #AB9C8A",
"*X c #AA9985",
"=X c #B49C83",
"-X c #B29B8A",
";X c #B89985",
":X c #A99D93",
">X c #B39D93",
",X c #9BA399",
"<X c #8FA096",
"1X c #A8A189",
"2X c #B9A48A",
"3X c #A9A498",
"4X c #B3A393",
"5X c #BCAC9C",
"6X c #B8A897",
"7X c #BBB29D",
"8X c #BFB08F",
"9X c #99A5A4",
"0X c #AAABA3",
"qX c #B5ACA3",
"wX c #B9B4A8",
"eX c #BBBBB4",
"rX c #A9B2A9",
"tX c #C19C84",
"yX c #C6A68B",
"uX c #C5AA95",
"iX c #C8B499",
"pX c #D5B69B",
"aX c #D4B192",
"sX c #C8B7A6",
"dX c #D7BAA7",
"fX c #C5BBB1",
"gX c #D2BEB3",
"hX c #CAACA2",
"jX c #E3B9A2",
"kX c #BAC3BE",
"lX c #D8C3AA",
"zX c #CAC4B6",
"xX c #D4C3B3",
"cX c #DBCBBB",
"vX c #D7C9B8",
"bX c #DCD1BD",
"nX c #CFC0A3",
"mX c #E7C6AA",
"MX c #E3C5B5",
"NX c #F0CBB3",
"BX c #BFC5C1",
"VX c #CECFC6",
"CX c #DAD3C5",
"ZX c #D6CCC2",
"AX c #E4D1C2",
/* pixels */
"G.#X$.n.#XK.+X,.>.g.^ 7X6 hXMXmXNXjXjXyXtXtX0.6 yXyXyXaX- aXmXaX!.mXdXpXmXlXiXaXmXNXmXyX| 8 uX;XyXyXtXtX@ @ 8 } tXjXjXjXdXjXtXq.",
"<.K.>.N.K.c.G.&.-.*.J 3 1 hXQ.I.I.tXI.I.tXI.tX1.yXuXL.4.yXpXyXY.Y.J.tXjXdX2Xi.E.yXjXaX!.aX| a.tXuXP.C.4.0.P.I.I.0.4.9.0.0.P.q.I.",
"&. .>.m.N.H.<.>.*.M.J 3XH $.P.yXtXQ.Q.J.;X+XyXL.R.Z.P.Q.L.R.Y.A.+.S.D.D.W.I.~.E.G.0.L.K.sXl l n ,.o.1.4.4.4.0.0.0.4.4.0.q.jXq.q.",
"a.7 N.m.N.K.m.p.g.f.) l.& E c.uXQ.Q.R.-X4.;X7 H.=Xa.=X=XY.A.a.Z.S.D.I.I.D.Q.Y.R.P.,.c.m.V k [.n n ,.3 <.,.9.,.0.4. . . .;Xq...q.",
"<.2X6.N.B.x.N.g.h.e.z.k.0 r >X+XH.Z.=X2X8Xp.=.b.T.*XcXlXQ.H.Z.jXyX0.D.I.;XI.n  .K.K.E %.k 7.W 6.6X5Xm.x.&.2.;X .9.3.| | L.4...q.",
"p.&.:.5.M.x.n.|.h.}.,Xd k.W >X3.b.#Xb.=X5X&Xx.p.b.N.b.<.Y.P.C.P.P.J.J.J.P.tXP.uX2.x.@Xp b $.$.8.8.m.x.2.:.K.6 -X3.L.<.o. .+.q.#.",
"y.m.|.;.y.|.l.'.l.j.w.s eXW 6.x.K.T.#Xm.K.x.>.D >XN.8.6XgX-XR.o.R.| ,.8 6 7 K.8.$X%X|.'.r 8.G n.>.m.8.x.p.6X+X3.c.o.T.b.i.1.4.q.",
"G |.] j.e.~ ;.f.f.' j.m g W 6.@X#XK.K.N.:.N.n E F n.x.m.L.#XiX6Xz s.=X6X#X&XT.4X1X.XM.|.> x G >.E 2.x.6.x.2.c.G.c.+Xx.m.8.9.0...",
"-.p b b ] e.e.e./ ' L w g w :X$XOXOXN.>X6.r E ( ( N.x.%.6.*X@X:.X.B.*Xv.h.v.M.f.XXf.}._.y   A A 7.g.;.-.6.8.m.[.[.[.[.[.b ].9.$.",
"p ( [ [ ] ! j.w.] w oXw [ f [.].].$XOX$X$X>X-.]..Xk.R ;.;.g.%Xx.m.M.B.*.h.4 ) {.~ ' ] w d i 2 _ 6.-.( k..Xk.-.8.[.7.`.P f b 7.n.",
"1 # r / M s M ! / d f f ` X b E E ].].$X$X6.^ F ].e ^ f.) ) XXv  X[.i = w o v q ] ).w Y 7.fXzXJ   h ;   > r r e [.[ { P W [ W b ",
">.r e $   M = t f d X 9 g q % p |.r e 2 ; k   j g.g.B 4 y a a a % P / M O P g P X w i eX%X&X4XsXdXsXhXsXxXxXfXZXfX0Xr Y 7.% % & ",
"gXAXcXqXqX0XeXbX0X`.w s { g q ] > $ & $ O cXsXbX*X4X|.|..X}.B $ o X t t g o o X g w 0 .Xx.2.1.H.<.C.Z.;X2X=XuX2Xp.l.7X7X% 6 hXAX",
"!.L.+XK.B.S 3Xl..X[.`.9X9X{ f qX0 x zX5X4X4Xv.b.N.b.&Xy.g.6.^ d 9 X w U T 7.[.Y `.).! M.%.G.Z.A.mX!.W.W.Y.Q.Q.R.T.sXsXk & gXP.+X",
"..0.P.9.T.1X7Xf. X.X).9X` 9XoXoXy :Xg.%.2Xb.a.o.1.L.c.G.8.8.6.3 7.'.'.}.x.n.6.3XoXw.`.z.:.H.1.z Z.C.s.R.E.Y.=XH.p.|.M.M.3XiXxXL.",
"S.D.P.L.v.1Xu.f.'.[.Q ` { oX`.t ( G qXvX- - o.,.p.p.&.=.8.-.>.r Z k.) ;.^ ^ 6.;.] w.0Xf.:.a.H.!.o.o.=.p.b.b.x.x.J CX6XXXk |.c.c.",
"S.q.S.P.C.c.h.M.z.z._ b 7.] q ) .Xh.M.].n.n.qX8.u.f.g.k ) E r & x j.e.3Xf.Z ] w.w.w.y R n.2.H o.X.K.*.X.J O.M.y.%X|.XX%X4 s.T.b.",
"} A.+.J.G.b.x.l.l.{.a oX0X0 0XrX~ '.'.E Z E ( k.f.u.f.wXl.7.[.[.d U ) [ Q ' [ Y ' Q : $ h.X.X.a.L.X.z y.p.T.%.n.|.|.|.M.J v.a.U.",
"D.F.tXA.Z.H.%Xl.XXw.w._ % [.[ m rX) }.( :X6.g.k ^ F u _ Z U 5.e Z ] U Q w.' ` ` w.w.g p r H %.L.H.G.2Xo.| J -X2.c.m.@X].< c.T.X.",
"D.q.A.;XR.B.|.B.XXT a 0 $Xq oX9XXXwX}.( .Xm.[.6.; a k B x k > . e [ / ' Y ' ` ).9XQ s i V c N.K.c.1.Z.2XH.a.o.c.c.N.|.M.# x.OXm.",
"S.W.J.| T.@X|.XX<XrX{.Q ' 9X).9X<X{.,X X`.$X[ 7.}.wX3XM.}..Xz., U ! w.{.<X` ).` ` ` L o r p 6.x.c.a.=.=.R.G.v.L.@XB.V XXa y p N.",
" .z K.b.m.@X}.,X<X).M w.! w.t <Xw.{.oXoX] 7.] [.k.) 1Xz.f.~ B , B z.! ' ` ` ).).` ).t s 0 r r ;.c.2.=.*.b.v.b.@X%.ZX3Xk.a A _.0X",
">.8.].%X}.XX,XrXw.rXQ L ).= t L = ).BXBXeXY v 7.~ , = y a a , , . s `.w.t 9 9 w 9 w o `. X% 0 & 1 |.-.u.J b.N.n.4X3X5.Q q X oX X",
"6.p d j.f. X_ B ,X`.Q f Q Q = : m s ` `.[ X rXzXVXVXvXvXbXvXbXbXzXfX0XU U w.7.oX:X3X.X  b [..XR i p k Z V y.v.x.wX( f.! : Y i [.",
"b w % : : : , i U M C > 1 & / j.= : 0 = = zXrXrX7XeXzXiXvXnXU.s.H.T.1X2X2XnXnXiXiXiXiXiXiX2Xu   r ~ Z $ 2 6 j 3 h 3 u u ; r b $X",
"p I : M , e _ CXcXzXfXsXfXhXqX>XXX( $X0 u e.XXV.B.B.E.E.F.F.A.S.S.N A.lXW.A.F.t.A.F.t.t.E.nX4 *X$XfXZX4X5XgXlXMXMXgXcXgXxXcX$Xh ",
"7.$XwXl.eX|.m.x.b.c.c.c.3.<.L.2.8.c.n.g.4 K S V.E.8X8X~.^.^.F.F.mXyXD.S.S.t.A.t.D.F.F.S.U.vX4 R -.^ *.M.V H.L.J.P.Q.R.#Xc.c.C.G.",
"E F 3Xf.x.:.2.a.a.1.H.H.3.1.C.,.,.>.>.%.5 S u.V.E.8X(.F.^.^.^.^.F.S.A.W.F.t.F.A.F.A.A.i.V.@XO G E F K D T.b.R.R.#XR.6X7 i.<.- yX",
"+Xj j g.J v.o.0.3.Z.J.1.a.i.,.a.<.8.H G 5 J V.s.8X~.(.~.^.(.(.^.F.F.t.t.Z.r.A.t.t.E.@.J u.u., A %X%XV.B.B.E.R.R.<.N # p.=.<.E.=X",
"9.3 D D p.c.a.C.P.H.s.o.a.p.X.=.G 4 # ( ; V.B.1X8XE.aX(.(.^.^.^.(.F.F.F.r.s.s.U.U.i.r.s.*.e.y B _ *.V.|.B.v.T.*XH.=Xb.T.b.b.R.J.",
"$.n $.wXg.5X<.3.H.b.=.*.G %.M.|.8.n.}.CX2 M.XX&XE.i.~./.(.^.(.^.^.^.F.t.r.U.U.U.V.U.d.u.h.u.U A k.J V 1X&X2X2.c.@Xm.4X*.m.N.#X<.",
"$.& c 5X*.&.H.G.p.c.H :.:.x.n.h.g.k.}.l.: a G 1X7X8X~.t.aX^.^.F.^.F.t.N r.d.s.V.d.v.s.v.^ k a A XXn.h.h.v.c OXiX4X>.x.%.4X-X-X,.",
"4.* &XT.=.c.C.#XG.v.O.c.m.].n.M.g.;.g.k k j n 4 - nX~.~.!./.^./.F.F.mX8Xu.s.s.s.B.e.h.T.H u.e p l.wXCX1XN.N.&.a.=.2.&.*X*X#X,.4.",
"9.# ; x.:.3.<.3.p.N %.B.m.@XN.g.y.g.^ x k c cX4X8X8XY.W.F././.F.F.U.s.V.u.V.d.V.V.h.V.a &Xy.x $ v l..X5.M.T.*Xo.,.X.X.b.T.#X3.G.",
"I % f _ 5.x.%.c.X.&.=.B.=.b.x.y.f.l.r b % i '.M.V.2XE.~.yX!.t.W.U.U.V.V.V.V.v.h.1XB F J 7 k V : ] 0 j.! '.n.].N.*X:.M.h.N.x.,.3 ",
"I w P _.) 5.-.G =.J v.h.J x.p.y.k.'.r f i i v M.8XnXV.E.~.!.~.s.u.V.u.h.e.V.B.4 S u J u.y.v.V . U s B M ] '.M.'.j._ {.l.l.^ c G ",
"b 1 > W -.-.k.8.D >.B.B ~ e.u.l.}. Xg q q P s . wXV.O.r.s.T.d.u.d.d.e.h.h.e.d.U.d.s.d.N s.uXX.$ : w Y Y v U I [.}.,XT l.l.XX;.*.",
"h # 3 h X.x.x.:.l k F f.m zXf.] W i i g P `.d a e.J O.s.E.B.v.d.e.e.u.h.E.u.U.s.s.s.U.s.Y.s.l V i v P f i C / / oX`.t ,XXXl.}.*.",
"tXhXjXjXdXdXhXdXhX4X3XA 3Xg w 0 f r % P . `.e.2 < l h.V.u.v.y.k e.u.h.V.u.V.V.U.p.s.s.T.U.H 5 F [.qXd r i W I I C VXkXoXwXeXsXsX",
"#.4.0.9.G.H.#X>.>.9.]..X`.w b p r n I I Z p V 2 ^ ; 3 O.3 4 K G k E.d.4 l u.U.s.a.O.d.p.B.J p   & p . >   f w $ Y 0X`._.$X>XxX3.",
"q.4.1.0.o. .o. .$.@.$.7.-.$XgXgXvXgXsXc # E * & < # 4 u j j j D - < 3 - - 7 - N N 8 p.b.u 2 Z 3X3X.X3X}.-.] r r I f ) R '.6.G.3.",
"0.9.C.1.uX3. .@...$.>.9.l m.&.K.>.-.x.>.>.K.4XK.N.G :.y.H @Xm.>.d.Y.Q.J.L.R.G.1.z | O.- > a }.f.& u ;.f.`.[ W x X % ~ qXg.8.+X3.",
"9.G.3.b.H.G.$.@. .G.p.7 - D X.&.X.6 6 p.9.G.9.2.%.g.:.g.2 x.2.$...6 !.0.Q.J.;X;X;X!.lX4Xp '.j.}.'.}.h.z.}.j./ b : v i x |.m.G.L.",
"P.3.2.2.p.2.>.>.<.o.5X6X+ 7 N | 3 * 2X=.,.2.2.%.N.-.g.^ k =.m.X.0.P...4.P.J.G.C.Z.T.H.*XR f.f.f.f.z.) e.j.f.] d q  X{.) g.x.L.3.",
"o.1.<.=.>.x.c.<.8.*X-.^ G 5X:.>.&.U.G.o.2.@X:.%.7.# Z *X>.H v.#X9.H.H.H.K.m.OX].m.v.x.k.d Y `.w._ ) e.e.) ] f.0 w rX' ) ;.x.K.c.",
"0.3.c.=.>.p.uXm.>.;.^ p 5.y.f.6.p.<.=.H %.%.-.-.j Z c Z y.j %.v.N.m.H.R.K.B.|.g.m.b.g._ w ! Q w.f._ _ e.] 5.r : I [.' [ A ~ c.>.",
"4.9.,.6.>.9.9.9.-.:.F 5.V V 5.;.x.b.G l V h.R e 0 7.F F k 4 u.h.v.s.b.b.m.XX1X].=.x.%.^ o P B R 5./ _ ) / I w b R I ] ' ~ ( G N.",
"+XL.9.# l 9.9.7.7.R ~ ] i k.5.5.>.j ;.;.XX}.U $ e W I y 5 V M.7XzXB.N.v.|.|.l.k.v.x.^ y oXs ! ~ ] ) 7.) / X b % [ i ' 7.}.].8.8.",
"9.K.c.9.:X( [.] `.T / s d w._ _ Z x F E _ _ d I W P ] 5.x l.x.) e.w.e.f.'.'.k.k.[./ oXq ' ! P oX] _.}.Y q Y [ o P q k.n.x.c.#XH.",
"3.$.n.E a a p :XY Y m R M ' b i U U i v B W M Q = w % O v V ;.Z ~ C _ z.j._.[.k b b w w ' ] q % oX0 e i s `.o s m _.Z n.x.>.C.L.",
"j < c # 5 4 K , b a > I > w w . , = , T oXU 3X_.P  XI [.& > $ > > j 3 < u k # # $ 5.j._.) p O n   # $ 0 . w i v s U 5.2 < 5 * - ",
"sXvXlXcXbXlX1X2X*X-XcXcX5X6XwXfXwXwXwXeXQ Q o . _.qX3X:XqXvXcXAXAXxXbXcXbXcXvXvXxXj u B cXcXAXgXxXfXfX6X1X:X0XeXqX[ d 2 -XcX5XiX",
"S.i.Y.S.S.A.S.F.F.S.t.S.=Xp.H.b.v.v.B.zX, 0XwXXXM.OXH.L.T.uXJ.b.H.G.H.T.y.d.i.H.c.hXg.m.dXMX;XG.G.R.G.- -Xm.#X$X:X>X6.* p.#XT.H.",
"i.r.r.A.t.F.F.S.F.~.r.r.H.d.=XK.T.s.h.fXK l.w.e.J m.| R.=X@.H.c.G.T.J.C.b.=.G.o.N X.S g.gX4.| 4.a.0.J.uX;X3.9.&XOXOX6.v.N.T.R.U.",
"a.b.Y.Z.r.Y.Y.!.U.u.d.e.S O.h.%XJ V.XX~ s w.{.e.*Xp.,.G.P.a.=XH.N.T.R.T.v.B.hXMXMXhXc H &.@.&. .1.J.H.R.3.a.#X@XOX;.k g.v.u.O.d.",
"a.Y.a.+.U.Y.A.U.r.u.v.u.h.) z.*.u.e.e.M t ).).w.'.N.i.| +.i.2XlXxXv.R.U.@Xx.H.P.6XK.k 2 7 >X9.K.<.N dX6XT.+X+X#Xc j ^ ^ ;.u.X.s.",
"S.+.z i.i.T.U.U.d.U.s.u.O.J J u.u.e.J t = w.w.e.( @X#XJ.a.uXR.b.v.B.R.T.B.h.@X+XH H x > K.L.#X-X$.8.#X#XL.+X+X>Xn n ( ;.;.v.X.a.",
"..t.F.W.Z.U.s.v.U.l lXd.T.u.d.s.u.~ e.t = w.e.,X}.@X<.<.i.,.p.2.N.@Xv.*XV._ h 6XsXm.k.'.@XK.K.L.n * 3 c.P.9.P.9.n H R ( N.x.a.H.",
"F.+.S.Z.lXV.u.u.J V.E.*XU.N E.d.vX|.U ~ m T {.XXx.y.b.H.o.i.p.a.N.=.b.B.J y zX@X'.( 3X_ :.L.K.n G.9.X.X.a.G.G.9.].K.6.*.v.V.H.i.",
"@.D.S.2XO.7X6X@XJ , u 4 N d.r.2XB.l.~ w 9 m e.w.fXK.5X&.c.2.p.c.p.2.z T.l.2 g.x.|.%X~ B @X-XP. .-X+X*Xa.a.G.J.hX>X8.-.S d.O.yX+.",
"F.A.~.2X=.x.^ R e M , V J l G.b.R Q U d 0Xt Q rXj.x ].].].-.N.].>.>.b.N.e.B _ g.'._.d d OXOX$.+X+X+XI.3.i.C.0.J.L.K.@XJ d.b.C.F.",
"U.U.4 J 6.1 ] d ) ) i y ; ; G ;.[ Y Q t w.U i a C r p ;.'.-.k.n.OXm.|.;.k.B y z.7.I d v $XOX+X+X+X+X+XR.@.z 0.G.+X@X}.d *.7XjXP.",
"o.-Xo.N D 2 i Q M 0 rXR C e.k.R I Q / d ~ Z .X2 ( ( ( '.E n.x.'.-.( .Xl./ d C I % q P g e '.$XOXOX+XOXG G N 6 l 7.k.! t 0 '.*X8.",
"z 6 >.2 1   : = O o d : : 0 m , : : / $ y u Z H & b -.E 7.D E h b F   I I 0 i r % X g Y : y & b n r 1X*.wXhXn n & g 9 ` m w & h "
};
