/* XPM */
static char *result[] = {
/* columns rows colors chars-per-pixel */
"64 64 42 1 ",
"  c #121617",
". c #141718",
"X c #15191A",
"o c #181C1E",
"O c #1A1F21",
"+ c #1D2225",
"@ c #1F2528",
"# c #1F282B",
"$ c #202527",
"% c #21262A",
"& c #242A2E",
"* c #262D31",
"= c #282F32",
"- c #273033",
"; c #2A3335",
": c #2E3639",
"> c #2F383B",
", c #30373B",
"< c #323A3D",
"1 c #353D41",
"2 c #383F43",
"3 c #364143",
"4 c #394345",
"5 c #3B4549",
"6 c #3C494A",
"7 c #40474C",
"8 c #414A4E",
"9 c #444D52",
"0 c #465055",
"q c #495257",
"w c #475258",
"e c #4B545A",
"r c #4E585E",
"t c #50595F",
"y c #545D63",
"u c #566166",
"i c #586267",
"p c #5A646A",
"a c #5F696F",
"s c #5F6970",
"d c #636C73",
"f c #687178",
/* pixels */
"11157<4444<<2<2<1<<11117%*==>--;-;-----;;;;O72224455644 85555442",
"1<11r454<7727<<711<,,12=o&;;---;------;-=;*$e2112255553&7445444<",
"<214&554472<<722111,,,1=X=;=-;-;----=*-====&r1111144551+54444422",
"2122*5557<447<<71117<<2*X**;;;-------===*=;,y1,11111418+<4<43321",
"2222=5542722<<<727=:112;$,&***&&*****---*;*:31>1>111119=4<222221",
"4<27&q45472<<7<,;;;:112*Oa$&*%#&&***&&*;;;1.>1>-:>,,1<,&;<<<2222",
"<22,&2q74<,,<&&&&;;;114*Xa%$@#####&&&&*;:;*.3#-1<<1,<,e&&<,,<<11",
"7&&y=y$$+++++++$@%%@@%#2$<+O+@@@##%&%$%%#+@.*###@%*@%%%.==$&&$&*",
"> ->$oXXXX&&,*=X&#-;;+ O;*;*% .O&.XX....XXXX...XXXXX  ..XXXXXO ,",
"9ee0ttttrpit2qt wd355525545459ryrrX<dupttryiupppppu843>-&*=,ett7",
"666644<<<<<<<ay9653336665869576780.<96666666333311113><-==&;8747",
"64666442<<<<<2<73333356655675969803346666664333311<33333====4344",
"44662<4<,<<<1179113135555666560909,856666636633333<1333643;*,<44",
"666622<<<<<<<12q1;15135559955w0r6&&6156636666333331133334>4>=244",
"36632<<<<<<2<22;::::13255955596#&3&185566333333333334333444:*<46",
"663><<<<,<2<<<2X-::;:>42555699y&<3*<61556363636333333333333:*934",
"333>>>>>1==1=1%X1=11=111135566O112%*6t2254344444111134311544*111",
"&-30rr0-*&%%%@%X21=%@%@O@##*16#116%%=*-&>w6w995211-*5655:*****&*",
"oooXXXXXXX@@@OX.*@..O...o..#OO-OO OOOOO XX..XXXX.OXX.XXXXXXXXX.O",
"40ryyuyui9ppytew9w711=swr666wwrypypuuty6r61w4555556O111X5sw>4592",
"<1<1<111w7t721O122221&q113>311111:1111119114;****-*11>1>0e55541<",
",<<<3<<1119=&+w225221=q233331161-:;11111121*****-;#1>:;>0965421<",
",,<<11<<11Oww2122222::71111-61---:;1:111:91****-;#11>>;35655451,",
",,<<1111112ww2122522;=221111--1-:;:-;:11:2;***=-;+1:>;;><554521,",
",,<<1111,=1q21125252**11111#--1-;:;:::11;1===**-&1>>::;,,55581<<",
"<,1<1,,11%1711122552**111&-*--*-:::;:1:1,,*=***;O>;;>:;*%4451<<<",
",<<<11121==72122521-*&*11*---;-->:>11112;=%;***+6>->><&+%81<<<<<",
",1<,11122=&i252252y1*#*11*11;:11:1115241==O-=**&;;->0#$&%9557<<<",
"&=*&*&&&*,%y*&&&--#-1*y*#&-*-**&&*&*#&*e=&++O+++++++++$+%$$$%%&&",
"  .oXoXXoo. o.......XX.o..X.O.Xo. ....O.       X..  ... . XXoX X",
"7qyee1y1,=,12772656252221Osspysuyyyyyyyyuuuyeeera96wqeqreeq7&279",
"<1<<e29==,=11==11-111#*#&.s65511114521511<<3<36p<01311<<2222=<<<",
"4<<<q3-;->>>>>>;;-3-&&&$= d444111113w;111<11<12a<0<<1<<<2<171<<<",
"<<<<3>;;;;>;-;-;;=**&&&&& 81111115*11:1><<<<<<<9=0221<,1<<<<<<<<",
"<<<3<>;;>;;;-----***&*&&&X;;:>,11::::1>1,,>><>,q;82<<<<<<<1111<<",
"<2<<<=;;;>>---*--**&*&&&&X;&@&%*111:1>1>>>>><>:6=4<<<<<<11<,,,12",
"422<>&;;>>;--;-**&*&&*&&=X4qqyy&;<<,:>1:>>>>>>;>=;<<<<2,12,,1112",
"24223$;;;;;----***&&&*&%1X25557eO&<<::>;>>>>::;>&;;<,<<2,,1,2212",
"24448$$-;>-;-*--&&&&&&&%<X:424424&&<<<,:>;:>;;-:$;;,<<2<1,,11122",
"==,;6$6O#>-#++#&-;;>==<,4X&;=,,1<;X*:=%@++OOO$++;;&;;;======,27%",
"XXXXXoXXX.X.XX.XXXX O$$OO..O.OO.XXXXXXXX OOo.X. XX$$$$$$+$$O$&$%",
"eeqqetiiappureeXpruyuie8775592Oq0tipreXe3<>;&>>133&&auuiytytypeq",
"22224366666666wXqd<>314795900*q98855yq+<-;;;---#$p>&a33322725422",
"223233433646669re<<344475790:7q188558u+>;;;;-**-&$3;u>3627725722",
"3433332313346677e><><4375977#rweq66630@>--;---&-$@;3e>3336664442",
"3333332<13343677q<;,<3<75975@ww6986436O>-;----*&&$%<8<3336334433",
"3343333<133346679<:><<335995%y66664334 >-----*##%+&<8;;#66634333",
"34333&42<33336647<>><<3<2252%r66663333 &-&&&&&&#%+&;>;--$0444433",
"4333363<4224444<221=11111112=2655511<1X-=&&#*#&#&#%O;;-*%%$64333",
"3333233<232444=,18111=111211O152<111:6 5;***#&#&%%#X;;;-&*&O3333",
"<<>38e43<7722&$*&y%@O@&&&%O1=11=&****;.#514>**&#++>X#<>3$%**<3>>",
"*-&$$$$$$&$&= XX*&*+@@%%%%%%@@O%&*.X.*XXO&&%#@@$+O X&O++%$%%X-&&",
"e636tit0Xe044>===1111299wyiywXtyyuyrww600wertr0Xpe990eeettttttr0",
"333346a9Xed6874q92112987752rrw9f144446665555635X9<>34666633<>><3",
"33366467;0664422111112112211pwyd133446666666411Xe<<3663333<<<><3",
"<3466664&946641<=11111112211pwyp<13344666666541Xy>><3633332<>>>3",
"11145674$06643<>:,11=:111222yewy<<214555656443<%6>:1:112<222<<<<",
"1<<1447<$9663>1<11q:=1;111222261,1225565556411; 2:>:;:>,<3<<<,<1",
"1<<2665<$8633><>1O===;1=11222221;11245565522<1;.::::::1:>><,>><1",
"1<245547$83<>>33*===;:111152521=,11733554221<1;X&*-:;;;;::>>><<<",
"1<16747ro5<>>>>X&=*=&11112w92211;1113354211111&OO2=;=;,;:;;,<,,<",
"&&&$%%$%X5$$+%:****=&&@@O++%#OOOOOO@@@@@%%++O@%.**&O$$$$%&*&&&*&",
"9eeOXqqqqqqqqqqq8we77rw1.221111111111:2222%XeewweeeeqqqXXeeee&80",
"<<28<y42441211211111111219*1;:-;-:-===:-;;1;y8252252447Xqi424222"
};
