/* XPM */
static char *result[] = {
/* columns rows colors chars-per-pixel */
"64 64 235 2 ",
"   c #3B4135",
".  c #56561C",
"X  c #4C4C18",
"o  c #5D631B",
"O  c #63631D",
"+  c #4D4D2C",
"@  c #474728",
"#  c #534E29",
"$  c #4F5228",
"%  c #545322",
"&  c #5B5424",
"*  c #59542C",
"=  c #5C5B2B",
"-  c #585A28",
";  c #4D4B34",
":  c #4C4C3B",
">  c #45483D",
",  c #544D3A",
"<  c #514B33",
"1  c #4D5237",
"2  c #545533",
"3  c #5A5534",
"4  c #5C5B34",
"5  c #54533C",
"6  c #5B563C",
"7  c #565A3C",
"8  c #5B5B3C",
"9  c #555C32",
"0  c #605929",
"q  c #625C34",
"w  c #625E3D",
"e  c #5C6032",
"r  c #5C623A",
"t  c #5C632B",
"y  c #62662D",
"u  c #68672A",
"i  c #636333",
"p  c #63623C",
"a  c #6B6C3B",
"s  c #69683B",
"d  c #76773B",
"f  c #706D34",
"g  c #4B4D44",
"h  c #4C4D4C",
"j  c #454846",
"k  c #524E47",
"l  c #4D534D",
"z  c #4E5143",
"x  c #535344",
"c  c #5C5B45",
"v  c #54534C",
"b  c #5A554B",
"n  c #565A4C",
"m  c #5B5B4C",
"M  c #595746",
"N  c #4D4C53",
"B  c #524F55",
"V  c #4F5252",
"C  c #4F5658",
"Z  c #545453",
"A  c #565B53",
"S  c #5B5C54",
"D  c #55595A",
"F  c #5B5B5B",
"G  c #575458",
"H  c #615D4C",
"J  c #625D45",
"K  c #625D52",
"L  c #625E5B",
"P  c #5E6345",
"I  c #5D624D",
"U  c #556040",
"Y  c #5D6255",
"T  c #5D625B",
"R  c #5F6E5B",
"E  c #636444",
"W  c #646A43",
"Q  c #6C6C45",
"!  c #64644A",
"~  c #656C4C",
"^  c #6B6D4C",
"/  c #6B654A",
"(  c #736E49",
")  c #6D734B",
"_  c #6B7343",
"`  c #747545",
"'  c #72734D",
"]  c #777B47",
"[  c #636354",
"{  c #6B6454",
"}  c #646B53",
"|  c #6B6B54",
" . c #63645B",
".. c #69655B",
"X. c #646B5B",
"o. c #6B6C5C",
"O. c #736D55",
"+. c #716C5C",
"@. c #796E52",
"#. c #6C7354",
"$. c #6D725C",
"%. c #6B765A",
"&. c #737454",
"*. c #757B54",
"=. c #73745B",
"-. c #747A5C",
";. c #7B7C5B",
":. c #7B7856",
">. c #5C5D62",
",. c #585C65",
"<. c #615F63",
"1. c #5C6263",
"2. c #5D6369",
"3. c #5F696A",
"4. c #646563",
"5. c #646B64",
"6. c #6B6D64",
"7. c #64656A",
"8. c #656B6B",
"9. c #6B6D6C",
"0. c #6C6665",
"q. c #726E63",
"w. c #726D6A",
"e. c #6C7364",
"r. c #6D726C",
"t. c #6D796C",
"y. c #687366",
"u. c #737464",
"i. c #797564",
"p. c #757A64",
"a. c #7B7C65",
"s. c #72746C",
"d. c #79756A",
"f. c #747A6C",
"g. c #7B7C6C",
"h. c #646574",
"j. c #656D73",
"k. c #6B6C72",
"l. c #6C6D7A",
"z. c #666E7B",
"x. c #726F74",
"c. c #716F7A",
"v. c #6C7373",
"b. c #6E7974",
"n. c #6C747B",
"m. c #6E7A7C",
"M. c #657377",
"N. c #737473",
"B. c #7A7673",
"V. c #747B74",
"C. c #7B7C74",
"Z. c #73757B",
"A. c #79757B",
"S. c #747B7C",
"D. c #7B7C7B",
"F. c #807E5A",
"G. c #837E6B",
"H. c #827D75",
"J. c #817D7B",
"K. c #7F853F",
"L. c #7B8259",
"P. c #76816C",
"I. c #7C816D",
"U. c #7C8364",
"Y. c #7C8274",
"T. c #76817A",
"R. c #7C827C",
"E. c #7E887C",
"W. c #778477",
"Q. c #82855D",
"!. c #80804C",
"~. c #838263",
"^. c #84846C",
"/. c #898B6B",
"(. c #828474",
"). c #868976",
"_. c #8B8C75",
"`. c #83847C",
"'. c #8A857B",
"]. c #85897C",
"[. c #8B8B7C",
"{. c #8A8573",
"}. c #928E7C",
"|. c #93937C",
" X c #979777",
".X c #899170",
"XX c #6E7481",
"oX c #6D7C81",
"OX c #757681",
"+X c #747B82",
"@X c #7B7D83",
"#X c #767D88",
"$X c #817E84",
"%X c #827F89",
"&X c #768183",
"*X c #7C8283",
"=X c #7E8985",
"-X c #7C838A",
";X c #78858A",
":X c #7E8790",
">X c #838583",
",X c #8A8583",
"<X c #858A83",
"1X c #8B8B84",
"2X c #83848B",
"3X c #89868B",
"4X c #848A8B",
"5X c #8B8C8A",
"6X c #928C83",
"7X c #928D8A",
"8X c #908685",
"9X c #8D9184",
"0X c #8C918B",
"qX c #86918D",
"wX c #929385",
"eX c #93928C",
"rX c #9A9989",
"tX c #848591",
"yX c #838992",
"uX c #8C8C92",
"iX c #8A8691",
"pX c #918F93",
"aX c #8E9192",
"sX c #8F9799",
"dX c #939495",
"fX c #9B9C95",
"gX c #95949A",
"hX c #989694",
"jX c #A29C97",
"kX c #A19B8D",
"lX c #9DA194",
"zX c #A5A893",
"xX c #999DA3",
"cX c #9EA4A3",
"vX c #A0A4A3",
/* pixels */
"4 p ..o.f.o.9.7.k.Z.c.V uX*X*X9.F C.C.Z.D.A.Z.OX#XD.s.f.C.R.-Xb.T.=XS.>Xi.6 M ( i i y t t y i i r e.e.5.9.6.6.$.W r b 5X>XuX6.M ",
"# =.6XeXwX9XeXdXpXgX5XF A.S.@X9.w.C.B.C.`.V.Z.n.Z.Z.s.V.R.S.S.&XS.*XZ.D.(.J G.{.~.Q.~.Q.L.L.] ) ! p.r.y.s.9.6.o.7 8 ).,X$XJ.,XC.",
"H g.eXeXeXlXeX0XgXgXgX9.A.S.Z. .w.H.$X'.Y.f.V.N.S.A.F N.@XS.+X&X&X+X-X>XC.o.8X,X).`.).].).=.a.g.[ e.r.9.s.6.9.s.| m ).>X,XD.S.>X",
", ..'.5X9X}.<X0XdXdXeX4.R.D.D.R.w.$XJ.'.g.R.V.N.9.A.e.V.Z.+Xk.m.;X;X-XN.C.[ @XiX2X1X*XV.Y.p.p.} $.p.r.r.s.6.9.e.$.M `.<X`.C.5XJ.",
"M { '.1XwXg.Y.9X9X0X9Xo.R.D.D.>XL ,X$X%X%X@XZ.l.Z.<Xn p.C.V.D.*X:XXX+XS.'.[ @XtX-X*XW.p.-.~ *.) ~ ~ X.6.f.s.u.=.Q r } >XJ.1X^. X",
"8 O.C.H.wXY.(.[.).rX_.#.a.).A.`.K J.,X$X2Xc.l.c.0.vX$.P $.o.s.S.#XtX*XdX} z 3X2X&XS.W.p.L.) L.*.) #.p.p.9. . .[ + 2 K  .Z v ~ e ",
"* :.(.>X1Xf.Y.I.U.~ L.L.9 -.(.x w / K b k.7.l.h. .g &.r ! X.S F 8.7.4.I 7 | 6.2X+X&XW.t.y.L.&.+ P.E.[.5X<XJ.5X,X9X9XH.>X`.C.| c ",
"i Q.g.C.V.6.g.(.^.*.] a 4 E p.| J O.i.w.D.3XiXD.D.).U.@ p.e.s.N.Z.D.p.-..X2 6.+X;XM.T.W.y.t.a.o.[.`.`.<X>X3X5X>X>X`.,X<X,XY.f.| ",
"y L.| o.s.5.Y.Y.I.P _ a ) -.P.[.{ kX6X7X7X7X>XuX0X9X).~ u.B.N.v.B.r.a.~.` e o.T.+Xm.#X+Xm.>X9.6.u.Y.].>X2XD.1X`.`.`.>X>X<X).=.4 ",
"o d ;.p.f.f.N.f.E././.~ -.p.C.<Xb 7X7X7XeX5X@XuX*X)._.| e.V.N.9.N.N.X.;.a 9 I V.S.+X;X;X+X2X>.*X`.f.b.aXk.*X].Y.E.`.,X2X3X'.;.9 ",
"o d _ | p.f.R.*XV.>XE.u.4.D.@X@XK B.7X5XgX>XyXtXS.R._.X.p.6.V.9.9.`.).=.s 4 ! C.T.T.S.n.S.v.9.S.*XR.R.N.>X2XD.*X(.<X>X3XuX'.~.- ",
". d ' p.I.f.R.&X-X>XD.<X7.OX@XA.K G.'.1XhX4XOX-XD.R.g.p.} r.s.N.Z.9.6.=.s p ! ).`.Z.V.&XZ.1.<.aX@Xn.R.v.-X+XV.>X>X>X2X2XuX5X.Xe ",
"- *.G.g.f.V.<X=X-X4X>X*X9.Z.@XV.w Q ;.a.p.V.@X&X&Xr.I.%.%.e.s.b.Z.v.r.| zX* ; s.e.Z.n.+XyX2.C S.&X+X=X;X+X&X>XE.4XtX2X2X3X,X X4 ",
"$ ^.(.D.R.E.=X-X-X=X<XV.Z S.2XV.^ Q.a.| p.y.Z.+XZ.C.e.P.e.y.V.y.8.<Xs.Y ~.2 u.s.6.8.j.j.z.xX3.sXn.-XS.M.+X=XE.`.2X2XiX3X7X'. X4 ",
"w ^.C.J.>XR.T.=X=XE.W.p.z *X2XS.v =.p.Y.P.W.R.S.m.+Xf.V.v.r.S.t.t.b.r.Y.}.+ e.w.5.1.8.n.j.&XD &X+X+Xv.=X=X&XW.].R.D.5XiXuX6X Xy ",
"J z H.fX4XaXS.Z.v.y.} x n S.Z.*X .'.5XY.W.t.&X+X+X+XR.V.A 5X5.>X5.y.3.n c : p.u.X.e.8.3.M.S.1.;XoXoXS.T.T.V.W.Y.].>X0X,X3X,X X4 ",
", M M n F >.,.,.,.8.S M [ d.D.S.F R.gX>X>XE.m.OXn.R.N.R.n Y G 5.Y t.T.e.lX~ E ~.) } 5.y.y.R.D Z.;X+Xb.W.t.f.#.p.).5X0X<X9X[.{.J ",
"[._.^.[.,X2X2X2X+XD.^.:.6 G.f.1XS  .5X>X1X>X-XZ.T.V.R.(.[ Y.>X>X=XW.qXqX9X_.;.# p #.y.R y.V.>.Z.Z.T.T.y.P.#.^ &.g.5XR.f.f.).H.H ",
"'.[.).(.J.<X,XC.9.p./ ( & q 6 x M : x g : n A v > X.n Y ).R.>X@X4XyX=XqX0X9X_._.7 P y.5.R e.4.D l R R R } #.*.E ..L T 1.k v b J ",
"'.H.(.[.6X'.I.g.p.m 3 & d & a.(.o.d.o.q.e.$.T fX<XP.R.T <XV.-XtX-X:XyX4X0X1XwXwX|.| b.W.t.b.D.&XE.E.E.E.Y.).3 E d.>X5X<XD.5XG.J ",
"J.'.H.C.B.J.H.w.H.i.Q & * @.d.B.J.H.'.J.Y.D.Z.l.D.v.D.D.T 2X#XtX:X:XaX0X<X5XrX[.).X.V.m.b.b.j.S.W.t.S.*XT.f.| M '.2X2X4XR.C.G.Q ",
"hX7X>X$XD.x.w.B.H.H f 0 & F.H.$XJ.J.B.C.`.>Xc.Z.k.Z.Z.k.>.2XuXtX2XuX4X0X9X0XeXhXeX5.T.M.M.m.M.V.r.b.&Xv.*XD.g...J.2X*X*X<X(.F.* ",
"8XhX8XJ.J.H.B.w.d.@.f u # @.H.B.J.J.d.u.d.,Xk.9.C.s.D.A.D >X2XtX*X>X<X9X9XfXlX9X9Xn v.+XoXM.n.T.b.b.b.*X@XZ.'.K @XiX2X#XD.C.@.w ",
"M K H K 0.+.+.d.G.J # # 3 O.C.A.J.H.g.$.u. .<.$XV.f.r.5X[  .`.5X0X1Xs.T v Z  .5.Y T +XoX&X;X&XW.W.r.T.T.>X>X`.G @XtX-X-XR.G./ p ",
"& q / K c ! = q J q.'.o.k b V.f.H.g.g.u.6.4.Z Z.B.V.[ 5 W 4 Q 8  .4.A.A.Z.9.9.4.y.A 0XuXz.oXM.b.t.r.W.W.<XJ.>Xv @XOX*XW.E.=.` = ",
". ( =.i.o.@.` 0 &.w.A.%XfXg s.C.d.e.X.e.6.S.>.A.>Xv b =.X - a ' X.8.c.k.7.h.v.r.4.R.5.+X#Xn.r.b.T.V.Y.Y.V.B.s.h A.2XW.y.-.L.] . ",
"* Q.+.g.d.+.q q +.x.c.A.`.<Xv.Z.8.r.y.f.s.R.N F h 4.B.d.# % 3 ! s.v.c.l.h.h.n.h.8.V. .@XOXOX+Xn.n.Z.C.Y.V.D.9.Z 9.D.T.P.p.L.] . ",
"q O.g.s.d.+.@.q i.w.x.c.C. .c.OXv.V.V.S.N.D.h F B.w.x.+.4 i 3 =.6.n.v.l.h.h.n.2.7.8.L s.OX#XOX&X#XS.T.Y.D.A.w.G A.A.r.f.f.~.] . ",
"/ F.u.f.N.u.q q @.+.q.w.5Xj OXOXZ.S.D.S.N.Z.G s.c.9.x.o.s . ;.! e.r.j.l.h.h.z.j.2.s.5 | J.Z.#X-X*XV.C.f.`.A.9.G @XZ.b.v.T.(.;.* ",
"6 , m F F z 0 0 E / ..w.H b $X%XS.V.D.S.S.B.A w.x.c.k.q.p % / 6.r.n.n.n.h.j.n.M.k.6.@ p 6 k 1.,.j S X.T A S [  .D.n.S.Z.&XC.a.q ",
"K w.0.9.7.B.0 u s J +.G.@ , B.$XZ.S.A.S.B.V.m f.N.c.Z.B.~ 2 o.N.M.n.Z.OXk.M.3.j.r.p.0 u Q &.C.<X<X`.e.e.r.s.u.[ g.V.r.m.S.V./.q ",
"J.$X3X2XtXjX3 q @.@.i.@.* s i.0.B.A.C.D.9.f.7 =.G N B k 5 7 n S.N.b.S.+Xn.n.3.8.9.a.y O ` ' E.D.).g.p.g.eX6XeX6.M C.V.C.N.C. Xq ",
">X5X$X%XiXhXK < 6 E O.< & q 0 < k M K }  .n + E H.%X8X'.i.6Xg.X.x c g V j j h h > 7 . d ] ;.).V.;.:.G.F.}.6X7XjX, 3 | m m z J , ",
"D.$X$X%X$X$XL ..H m J ^ w * X q q 5 +.C.`.C.5 ! H.$X}.}.}.H.rX[.| rXf.r.b.N.eXr.(.=.& u _ #.g.^.:.F.F.~.|.wX7Xd.< {.G.g.q.H.d.q.",
"g.V.@XiXiX%X9.$XjXq.H.d.G.{.. d y *.g.`.*XD.e. .H.$X{.}.G.}.wXeX[ o.r.V.C.r.6.f.e.p.& 0 ] *.*.;.*.*.G._.1X[.5Xq.+.g.(.C.5XD.9.1X",
"W.Y.D.3X3X3X7.C.D.C.x.x.H.^.s d d ` I.`.*X*XD.[ H.G.G.|.^.(.g.).X.[ B.r.y.r.6.o.o.p.i % _ *.p.U.*.#.I._.).g.`.V.S `.C.S.9.v.V.D.",
"&X4X>X>X>X<X .C.V.B.D.s.s.a.c &.] _ f.R.<X>XdX4.H.G.{ /.(.).[.I.o.T v.n.v.r.X.-.%.*.' E ;.P.e.p.a.U.).(.).(.g.u.7.D.r.Y.e.P.t.n.",
"OX+XD.*X`.]. .g.V.s.N.6.f.g.L (.#.L.P.).*XS.cX1.+.q.$._._.(.Y.(.[ C.k.XXS.r.%.#.%.L.Q w p.E.V.C.Y.(.[.C.).).a.e.4.V.`.e.p.t.y.D.",
"*X-X-X5X9XwX[ g.s.V.C.f.d.d.G `.Y.-.Y.*X<X-XE.I %.P._.| =.Y.1X<X6.>XS.n.n.S.y.f.y.I.W r U.P.P.t.D.H.$XD.H.p.:.&.[ (.e.e.I.e.r.V.",
"E.R.*X>X5X5X[ C.V.s.g.f.r.H.v 5X].].`.<X*X=XI.I #.^.Y.(.I.(.`.>Xk S.v.S.M.&XE.b.r.E.8 a U.~ -.f.D.>X>X>XC.p.L.^ Y H.(.f.W.W.V.*X",
"W.<X1X1X5X1XX.D.f.g.f.d.B.f.m (.).5X<X5X>XR.>XX.L.*.Y.).Y.C.H.D. .C.t.V.W.W.T.T.b.V.7 Q ) W %.y.f.S.>XR.<X(.I.~ S D.V.T.=Xm.=XT.",
"].<X`.5X1XeXK i.u.g.N.D.A.s., $.1X4X2X2X<X`.D.S %.*.f.`.u.g.J.'.G V.W.r.W.t.=Xb.v.V.! Q ~ L.~ %.T.R.R.`.T.<X).[  .b.Z.R.=X:XoXT.",
"qXC.>X<X<X'.6 L.8 c N G G h H 1 f.>XZ.B j k j S I ! B.6...u.=.d.[ r.9.b.T.b.V.@X+XR.H ^.P.t.C.D.D.R.V.f.).H.D.L 5XH.R.Y.W.S.=X=X",
"V.S.*XC.'._.4 $ &.g.c.@X@X7Xi.M 6.gXiXdXfX`.C.s.R.].N.9. .H 6 + | X.V.m.+XS.;X-XoXS.J ! p.f.V.Z.Z.@XC.`.C.5X,XL m fXo.e.6.N.*XV.",
"j Z h g M W ;.^.).>X3X2X5X0XlXm dXdX5X5X6X1X5X<X2X*XR.>X'.^.y . 2 =.(.t.S.&X&X&Xm.].s i *.U.C.>X3X@XtX3XJ.J.'.c 8 E o.M g h V Z ",
"S.r.v.V.|.c ^.).5X4XuXuX2XdXC.A eX7X5X1X'.>X3X>X<X>XT.C.`.G.!.L.p _.f.V.&X&X&XS.S.p.s a r r z h N C B N Z L K , 2 E =.g.B.S.N.Z.",
"m.r.f.o.G.> d.D.J.A.2X2X4X>XuXG 5X<X5X).3XpX@X>XC.W.V.W.| :.a ` Q.$.V.S.n.v.<Xt.W.f.8 F.p.W.>XD 4XcXyX-XS.xX2X>XC.M s.B.v.9.n.z.",
"b.5. .9.f. .s.`.@XD.S.OX2X2XuXD B.R.`.5X>X5X5XA.C.V.V.f.;.&.s 4 ! g  .D D T T } X.P 5 ! V.S.@X@XaXt.S.n.S.n.+X@XS.4.r.4.v.n.XXz.",
"S.b.8.9.R. .9.A.S.+XOX#X#X*XtX>.H.D.`.R.R.V.V.V.S.S.V.a.) ^ 8 a.s.D.>Xb  .`.dX4. ...8 ^ W.S.+XOXh V.+Xn.M.&XM.m.+X1.N.9.c.h.j.z.",
"v.m.S.@X8.l T v.n.#XXXn.D.*X@XZ s.s.N.v.b.f.r.f.N.B.p.#.' e c V.Z.Z.0.5X[ [ 0.<.w.[ 7 ~ f.b.@XD.R.T.b.j.oXM.m.m.+X2.9.k.7.4.OXn.",
"+Xj.j.8.y.n V.t.v.OX#XXX+XS.*X4.9.N.S.D.T.Y.s.e.6.$.Q ` - a +.B.n.v.j w.4.N.k.0.0.+.H 9XY.V.u.p.7 Y.V.n.n.;Xm.S.;X,.@Xx.r.v.z.XX",
"n.8.m.y.r.} Y.r.k.m.XX+X@XV.lXn f.C.Z.N.s.r.e.$.=.*.] d X 3 o.A.c.Z.0.S 0.0.0.x.w.+.m C.N.e.-.;.L.r fXm.oXoXb.S.N.>.7.c.9.C.M.oX",
"y.B.A.C.o.c S 4.x.l.7.4.P + 2 #.m 5.B.C.s.y.e.%.p.' d u y % w.A.Z.Z.e.b 9.k.A.6.O.@./ B.A.u.&.` d e (. .V *XC.s.J.4.4.L ..K F 4.",
"5.5.s.s.6.X.[ D.%X#XD.C.5 ~ Q ^ o.X.A A } X.I c X.' X - . 4 H.A.D.@X1X: 4.9.s.i.:.F./ g.C.(.&.` d t / s.9.9.> g.i.b k d.6.s.r.4.",
"Z.V.4XA.N.0.G D.@X@XR.V.g f.u.).g.g.p.e.X.%.f.Y.p.i./ $ * 8 [.$XZ.s._.@ e.o.I ] K.f s =.Y.Y.I.;.$ + : 6.N.Z.V.t.K > V.J.Z.S.Z.*X",
"n.v.S.Z.9.`.Y s.R.`.V.C.5.f.f.o.p.P.e.} X.e.y.X.4.s.e., O.o.w.d.s.9.q.@ n X.P t t o 4 c   j S e.p.u.e.r.#XS.Z.r.f.Y 6.9.#XoXm.T.",
"j.m.k.r.f.t.} -.Y.P.e.1 %.L.P t.g.I.Y.T %.y.y.8.k.k.D.B.,X).1X].1X`.rXk <.k.`.u.rX|.[.qXqXqX2XR.D.R.V.r.j.j.M.k.r.l b.n.j.z.n.M.",
"V.r.8.V.e.#.~ -._.W.I ~ W .XL.-.g.).).T 3.r.3.8.7.k.OX>.,X`.].9X1X1X'.o.gXpX@X>X`.5X0XyX&Xm.+X#X+XS.7.7.1.j.7.8.j.C S.n.n.m.M.b.",
"r.r.X...&.#.! =.p.g.e.6.m I.p.$.u.).<XF 1.3.3.8.k.k.7.B 2X5X<X).7X5X[...`.<X<X-X>X>X+Xm.m.&X#XOX+XS.v.T 5.8.8.8.v.1.v.+Xb.S.b.V.",
"r.N.6.$.&.) E -.Y.n C.N.u.E.}._.[.5X5XZ 8.v.5.1.4.8.v.1.A.*X>X>X<X`.,XL <XY.Y.S.@X@X+XS.&X&X#XoXZ.S.v.9.r.N.k.k.M.>.S.@XV.T.b.V.",
"S.Z.s.e.~ &.&.~ [ T 9.r.X.[.C.1X}.8X5XG k.N.v.r.r.9.5.5.>X4X=X=X>X>X$X4.`.`.R.+XOXOXZ.Z.T.S.Z.Z.V.S.n.4.N.9.k.9.T.T sXS.S.Z.b.b.",
"C.C.s.$.$.L.*.#.u.s.T 6.[ [.9X}.}.6X'.[ 9.r.r.r.9.r.4.Z S.Z.Z.T.R.H.$XF R.T.=X&X>XD.N.s.V.C.D.B.D.V.V.Z Z.9.f.6.5.n y.S.Z.v.V.t.",
"E ! ! / J 3 3 =.i.o.q.+.G.5 ! { @.O.E c =.s.s.r.N.f.5.D R.>X&XT.R.R.@Xk.cXE.n.V.A.C.I.I.I.C.H.H.C.(...n b b : < 9 r , H.D.A.C.B.",
"e e 4 3 # 3 q M 5 : : : ; , , 6 < 6 + 5 ; : g v Z 7.C.V.Z.*X*X*XS.R.@X7.D l V h g x 1 ; 1 x M M m ..| M { ..{ ( % y M ; h B h n "
};
