/* XPM */
static char *result[] = {
/* columns rows colors chars-per-pixel */
"64 64 256 2 ",
"   c black",
".  c #010101",
"X  c #020202",
"o  c gray1",
"O  c #040404",
"+  c gray2",
"@  c #060606",
"#  c #070707",
"$  c gray3",
"%  c #090909",
"&  c gray4",
"*  c #0B0B0B",
"=  c #0C0C0C",
"-  c gray5",
";  c #0E0E0E",
":  c gray6",
">  c #101010",
",  c #111111",
"<  c gray7",
"1  c #131313",
"2  c gray8",
"3  c #151515",
"4  c #161616",
"5  c gray9",
"6  c #181818",
"7  c #191919",
"8  c gray10",
"9  c #1B1B1B",
"0  c gray11",
"q  c #1D1D1D",
"w  c #1E1E1E",
"e  c gray12",
"r  c #202020",
"t  c gray13",
"y  c #222222",
"u  c #232323",
"i  c gray14",
"p  c #252525",
"a  c gray15",
"s  c #272727",
"d  c #282828",
"f  c gray16",
"g  c #2A2A2A",
"h  c gray17",
"j  c #2C2C2C",
"k  c #2D2D2D",
"l  c gray18",
"z  c #2F2F2F",
"x  c gray19",
"c  c #313131",
"v  c #323232",
"b  c gray20",
"n  c #343434",
"m  c #353535",
"M  c gray21",
"N  c #373737",
"B  c gray22",
"V  c #393939",
"C  c #3A3A3A",
"Z  c gray23",
"A  c #3C3C3C",
"S  c gray24",
"D  c #3E3E3E",
"F  c #3F3F3F",
"G  c gray25",
"H  c #414141",
"J  c gray26",
"K  c #434343",
"L  c #444444",
"P  c gray27",
"I  c #464646",
"U  c gray28",
"Y  c #484848",
"T  c #494949",
"R  c gray29",
"E  c #4B4B4B",
"W  c #4C4C4C",
"Q  c gray30",
"!  c #4E4E4E",
"~  c gray31",
"^  c #505050",
"/  c #515151",
"(  c gray32",
")  c #535353",
"_  c gray33",
"`  c #555555",
"'  c #565656",
"]  c gray34",
"[  c #585858",
"{  c gray35",
"}  c #5A5A5A",
"|  c #5B5B5B",
" . c gray36",
".. c #5D5D5D",
"X. c gray37",
"o. c #5F5F5F",
"O. c #606060",
"+. c gray38",
"@. c #626262",
"#. c gray39",
"$. c #646464",
"%. c #656565",
"&. c gray40",
"*. c #676767",
"=. c #686868",
"-. c DimGray",
";. c #6A6A6A",
":. c gray42",
">. c #6C6C6C",
",. c #6D6D6D",
"<. c gray43",
"1. c #6F6F6F",
"2. c gray44",
"3. c #717171",
"4. c #727272",
"5. c gray45",
"6. c #747474",
"7. c gray46",
"8. c #767676",
"9. c #777777",
"0. c gray47",
"q. c #797979",
"w. c gray48",
"e. c #7B7B7B",
"r. c #7C7C7C",
"t. c gray49",
"y. c #7E7E7E",
"u. c gray50",
"i. c #808080",
"p. c #818181",
"a. c gray51",
"s. c #838383",
"d. c #848484",
"f. c gray52",
"g. c #868686",
"h. c gray53",
"j. c #888888",
"k. c #898989",
"l. c gray54",
"z. c #8B8B8B",
"x. c gray55",
"c. c #8D8D8D",
"v. c #8E8E8E",
"b. c gray56",
"n. c #909090",
"m. c gray57",
"M. c #929292",
"N. c #939393",
"B. c gray58",
"V. c #959595",
"C. c gray59",
"Z. c #979797",
"A. c #989898",
"S. c gray60",
"D. c #9A9A9A",
"F. c #9B9B9B",
"G. c gray61",
"H. c #9D9D9D",
"J. c gray62",
"K. c #9F9F9F",
"L. c #A0A0A0",
"P. c gray63",
"I. c #A2A2A2",
"U. c gray64",
"Y. c #A4A4A4",
"T. c #A5A5A5",
"R. c gray65",
"E. c #A7A7A7",
"W. c gray66",
"Q. c #A9A9A9",
"!. c #AAAAAA",
"~. c gray67",
"^. c #ACACAC",
"/. c gray68",
"(. c #AEAEAE",
"). c #AFAFAF",
"_. c gray69",
"`. c #B1B1B1",
"'. c #B2B2B2",
"]. c gray70",
"[. c #B4B4B4",
"{. c gray71",
"}. c #B6B6B6",
"|. c #B7B7B7",
" X c gray72",
".X c #B9B9B9",
"XX c gray73",
"oX c #BBBBBB",
"OX c #BCBCBC",
"+X c gray74",
"@X c gray",
"#X c gray75",
"$X c #C0C0C0",
"%X c #C1C1C1",
"&X c gray76",
"*X c #C3C3C3",
"=X c gray77",
"-X c #C5C5C5",
";X c #C6C6C6",
":X c gray78",
">X c #C8C8C8",
",X c gray79",
"<X c #CACACA",
"1X c #CBCBCB",
"2X c gray80",
"3X c #CDCDCD",
"4X c #CECECE",
"5X c gray81",
"6X c #D0D0D0",
"7X c gray82",
"8X c #D2D2D2",
"9X c LightGray",
"0X c gray83",
"qX c #D5D5D5",
"wX c gray84",
"eX c #D7D7D7",
"rX c #D8D8D8",
"tX c gray85",
"yX c #DADADA",
"uX c gray86",
"iX c gainsboro",
"pX c #DDDDDD",
"aX c gray87",
"sX c #DFDFDF",
"dX c gray88",
"fX c #E1E1E1",
"gX c #E2E2E2",
"hX c gray89",
"jX c #E4E4E4",
"kX c gray90",
"lX c #E6E6E6",
"zX c #E7E7E7",
"xX c gray91",
"cX c #E9E9E9",
"vX c #EAEAEA",
"bX c gray92",
"nX c #ECECEC",
"mX c gray93",
"MX c #EEEEEE",
"NX c #EFEFEF",
"BX c gray94",
"VX c #F1F1F1",
"CX c gray95",
"ZX c #F3F3F3",
"AX c #F4F4F4",
"SX c gray96",
"DX c #F6F6F6",
"FX c gray97",
"GX c #F8F8F8",
"HX c #F9F9F9",
"JX c gray98",
"KX c #FBFBFB",
"LX c gray99",
"PX c #FDFDFD",
"IX c #FEFEFE",
"UX c white",
/* pixels */
"J.M.k.h.N.) 2.b.x.M.0.r.u.d.h.f.z.u.c.x.v.k.n.l.b.j.x.N.% d.i.g.p.j.l.h.j.x.h.y.u.p.x.Y.Q./.b.1.c.c.8.p.k.h.$.b.z.u.N.B.b.g.C.+ ",
"b.C.M.c.S.j.B.b.m.f.g.h.g.v.x.l.g.k.m.t.u.D.g.k.x.v.m.x.<.B.g.k.c.g.f.l.c.j.d.d.h.b.c.c.S.P.v k.h.x.z.-.h.f.a.V.Z.c.H.C.m.c.q.x.",
"k.B.A.b.M.S.R p.x.h.B.l.c.l.z.b.k.j.g.r.y.6.e.k.f.M.k.B.B.f.A.H.c.k.g.g.f.d.f.h.v.k.d.c.m.z.z m.q.b.h.b.5.<.0.k.Z.m.C.M.l.B.b v.",
"z.B.S.b.F.b.y g.i.v.t.k.v.w.l.l.l.f.x.a.r.t.y.w.g.C.m.V.z.3.A.c.c.j.f.f.j.z.b.N.j.b.n.l.m.s.= g.C.9.y.<.w.g 2 - # T m ) _ G Z.l.",
"H.b.V.G.M.x.c u.j.a.n.l.x.j.d.k.B.a.h.r.g.f.a.e.:.@.u.h.t.*.d.x.f.w.q.g.c.z.c.V.l.k.j.z.k.w.: -.%.; D k 7.h.w.;.q.q.e.e.a.O.m.c.",
"c.9.C.N.U.A.k > M s.p.u.d.j.r.u.4.N.f.g.a.f.x.m.v.x.r.9.q.) N.h.8.9.t.s.a.u.p.h.j.x.z.1.6.a.3 w.g.d.s.z.S.b.B q.-.0.8.4.h.G.x.x.",
"n.k.{ o.f.f l.q.r.v.A.K a V j.V.t.P F Z x #.g t.k.l.h.h.z T a.5.0.s.h.i.w.e.y.t.g.c.4.0.f.l L v.g.p.d.k.p.x.i...5.-.e.:.1.Z.v.x.",
"s.L.J.j.9.P h.a.s.1.<.u.a.N.C & s 2 u p g 1 ! c.a.l.:.y.Q.T 7.=.f.i.e.q.e.y.r.w.@.7.i.t.Z l.>.h.y.a.p.g.t.y.p.E < L *.3.&.6.=.p.",
"d.e.m.v.7.< ; 6 ) :.N.M.H.B.z.j.y.y.d.s.T.E.p.k.g.s.f.e.6.t.7.b.i.e.y.5.2.6.9.7.4.w.3.S m.$.*.u.i.r.4.y.c.a.p.{ U w.a.a.f.g.y.a.",
"i.w.O.e X.h.K.w.p.) t.d.y.a.m.Z.m.e.t.g.y.a.<.y.h.t.j.d.$.h.N.e.8.m X.4.;.>.<.o.) ^ ] l.c.G.3.' e.o.o.7.e.y.e.*.P O.u.r.c.y.g.a.",
"b ` r.:.3.e.8.t.Z u.x.p.M.t.d.j.x.z.h.f.0.y.h p.5.3.=.I b D 3.[ t y.b.9.a.6.f.c.l.a.d.D.D.a ) y.y.p.i.6.9.*.0.:.B.h.t.7.=.-.7.I ",
"N.v.f.x 4.t.q.i.[ t.t.q.y.w.u.u.n.h.d.p.7.q...W.Q.G.T.<.G.k.x.v.A.z.b.8 >.V.s.q.J.I.$.z 1 6 U / y.*...w.p.w.8.r.G.c.k.9.p.j a.B.",
"b.v.l.p $.y.e.' 1.9.0.t.0.d.8.q.6.h.j.z.v.h.1.U.E.W.E._.+.3.x.V.e.A.c.A.F.G.B.F.b.D.H.| H.6.D.V.Z.I >.G.]..XL.P.m.8.o i.m.7 k.j.",
"N.k.h.T :.~  .=.1.-.#.%.| w.q.i.9.9.z.d.h.b.C.W.H.G.P.P.0.f.h.u.g.F.H m.F.I.j.B.C.x.8.G.F.A.C.P.n.` g.e.S.D.I.L.x./.x i.u.T f.z.",
"j.s.y.x.,.6.u.1.;.-.:.>.-.X.I 2.9.3.<.o.,.-.T.G.S.D.V.S.s.j.m.k.k.x.Z.V.H.b.D.F.3.y.I.H.g.C.V.H.c.s.B.c.S.A.A.K.H.p.S q.a.7.g.c.",
"e.y.<.! & 1 R h k X.a f ;.4.>...` :.) *.#.j.b.!.R./.oXb.3 3 H C.0 M.V.Z.z.N.A.C.c.P.J.x.D.G.J.W.T.V.J.a.a.m.N.D.J.m.P.l.i.u.u.x.",
"y ) F.P.B.F.A.n.V.n.j.I.S.L.p.A.f.8.n O.*.Z.k.].D 3.K.p.l.q.D & Z.M.x.b.v.Z.D.V.S.K.G.S.A.Z.A.Z.M.U.'.D.V.D.d.A.Z.m.E =.,.r.z f ",
"4.z Z.S.D.B.V.Z.N.M.c.I.H.G.j.).T.Q.1.;.5.u.C.g.a.>.h.f.h.M.p.F.1.C.V.V.N.B.K.V.G.J.Z.G.F.V.G.G.n.Z.a / 4.I X.D < &.U.a.a.l.^.i.",
"l.1.B.V.y.G.V.M.N.v.n.D.T.Y.G.[.[.R.l.<.-.6.r.r.e.t.s.s.d.x.b.s.w.B.S.v.D.S.v.C.P.H.F.A.V.Z.S.Z.V.7.7.8.8.^ N.A.B.c.g.c.0.w.z.c.",
"M.<.D.D.C.F.b.C.v.e.t.k.Z.Q.Q.I.J.R.M.4.5.3.w.e.u.Q v.b.f.p.z.0.$.N.A.N.L.R.S._.Q.F.U.D.C.H.V.D.F.% p.s.f.s.;.$.>.f.i.r.i.=.-.d.",
"x.j.v Z.n.c.b.a.s.-.$.b.r.P.U.L.T.J.J.3.>.;.w.0.t.L S.f.k.j.b.l.B.R.I.J.U.D.A.V.D.M.F.K.J.D.m.V.L.g.y.d.Y.g.y.[ O.g.a.f.t.s.w.B ",
"w.l.~ x.M.z.s.a.y.$.y.C.N.l.U.~.T.K.V.6.<.,.1.w.r.x l.N.b.F.b.c.z.B.N.C.v.N.N.M.V.J.M.v.b.N.J.G.U.i.g.|.j.{ u.4.o. .c.a.e.i.f.w.",
"f.f.Y c.h.k.h.y.4.i.f.M.m.c.x.G.A.Z.K.$ ] p M J.c.8.e.C.S.L.D.N.H.r m.c.V.b.l.b.l.M.d.2.6.a.c.A.K d.OXt.e.a 6.0.,.8._ E u.r.i.f.",
"p.d.x.( b.g.y.2.=.j.g.` z.e.e.4.d.h O.d.c.l.z.l.v.n.f.M.b.R.F.K.V.a.m.V.x.j.g.q.8.8.b.c.N.c.3.x.7 h.y.u.u.s 7.7.7.4.6. .%.0.8.a.",
"p.h.i.B.s.g.:.8.s.h.! : t w s { G.z.N.z.c.N.h.c.l.v.b.p.n.n.m.N.B.C.s m.Z.N.C.v.V.B.U.x.x.B.b.p * | F f x j 8.5.6.0.7.4.5.@.9.8.",
"e.g.j.z._ w.i.2.u.z. .c.B.n.b.r.6.v.k.l.B.z.v.z.n.x.I i.q.9.t.g.p.q 3 4 r # | 0.S.7.q.I.q.3.%.5.c.z.v.z.g.W 5.r.5.3.2.4.0.6.y.1.",
"| u.d.z.o._ -.j.f.a.&.M.h.A.A.g.m.j.Z.x.1.7.8.n.q i   f m.i.5 ).s.n m.b.f.K y.2.8.5.8.6.s.9.,.z.z.d.D.d.7.:.....;.w.<.O.3.3.,.8.",
") ' } ,.>.Q y.i.a.p.d.m.n.b.x.N.7.d.%.<.1.-.5.;.5.Z.J.n.D l.f.d.f.D.v.&.j.t.6.r.0.w.2.8.l.0.3.s.h.k.k.0.N.u.s.i.t.i.p.r.u.f.q.6.",
"3.-.8.j.8.A l.j.n.U.4 y.h.n.c.&.@  .K.x.F.N.V.:.C.S.A.P.l g.l.a.&.u.g.i.f.g.:.v.5.3.r.n.4.w.j.i.i.a.a.#.f.k.t.u.g.u.h.p.0.t.w.w.",
"a.d.,.2.t.+.r.] a.l.l.g.l.,.& x.F.V.n.G.C.N.V.z.,.J.A.M.+.d.f.r.f.s.f.d.u.j.%.8.B.B.g.0.w.8.7.j.a.g.p.h.d.p.u.l.h.n.J.S.N.g.t.g.",
"g.t.5.r.y.w.n.k.q.f.d.u.f.r.E k.c.C.F.M.'.M.D.v.4.P.Z.F.h.a.y.f.i.d.e.h.i.r.W 2.8.5.6.9.2.r.2.H e.y.M.g.y.i.x.n.M.f.v.x.l.f.g.t.",
"f.w.0.2.4.f.b.b.m.h.d.h.d.a.j k.x.M.N.N.A.I.I.Z.N.0.J.n.F.i.d 7.#.7.s.d.p.g.H =.>.>.,.7.7.6.0.p p.S.h.d.6.h.A.j.h.x.l.p.B.k.h.z.",
"I 6 d 9 s A v.M.m.n.b.8.d.f...k.k.V.N.M.Z.S.B.S.C.q.B.N.k.2 &.w.t.p.q.j.a.s.1.;.,.>.1.:.;.7.9.f L.u.j.p.r.i.D d f.&.#.=.1.$.f.s.",
"S.J.P.I.R.I.t.n.N.v.m.x.1.f._ 9.s.s.N.Z.C.m.S.C.A.A.n.k.v.r._ &.0.y.p.t.g.a.T 2.+.`  .-.:.4.<.y z.u.q.i.k.V c.m.O.c.B.C.Z v.F.W.",
"A.U.R.L.I.U.j G.m.V.n.v.x.l.4 7.5.t.y.h.j.S.A.C.M.Z.2.x.g.e.s.y.:.c.h.s.y.m.9 6 m <.` ..Z q C -.e * t c.x.j.n.b.D.L.v.B.C.S.~.T.",
"H.I.).I. XU.L 0.8.;.e.9.,.r.U N.m.7.e.s.h.p.M.N.N.M.b.s.u.( j.g.y.| l.n @.l.m.p.j.n.n.m.M.v.x.f.z.u.-.z.n.b.q.c.n.D.A.N.l.9._.R.",
"Q.T.).'.).I.y.0.9.q.8.9.4.2.e.S.Z.V.s.l.j.p.q.V.M.k.M.b.u.j p -.I.R.A.x.l.x.u.v.c.L.h.v.V.F.b.l.h.n.;.B.c.b.N.<.f.Z.D.T.C.P R.U.",
"T.Q.L.W.~.T.k.t.t.u.r.0.;.#.6.B.M.M.C.k.z.s.a.0.j.v.s.h.~ C U.Z.C.j.l.M.n.b.c.Z.K.z.V.g.Z.N.j.v.b.F.n.| x.m.v.n.,.8.B.s.l.q.XXD.",
"~ 2.O.U } ..b.z.l.q.y.<.e.d.+.B.C.V.c.N.N.l.8.8.s.j.c.j.#.v.b.g.k.A.v.C.n.n.B.m.b.b.n.m.v.Z.Z.x.n.v.v.F.u _ D.V.l.4.I h A 5 0 3 ",
"J.K.E.L.<.y.g.w.b 9 k w t 8 5 D.S.m.C.A.B.m.n.f.y.A h M F.j.z.g.N.n.n.N.N.V.c.V.b.n.n.c.n.c.v.n.B.v.l.c.l.M.V q.e.k.$.;.;.T.L.F.",
"Q.^./.T.~.).U.!.Q.P.Q.I.Y.M.r.N * y 4 0 ^ ~.<.a.=.l.i.+.Z.x.d.v.p.v.B.N.C.M.m.M.m.v.B.v.n.N.z.n.g.k.h.k.l.B.r.q.u.9.u.H.Z.G.U.D.",
"Q.K.~.}. X(.~.W.L.^.!._.j.P.J.J./.+.&.j.g.j.-Xx.f.9.d.g k.j.m.k.h.t.e.V.N.V.Z.v.m.M.m.z.g.x.M.j.M.n.b.C.N.) 0.7.q.e.I m.V.C.V.J.",
"P.E.W.{.(.Q.`.P.XX_.}.T.J.L.I.L.K.S.K s.v.h.f.g.v.s.s.f h.c.m.a.l.p.g.9.9.B.c.c.M.x.j.n.g.g.j.v.k.z.c.z.M.5.t.q.9.i.x v.v.N.Z.L.",
"S.H.T.R.^./.x.^.Y.K.E.J.W.R.T.P.I.I.B 8.e.c.j.g.h.j.p.! x.p.x.d.f.s.t.w.d.6.6.9.4.p.i.j.d.c.d.g.f.m.l.c.v.B e.r.7.q.I A.N.v.B.B.",
"I.S.G.E.R.W.^.).S.Q.R.~.T.T.P.P.S.P.E.0.i.q.a.l.z.C.K.G.v.h.N.M.n.b.m.s.@.^ I [  .2.p.s.e.e.l.l.k.s.b.k.f.I 4.e.e.<._ V.B.Z.v.A.",
"Z.H.S.h.E.~.R.!.L./.!.!._.Q.W.K.R.I.I.j ` 2.p.s m i k Z w s h x.n.W b.z.v.b.v.j.p.c.k.k.*.L h.g.n.M.s.| ] = , q l > B.A.M.H.m.Z.",
"D.K.S.H.(.R.~.T.Q._.W.R.I.T.Y.W.Q.K.K.m p.y.q.t.w.4.t.K.C.r.r.i -.d.h.M.V.F.<.*.o.m u h K :.3.3.s.^.d.t.a.z.f.j.y.n.J.J.N.L.n.C.",
"J.D.K.V.f.W.~.!.Q.T.Q.L.U.P.J.T.L.U.R.^ y.n.h.k.a.t.p.t.0.u.t.D y.b.m.N.n.N.M.B.N.k.Z 2.i.l.l.B.v.f.p.F.V.x.z.a.a.m.A.L.H.F.L.C.",
"L.S.S.T.p.E.^.E.T.^.E.E./.U.H.n.m.L.I.N s.v.g.g.i.i.d.i.N.f.q.C f.x.v.B.b.v.n.v.x.n.1.t.k.i.m.Z.N.M.C.D.Z.A.B.z.g.a.S.S.m.B.S.A.",
"u.H.J.D.b.b.Q.E.~.R.^./.F.U.V.J.G.H.Q.e.p.l.j.u.s.s.t.F.m.z.b.z k.D.t.0.e.5.i.3.Z.m.%.a.u.r.C.v.N.n.v.C.b.A.G.K.g.v.Y F.G.K.!.L.",
"n.b.K.G.N.M.F.T.Y.n.d.x.K.K.M.I.A.U.x Y h.j.i.m.).m.8.f.i.j.j.W B.j.s.s.g.x.s.6.V O.s s.p.e.u.x.m.N.B.C.v.B.A.G.C.v.d U.H.G.J.J.",
"n.7.U.%.H U q.i.e.a.g.L K j b l l p y ,.y.n.d.d.u.s.i.j.f.y.-.y P R f.C.K ' ^ | t ,.f.t.5.y.W -.e.h.M.n.m.B.Z.N.m.j.u , q l =.f ",
"@.1 w %.t.@.i.f.~.9.$.2.3.r 9.d.s.d.} <.s.w.x.a.e.p.0. .$.@.B r.A.R.Q.A.C.l.x.d.a.h.u.w.i.e.e.e.,.0.p.j.z.n.b.n.x.c.p h.u.h.F.t.",
"B.f.S $.@.=.-.;.o.| @.X.V w.1.3.9.i.4.8 v m G 0.r.9.j a L T.7 K.4.M.h.S.v.x.b.x.g.0.y.p.t.r.d.9.2.7.6.g.d.j.p.z.y.t.i.a.h.0.q.n.",
"n.c.] @.%.o.} @.@...` >.<.&.2.:.4.p.` k L.S.g.A.C.J.m.F.A.J...J.v.Z.z.b.b.c.h.n.m.8.j.u.h.e.q.e.4.5.5.8.t.y.u.h.p.i.q.y.d.0.w.m.",
"l.h.%.4...[ o.| | E :.:.;.:.>.:.Z A $.>.T.C.Z.H.J.J.K.P.G.D.P.G.A.V.h.9.r.g.B.V.m.+.F *.3.4.3.q.q.9.q...4.<.i.t.i.2.3.u.y.f.u.b.",
"h.c.1.X.@.:.O.@.{ X.#.X.*.&.W T U &.z.:.d.N.C.B.S.J.L.S.y.K.P.N g.0.t.T i.a.g.n.m.Y 9.2.` $.q.w.8.0.0.,.2.>.4.4.t.f 4.a.u.s.c.l.",
"z.v.J } O.T T Y ( ] [ #.I T W !  .2.=.L Z.m.N.D.K.L.S.L.A.Y.L.l > * K O.' r.g.7.c.x $.9.<.q.;.2.9.2.>.>.5.2.,.} X.7.j a.t.t.p.c.",
"z.n.f j * U P ' M v g P J R ^ { &. .&.A n.n.v.A.m.S.I.G.U.J.I._.F.l.u.u.v.J.b.k.].K.r...p 4 =.6.s.#.( @.3.H W Z.m.k.m.8 8.r.p.d.",
"'.H.c.l.t.f.U.V.e.l &.f.u.z.x.Z.v.2.1.' ; C b.H.K.V.B.H.V.G.e Z.N.l.h.c.j.b.v.v.a.s.a.w.0.u 6.A.V.D.F.T.b.x.9.b.g.h.t.+.t y N ^ ",
"x.N.D.V.g.g.l.n.8.e.L.m.F.V.z.k.c.v.z.b./ L.U h.r.C.F.D.C.V.s I.B.v.l.j.C.v.c.b.j.q.f.j.m.y x.$.A.S.b.S.F.b.0.j.g.g.j.$.H z.6.k.",
"n.b.F.m.z.A.z.i.G.P.D.Z.H.V.G.n.m.Z.A.H.x.z.v.Z.0 u.D.V.n.` m.V.z.s.c.f.M.g.v.l.d.l.j.a.f.) n.V.%.N.B.a.k.C.u.y.i.5.i.w.) u.w.C.",
"V.c.v.n.A.c.v.| W.s.s.8.0.H.F.N.N.A.l.n.A.V.v.b.x.h.t 0 @.C b.B.z.j.h.b.k.V.x.x.a.m.c.V.c.S.j.l.,.c.z.m.g.h.q { 3.9.8.t.<.p.s.k.",
"5 < 7 h 9.7 - d.4.6.5.e.i.w.8.8.9.c.n.M.N.N.N.b.M.x.x.7 t &.F.v.c.h.n.l.k.c.l.g.M.Z.z.b.B.F.x.g.h.~ k.c.l.m.v v.z.C.Z.g.~ 5 1 2 "
};
