/* XPM */
static char *result[] = {
/* columns rows colors chars-per-pixel */
"64 64 4 1 ",
"  c #665230",
". c #917647",
"X c #B09158",
"o c #C7A873",
/* pixels */
"XXXX................XXXXXXXXoooo....oooooooooooooooooooooooo....",
"XXXX................XXXXXXXXoooo....oooooooooooooooooooooooo....",
"XXXX................XXXXXXXXoooo....oooooooooooooooooooooooo....",
"XXXX................XXXXXXXXoooo....oooooooooooooooooooooooo....",
"XXXXXXXXXXXX    XXXXXXXX....................oooo....ooooXXXX....",
"XXXXXXXXXXXX    XXXXXXXX....................oooo....ooooXXXX....",
"XXXXXXXXXXXX    XXXXXXXX....................oooo....ooooXXXX....",
"XXXXXXXXXXXX    XXXXXXXX....................oooo....ooooXXXX....",
"XXXXXXXXooooooooooooooooXXXXXXXX    XXXXXXXXooooXXXXXXXXXXXX....",
"XXXXXXXXooooooooooooooooXXXXXXXX    XXXXXXXXooooXXXXXXXXXXXX....",
"XXXXXXXXooooooooooooooooXXXXXXXX    XXXXXXXXooooXXXXXXXXXXXX....",
"XXXXXXXXooooooooooooooooXXXXXXXX    XXXXXXXXooooXXXXXXXXXXXX....",
"                                                                ",
"                                                                ",
"                                                                ",
"                                                                ",
"oooo................XXXXXXXX....XXXX........    XXXXXXXXXXXXXXXX",
"oooo................XXXXXXXX....XXXX........    XXXXXXXXXXXXXXXX",
"oooo................XXXXXXXX....XXXX........    XXXXXXXXXXXXXXXX",
"oooo................XXXXXXXX....XXXX........    XXXXXXXXXXXXXXXX",
"........    ooooooooooooXXXX....XXXXXXXXXXXXXXXX................",
"........    ooooooooooooXXXX....XXXXXXXXXXXXXXXX................",
"........    ooooooooooooXXXX....XXXXXXXXXXXXXXXX................",
"........    ooooooooooooXXXX....XXXXXXXXXXXXXXXX................",
"XXXXXXXXXXXXooooXXXXXXXXXXXX............    XXXXXXXXXXXXXXXXXXXX",
"XXXXXXXXXXXXooooXXXXXXXXXXXX............    XXXXXXXXXXXXXXXXXXXX",
"XXXXXXXXXXXXooooXXXXXXXXXXXX............    XXXXXXXXXXXXXXXXXXXX",
"XXXXXXXXXXXXooooXXXXXXXXXXXX............    XXXXXXXXXXXXXXXXXXXX",
"                                                                ",
"                                                                ",
"                                                                ",
"                                                                ",
"XXXXXXXXXXXXXXXXXXXX    ....XXXXXXXXXXXXXXXXXXXXXXXXXXXXXXXX....",
"XXXXXXXXXXXXXXXXXXXX    ....XXXXXXXXXXXXXXXXXXXXXXXXXXXXXXXX....",
"XXXXXXXXXXXXXXXXXXXX    ....XXXXXXXXXXXXXXXXXXXXXXXXXXXXXXXX....",
"XXXXXXXXXXXXXXXXXXXX    ....XXXXXXXXXXXXXXXXXXXXXXXXXXXXXXXX....",
"....................XXXXXXXXXXXX............    XXXX............",
"....................XXXXXXXXXXXX............    XXXX............",
"....................XXXXXXXXXXXX............    XXXX............",
"....................XXXXXXXXXXXX............    XXXX............",
"ooooooooooooooooXXXXXXXX................XXXXXXXXXXXXXXXXXXXX....",
"ooooooooooooooooXXXXXXXX................XXXXXXXXXXXXXXXXXXXX....",
"ooooooooooooooooXXXXXXXX................XXXXXXXXXXXXXXXXXXXX....",
"ooooooooooooooooXXXXXXXX................XXXXXXXXXXXXXXXXXXXX....",
"                                                                ",
"                                                                ",
"                                                                ",
"                                                                ",
"XXXXXXXXXXXXXXXXXXXX....XXXX........    ........XXXXXXXXXXXXXXXX",
"XXXXXXXXXXXXXXXXXXXX....XXXX........    ........XXXXXXXXXXXXXXXX",
"XXXXXXXXXXXXXXXXXXXX....XXXX........    ........XXXXXXXXXXXXXXXX",
"XXXXXXXXXXXXXXXXXXXX....XXXX........    ........XXXXXXXXXXXXXXXX",
"XXXX....    XXXXXXXXXXXXXXXX....XXXXXXXXXXXX................XXXX",
"XXXX....    XXXXXXXXXXXXXXXX....XXXXXXXXXXXX................XXXX",
"XXXX....    XXXXXXXXXXXXXXXX....XXXXXXXXXXXX................XXXX",
"XXXX....    XXXXXXXXXXXXXXXX....XXXXXXXXXXXX................XXXX",
"XXXXXXXX............XXXXXXXX....XXXXXXXX....ooooXXXXXXXXXXXXXXXX",
"XXXXXXXX............XXXXXXXX....XXXXXXXX....ooooXXXXXXXXXXXXXXXX",
"XXXXXXXX............XXXXXXXX....XXXXXXXX....ooooXXXXXXXXXXXXXXXX",
"XXXXXXXX............XXXXXXXX....XXXXXXXX....ooooXXXXXXXXXXXXXXXX",
"                                                                ",
"                                                                ",
"                                                                ",
"                                                                "
};
